<?xml version="1.0" encoding="UTF-8" standalone="no"?>
<!-- Created with Inkscape (http://www.inkscape.org/) -->

<svg
   xmlns:dc="http://purl.org/dc/elements/1.1/"
   xmlns:cc="http://creativecommons.org/ns#"
   xmlns:rdf="http://www.w3.org/1999/02/22-rdf-syntax-ns#"
   xmlns:svg="http://www.w3.org/2000/svg"
   xmlns="http://www.w3.org/2000/svg"
   xmlns:xlink="http://www.w3.org/1999/xlink"
   xmlns:sodipodi="http://sodipodi.sourceforge.net/DTD/sodipodi-0.dtd"
   xmlns:inkscape="http://www.inkscape.org/namespaces/inkscape"
   width="210mm"
   height="297mm"
   viewBox="0 0 210 297"
   version="1.1"
   id="svg3739"
   inkscape:version="0.92.4 (5da689c313, 2019-01-14)"
   sodipodi:docname="balloon.svg">
  <defs
     id="defs3733">
    <linearGradient
       inkscape:collect="always"
       id="linearGradient4858">
      <stop
         style="stop-color:#7f2aff;stop-opacity:1;"
         offset="0"
         id="stop4854" />
      <stop
         style="stop-color:#7f2aff;stop-opacity:0;"
         offset="1"
         id="stop4856" />
    </linearGradient>
    <linearGradient
       inkscape:collect="always"
       id="linearGradient4850">
      <stop
         style="stop-color:#37abc8;stop-opacity:1;"
         offset="0"
         id="stop4846" />
      <stop
         style="stop-color:#37abc8;stop-opacity:0;"
         offset="1"
         id="stop4848" />
    </linearGradient>
    <linearGradient
       inkscape:collect="always"
       id="linearGradient4842">
      <stop
         style="stop-color:#2affd5;stop-opacity:1;"
         offset="0"
         id="stop4838" />
      <stop
         style="stop-color:#2affd5;stop-opacity:0;"
         offset="1"
         id="stop4840" />
    </linearGradient>
    <linearGradient
       inkscape:collect="always"
       id="linearGradient4834">
      <stop
         style="stop-color:#ff2a2a;stop-opacity:1;"
         offset="0"
         id="stop4830" />
      <stop
         style="stop-color:#ff2a2a;stop-opacity:0;"
         offset="1"
         id="stop4832" />
    </linearGradient>
    <linearGradient
       inkscape:collect="always"
       id="linearGradient4826">
      <stop
         style="stop-color:#ff6600;stop-opacity:1;"
         offset="0"
         id="stop4822" />
      <stop
         style="stop-color:#ff6600;stop-opacity:0;"
         offset="1"
         id="stop4824" />
    </linearGradient>
    <linearGradient
       inkscape:collect="always"
       id="linearGradient4818">
      <stop
         style="stop-color:#ffcc00;stop-opacity:1;"
         offset="0"
         id="stop4814" />
      <stop
         style="stop-color:#ffcc00;stop-opacity:0;"
         offset="1"
         id="stop4816" />
    </linearGradient>
    <linearGradient
       inkscape:collect="always"
       id="linearGradient4810">
      <stop
         style="stop-color:#aad400;stop-opacity:1;"
         offset="0"
         id="stop4806" />
      <stop
         style="stop-color:#aad400;stop-opacity:0;"
         offset="1"
         id="stop4808" />
    </linearGradient>
    <radialGradient
       inkscape:collect="always"
       xlink:href="#linearGradient4810"
       id="radialGradient4812"
       cx="100.49833"
       cy="92.817398"
       fx="100.49833"
       fy="92.817398"
       r="13.32107"
       gradientTransform="matrix(-0.70222856,40.223637,-5.1948385,-0.09058973,656.76549,-3955.5197)"
       gradientUnits="userSpaceOnUse" />
    <radialGradient
       inkscape:collect="always"
       xlink:href="#linearGradient4818"
       id="radialGradient4820"
       cx="82.677078"
       cy="91.834846"
       fx="82.677078"
       fy="91.834846"
       r="17.654356"
       gradientTransform="matrix(1.568402,10.470143,-3.8720868,0.58002921,308.61479,-835.56298)"
       gradientUnits="userSpaceOnUse" />
    <radialGradient
       inkscape:collect="always"
       xlink:href="#linearGradient4826"
       id="radialGradient4828"
       cx="55.959373"
       cy="93.485039"
       fx="55.959373"
       fy="93.485039"
       r="26.58723"
       gradientTransform="matrix(-2.7090629,0.98113114,-1.9061439,-5.26298,390.24292,493.47307)"
       gradientUnits="userSpaceOnUse" />
    <radialGradient
       inkscape:collect="always"
       xlink:href="#linearGradient4834"
       id="radialGradient4836"
       cx="45.772915"
       cy="86.76857"
       fx="45.772915"
       fy="86.76857"
       r="29.540509"
       gradientTransform="matrix(4.2835471,5.6726579,-6.7611576,5.1056743,440.84857,-660.71928)"
       gradientUnits="userSpaceOnUse" />
    <radialGradient
       inkscape:collect="always"
       xlink:href="#linearGradient4842"
       id="radialGradient4844"
       cx="121.97292"
       cy="89.91877"
       fx="121.97292"
       fy="89.91877"
       r="17.05481"
       gradientTransform="matrix(0.73973587,9.2461744,-4.870296,0.38963679,474.16634,-1128.9416)"
       gradientUnits="userSpaceOnUse" />
    <radialGradient
       inkscape:collect="always"
       xlink:href="#linearGradient4850"
       id="radialGradient4852"
       cx="144.99167"
       cy="85.557808"
       fx="144.99167"
       fy="85.557808"
       r="25.803169"
       gradientTransform="matrix(-0.9865219,5.8845458,-2.5480942,-0.42720839,510.52861,-781.98828)"
       gradientUnits="userSpaceOnUse" />
    <radialGradient
       inkscape:collect="always"
       xlink:href="#linearGradient4858"
       id="radialGradient4860"
       cx="159.41554"
       cy="81.800125"
       fx="159.41554"
       fy="81.800125"
       r="30.410945"
       gradientTransform="matrix(-0.15031314,4.6259196,-3.337221,-0.10843437,460.85301,-697.17825)"
       gradientUnits="userSpaceOnUse" />
  </defs>
  <sodipodi:namedview
     id="base"
     pagecolor="#ffffff"
     bordercolor="#666666"
     borderopacity="1.0"
     inkscape:pageopacity="0.0"
     inkscape:pageshadow="2"
     inkscape:zoom="0.70710678"
     inkscape:cx="361.91443"
     inkscape:cy="627.55619"
     inkscape:document-units="mm"
     inkscape:current-layer="layer2"
     showgrid="false"
     inkscape:window-width="1850"
     inkscape:window-height="1016"
     inkscape:window-x="70"
     inkscape:window-y="27"
     inkscape:window-maximized="1" />
  <metadata
     id="metadata3736">
    <rdf:RDF>
      <cc:Work
         rdf:about="">
        <dc:format>image/svg+xml</dc:format>
        <dc:type
           rdf:resource="http://purl.org/dc/dcmitype/StillImage" />
        <dc:title></dc:title>
      </cc:Work>
    </rdf:RDF>
  </metadata>
  <g
     inkscape:label="Layer 1"
     inkscape:groupmode="layer"
     id="layer1" />
  <g
     inkscape:groupmode="layer"
     id="layer2"
     inkscape:label="Layer 2">
    <g
       id="g4935">
      <path
         sodipodi:nodetypes="ccccccccccccccccccccccccccccccccccccccccc"
         inkscape:connector-curvature="0"
         id="path3846"
         d="m 84.80462,139.47133 3.289115,-0.12943 1.606399,0.0709 6.307479,0.0236 8.480837,0.0236 8.59896,0.0945 9.47816,-0.11204 4.43609,0.0175 -0.8032,1.53554 -0.87407,2.07886 -0.87407,2.1025 -0.73233,1.88987 -0.75595,2.55134 -0.82682,2.62222 -0.28348,1.79538 v 0.85045 0 l -0.85045,0.56696 -1.08668,-0.18899 -1.88986,0.11815 -2.36237,-3e-5 -2.8112,0.0945 -3.99237,-0.11812 -5.14993,-0.0945 -5.882257,0.0709 -3.921506,-0.0236 -2.008002,-0.0473 -1.228421,-0.0945 v 0 l -0.283482,-0.75595 -0.18899,-1.13393 6e-6,-0.96856 -6e-6,-0.73233 -0.543335,-1.96075 -0.708705,-2.1025 -0.590587,-1.79538 -0.519718,-1.34654 -0.188995,-0.63784 -1.39378,-2.33873 -0.992187,-1.53552 z"
         style="fill:#800000;stroke:#000000;stroke-width:0.26458332px;stroke-linecap:butt;stroke-linejoin:miter;stroke-opacity:1" />
      <path
         inkscape:connector-curvature="0"
         id="path3844"
         d="m 94.259474,172.08409 0.54334,-1.6064 0.614212,-1.93713 0.54334,-1.96075 0.496094,-1.34654 0.165364,-0.54334 0.118118,-0.16537 0.236234,-0.0472 0.354353,-0.0473 1.488282,-0.0472 h 4.181359 5.07906 l 3.42541,-0.0709 2.19698,0.0236 1.27567,-0.0472 0.25986,0.0945 0.0945,0.0945 0.42522,1.48828 0.66146,1.88988 0.54334,2.07887 0.51972,1.77176 0.11811,0.28349 2.4096,0.0236 -0.42522,-0.8032 -0.25986,-0.89769 -0.37798,-1.46466 -0.59058,-1.98437 -0.33073,-1.03944 -0.35436,-1.03943 -0.21261,-0.70871 -0.23623,-0.63783 -0.11812,-0.37798 -0.0236,-0.18898 0.11812,-0.33073 1.5119,-3.18918 1.03944,-2.4096 0.73233,-1.58277 -1.08669,-0.0945 -1.37016,0.11812 -0.25986,0.4961 -0.68508,1.60639 -0.75595,1.84264 -0.8032,1.98437 -0.37798,0.70871 -0.21261,0.33073 -2.52772,-0.0472 h -11.90628 l -3.236417,0.0236 -0.283483,-0.0236 -0.14174,-0.25986 -0.637836,-1.6064 -0.968563,-2.19698 -0.944941,-1.91351 -0.283482,-0.77957 -0.09449,-0.23624 -2.339417,0.004 -0.09605,0.10857 0.179572,0.21299 0.267269,0.47189 0.642083,1.39953 0.685083,1.58277 0.87407,1.98438 0.519718,1.08668 0.236233,0.35435 0.02363,0.18899 -0.09449,0.25986 -0.236236,0.85045 -0.590587,2.14974 -0.472471,1.46465 -0.401598,1.39379 -0.307107,1.15755 -0.377976,0.96856 -0.236236,0.68509 -0.493792,0.44297 z"
         style="fill:#333333;stroke:#000000;stroke-width:0.26458332px;stroke-linecap:butt;stroke-linejoin:miter;stroke-opacity:1" />
      <g
         transform="matrix(0.32870679,0,0,0.36452778,10.795904,99.560172)"
         id="g4804">
        <path
           style="fill:#f9f9f9;stroke:#000000;stroke-width:0.26458332px;stroke-linecap:butt;stroke-linejoin:miter;stroke-opacity:1"
           d="m 292.13307,180.94712 -0.69453,-0.23151 -0.56224,-0.85989 -0.46302,-1.19063 -0.13229,-0.89297 -0.95912,-0.23151 -1.2237,-0.23151 -0.85989,0.16537 -0.69453,-0.19844 -0.56224,-0.42995 -0.8599,0.0992 -1.12448,0.0992 -0.95911,-0.16536 h -0.39688 l -0.76067,0.42994 0.0992,0.42995 -0.42994,0.76068 -0.0661,0.3638 -0.49609,0.23151 -0.4961,-0.13229 -0.16536,-0.89297 -0.29766,-0.7276 c 0,0 -0.16536,-0.42995 -0.19844,-0.56224 -0.0331,-0.1323 -0.39687,-0.66146 -0.39687,-0.66146 l -0.79375,-0.42995 -0.0992,-0.59531 0.0661,-0.4961 -0.0992,-0.85989 -0.76068,-0.42995 c 0,0 -0.3638,-0.3638 -0.39687,-0.49609 -0.0331,-0.1323 0,-1.68672 0,-1.68672 l 0.0992,-0.99219 -0.13229,-1.05833 0.39688,-0.82683 0.26458,-0.76067 0.23151,-1.55443 0.19844,-1.05833 0.42995,-0.66146 -0.29766,-0.69453 0.62839,-0.72761 0.56224,-0.56224 0.13229,-0.39687 -1.38907,-1.75287 -0.56223,-0.49609 -0.19844,0.23151 -0.16537,0.62839 0.0661,0.69453 -0.19844,0.49609 -0.76068,0.52917 -0.39687,0.0992 -0.99219,0.76067 -0.46302,0.46302 c 0,0 -0.23151,0.0331 -0.33073,0.16537 -0.0992,0.13229 -0.52916,0.52917 -0.52916,0.52917 l 0.893,0.0662 0.59531,0.36381 -0.29766,0.49609 -0.59531,0.76068 -0.26458,0.76067 1.02526,0.39688 0.79375,-0.29766 0.19844,0.0992 0.16536,0.82682 0.0992,0.72761 -0.23151,0.62838 -0.3638,0.82683 -0.16537,0.99218 -0.26458,0.62839 -0.23151,0.95911 -0.33073,1.52136 0.13229,1.19062 0.0661,0.69454 -0.16537,1.0914 0.0992,0.79375 0.59531,-0.69453 0.0661,0.29766 -0.16537,0.52916 0.0331,0.79375 -0.13229,0.92604 0.16536,0.36381 0.49609,-0.56224 0.1323,-0.3638 0.49609,-0.0331 c 0,0 0.19844,-0.33073 0.19844,-0.49609 0,-0.16537 0.19843,-0.99219 0.19843,-0.99219 l 0.62839,-0.3638 -0.0661,0.39687 -0.13229,1.09141 -0.16536,1.02526 -0.13229,0.59531 -0.26459,0.95912 0.16537,0.59531 -0.13229,0.23151 -0.26459,1.25677 0.4961,0.33073 0.29765,0.39688 0.66146,0.16536 0.59531,0.16536 v 0.82683 c 0,0 0.33073,-0.46302 0.42995,-0.26459 0.0992,0.19844 0.89297,0.36381 0.89297,0.36381 l 0.16536,0.46302 0.52917,-0.26459 0.23151,-0.33073 0.26458,-0.92604 0.23151,-0.59531 0.42995,0.49609 0.0331,0.72761 -0.0331,0.56224 0.0663,0.95922 0.42994,0.62838 -0.0331,0.36381 0.79375,0.16536 0.3638,0.39688 0.76052,-0.0993 1.65381,0.13243 v 0 l 1.38906,0.29764 0.7276,-0.19844 0.0661,-0.3638 0.85989,-0.26459 v 0 l 0.72761,0.0661 1.12448,-0.3638 0.19843,-0.66146 -0.42994,-0.62839 v 0 l 0.26458,-0.42995 v 0 l 0.26458,0.59532 v 0 l 0.79375,0.13229 0.23151,0.33073 0.42995,0.13229 0.39686,-0.49614 -0.0662,-0.42995 0.0992,-0.52917 v 0 l 0.39687,0.0992 1.19061,-0.0331 0.29766,-0.7276 0.66146,-0.0992 -0.16537,-0.62839 0.52917,-0.56224 0.62838,-0.69453 0.59532,0.52917 v -0.82682 l -0.19844,-0.66146 0.33073,-0.46302 0.56224,0.19843 0.33073,0.4961 0.52916,-0.0331 0.66146,-0.42994 1.05834,-2.4474 c 0,0 -0.0331,-1.02526 0.0331,-1.15755 0.0661,-0.13229 0.42995,-1.19063 0.42995,-1.19063 l 0.69453,-0.69453 v -1.5875 l -0.0661,-1.02526 -0.0331,-0.62838 -1.02526,-0.4961 -0.42995,-0.33073 -0.42995,-1.19062 c 0,0 -0.0661,-0.76068 -0.0661,-0.89297 0,-0.13229 0.13229,-0.7276 0.13229,-0.7276 l 0.39687,-0.82683 0.92605,-0.3638 0.66145,-0.66146 c 0,0 0.29766,-0.26458 0.52917,-0.23151 0.23151,0.0331 0.76068,0.0661 0.76068,0.0661 l 0.56224,-0.0661 0.23151,-0.23151 -1.19063,-0.79375 c 0,0 -0.16536,-0.16536 -0.3638,-0.23151 -0.19844,-0.0661 -1.05833,-0.56224 -1.05833,-0.56224 v -0.49609 l 0.46302,-0.16537 0.59531,-0.19843 0.56224,-0.0661 0.49609,0.13229 0.42995,0.19844 0.23151,0.0331 0.13229,-0.7276 c 0,0 -0.13229,-0.3638 -0.26458,-0.42995 -0.13229,-0.0661 -0.82682,-0.19844 -0.99219,-0.26458 -0.16536,-0.0662 -0.56224,-0.29766 -0.7276,-0.36381 -0.16537,-0.0661 -0.66146,-0.46302 -0.66146,-0.46302 l -0.0661,-0.39687 -0.62838,-0.79375 -0.82682,0.23151 -0.76068,0.79375 -1.38906,0.85989 -1.12448,0.52917 -0.92604,0.46302 -0.1323,0.26459 0.66146,0.0992 0.4961,0.39688 -0.36381,0.76068 -0.23151,0.59531 0.76068,0.29766 0.56224,0.62838 0.42995,1.12448 -0.23151,1.02526 c 0,0 0.33073,1.32292 0.33073,1.45521 0,0.13229 -0.16537,1.75286 -0.16537,1.75286 l -0.16536,0.95912 -0.89297,1.78594 -0.8599,1.5875 -0.82682,1.32291 -0.89297,1.15755 -0.82682,0.62839 -0.66146,0.89297 z"
           id="path3941"
           inkscape:connector-curvature="0" />
        <path
           style="fill:#deaa87;fill-opacity:1;stroke:#000000;stroke-width:0.26458332px;stroke-linecap:butt;stroke-linejoin:miter;stroke-opacity:1"
           d="m 285.87149,162.76387 2.1749,0.18709 1.56687,0.25725 2.08137,0.28063 2.36199,0.35079 1.61528,0.3065 0.66146,0.0992 0.49609,0.39688 v 0 l -0.3638,0.76068 -0.23151,0.59531 v 0 l 0.76067,0.29766 0.56224,0.62838 0.42995,1.12448 v 0 l -0.23151,1.02526 0.0663,0.51863 0.28064,0.8419 -0.14033,1.37977 -0.20659,1.42689 -0.56515,1.09881 -0.86527,1.66041 -1.14927,1.93713 -0.89296,1.15755 -0.82683,0.62839 -0.66146,0.89297 -0.66148,0.33069 -0.69453,-0.23151 -0.56224,-0.85989 -0.21066,-0.48773 -0.25236,-0.7029 -0.13229,-0.89297 v 0 l -2.18282,-0.46302 v 0 l -0.85989,0.16537 -0.69453,-0.19844 -0.56224,-0.42995 -0.76483,0.15991 -1.21955,0.0385 -0.95911,-0.16536 h -0.39688 v 0 l -0.76067,0.42994 0.0992,0.42995 v 0 l -0.42992,0.76068 v 0 l -0.0661,0.3638 -0.49607,0.23151 -0.49612,-0.13229 -0.16537,-0.89297 v 0 l -0.55835,-1.29761 -0.33461,-0.65369 -0.79375,-0.42995 -0.0992,-0.59531 0.0661,-0.4961 -0.0992,-0.85989 -0.76067,-0.42995 -0.4576,-0.65106 0.0702,-0.81851 -0.01,-0.71324 0.0992,-0.99219 -0.13227,-1.05833 v 0 l 0.39687,-0.82683 0.26459,-0.76067 0.22296,-1.35494 0.20699,-1.25782 v 0 l 0.42994,-0.66146 -0.29765,-0.69453 0.62838,-0.72761 0.56224,-0.56224 0.13229,-0.3969 v 3e-5 l 0.74658,0.13777 0.58465,3e-5 1.0056,0.0468 v 0 l 1.73056,0.32741 0.91206,0.0935 z"
           id="path4784"
           inkscape:connector-curvature="0"
           sodipodi:nodetypes="ccccccccccccccccccccccccccccccccccccccccccccccccccccccccccccccccccccccccccccccccccccc" />
        <path
           style="fill:#162d50;stroke:#000000;stroke-width:0.26458332px;stroke-linecap:butt;stroke-linejoin:miter;stroke-opacity:1"
           d="m 281.74817,187.13176 -0.69453,-0.0662 -0.69453,0.0331 -0.19844,0.26458 -0.0992,0.3638 -0.19843,0.69453 -0.46302,0.29766 -1.38907,0.3638 -2.74505,1.02526 -1.68672,1.25677 -0.56224,1.05834 -0.29765,0.82682 -0.33073,1.81901 -0.16537,2.05052 0.0331,1.68672 -0.0662,2.77812 35.75182,0.0331 -0.19843,-1.38907 -0.66146,-1.85208 -0.95912,-1.98437 -1.32291,-1.95131 -1.42214,-1.62057 -1.5875,-1.19062 -2.21588,-1.45521 -1.81902,-1.02526 -1.91822,-1.09141 -0.56224,-0.7276 -0.72761,-0.39688 -0.46302,-0.13229 -0.29765,-0.0661 -0.0661,0.33073 0.33073,0.36381 0.0331,0.76067 -0.23151,0.4961 -0.56224,0.13229 -0.56224,0.13229 -0.76068,0.42995 -0.62838,0.23151 -0.56224,0.26458 -1.85208,0.19844 -1.12448,0.0661 -0.89297,0.0661 -0.46302,0.19844 0.23151,0.52916 -0.16537,0.29766 -0.56224,-0.19844 c 0,0 -0.0992,-0.0661 -0.29765,-0.13229 -0.19844,-0.0661 -1.55443,-0.66146 -1.55443,-0.66146 l -0.99219,-0.66145 -0.66146,-0.76068 -0.7276,-0.46302 -0.7276,-0.52917 0.46302,-0.26458 z"
           id="path3927"
           inkscape:connector-curvature="0" />
        <path
           style="fill:#deaa87;stroke:#000000;stroke-width:0.26458332px;stroke-linecap:butt;stroke-linejoin:miter;stroke-opacity:1"
           d="m 293.78672,186.73492 -0.1323,-0.79379 -0.0992,-0.7276 -0.39687,-0.0992 -0.0992,0.52917 0.0662,0.42995 -0.0992,0.42994 -0.29766,0.0662 -0.42995,-0.13229 -0.23151,-0.33073 -0.79375,-0.13229 -0.26458,-0.59532 -0.26458,0.42995 0.42994,0.62839 -0.19843,0.66146 -0.46302,0.13229 -0.66146,0.23151 -0.72761,-0.0661 -0.85989,0.26459 -0.0661,0.3638 -0.7276,0.19844 -0.46302,-0.0992 -0.92604,-0.19844 -0.66146,-0.0331 h -0.8599 -0.89297 l -0.3638,-0.39688 -0.79375,-0.16536 0.0331,-0.36381 -0.19843,-0.62838 h -0.23151 l -0.36381,0.79375 -0.29757,0.4299 -0.46302,0.26458 0.72752,0.56229 0.72766,0.4299 0.66146,0.76068 0.99218,0.66145 1.1575,0.43 0.69459,0.36375 0.56224,0.19844 0.16539,-0.29766 -0.23151,-0.52916 c 0.46282,-0.19855 1.0871,-0.28045 1.0871,-0.28045 l 1.09914,-0.0234 0.98222,-0.0935 1.16389,-0.13181 1.19062,-0.49609 0.76068,-0.42995 1.12448,-0.26458 0.23151,-0.4961 -0.0331,-0.76067 -0.33073,-0.36381 z"
           id="path3935"
           inkscape:connector-curvature="0" />
        <path
           style="fill:#800000;stroke:#000000;stroke-width:0.26458332px;stroke-linecap:butt;stroke-linejoin:miter;stroke-opacity:1"
           d="m 287.93281,179.3927 -0.72761,-0.0661 -0.7276,-0.0661 -1.05833,0.13229 -0.92604,-0.19844 -0.69454,-0.19844 -0.49609,0.0331 -0.0331,0.4961 0.3638,0.59531 0.42995,0.59531 0.82682,0.29766 0.99219,0.16536 0.79375,-0.29765 0.82682,-0.16537 0.49609,-0.39687 0.33073,-0.16537 -0.0661,-0.46302 z"
           id="path3939"
           inkscape:connector-curvature="0" />
        <path
           style="fill:#deaa87;fill-opacity:1;stroke:#000000;stroke-width:0.26458332px;stroke-linecap:butt;stroke-linejoin:miter;stroke-opacity:1"
           d="m 276.43997,168.23886 -0.14883,-1.41389 v 0 l -0.99219,0.19846 v 0 l -1.02526,-0.39688 -0.66145,0.52917 -0.42995,0.23151 -0.62839,0.39687 -0.0331,0.56224 0.0331,0.69453 0.26459,0.72761 0.39687,0.3638 0.23151,0.52917 0.4961,0.52916 0.59531,0.0331 0.99216,0.23149 0.26458,-0.62839 0.16537,-0.99218 -1.12446,0.23152 -0.66145,-0.23151 -0.52917,-0.69453 v -0.56224 l 0.26458,-0.62838 0.33073,-0.13229 0.69453,-0.0992 0.7111,-0.17364 z"
           id="path3945"
           inkscape:connector-curvature="0"
           sodipodi:nodetypes="cccccccccccccccccccccccccccc" />
        <path
           style="fill:#ff5555;stroke:#000000;stroke-width:0.26458332px;stroke-linecap:butt;stroke-linejoin:miter;stroke-opacity:1"
           d="m 276.43997,168.23886 -0.42995,-0.32247 -0.24804,-0.23149 -0.82683,0.0331 -0.69453,0.0992 -0.33073,0.13229 -0.26458,0.62838 -0.0164,0.27283 0.1323,0.45476 0.41341,0.52918 0.2563,0.0992 0.61185,0.0909 0.58706,-0.0992 0.3307,-0.091 0.40516,-0.88469 c 0.0634,-0.19017 0.2466,-0.65838 0.22736,-0.59946 z"
           id="path3947"
           inkscape:connector-curvature="0"
           sodipodi:nodetypes="ccccccccccccccccc" />
        <path
           style="fill:#deaa87;fill-opacity:1;stroke:#000000;stroke-width:0.26458332px;stroke-linecap:butt;stroke-linejoin:miter;stroke-opacity:1"
           d="m 301.43492,167.55802 0.86529,-0.0468 0.91205,0.11694 0.73668,0.23386 0.60801,0.65481 0.36251,0.80682 -0.0351,0.93544 -0.12861,0.74835 -0.54959,0.52619 -0.30401,0.3391 -1.36808,0.25725 -0.39756,0.19878 -0.51158,0.21779 -0.76298,-0.47504 -0.69223,-0.35179 -0.23151,-0.56027 -0.30403,-0.85359 0.0233,-0.76005 0.14837,-0.63728 0.39688,-0.82683 0.40187,-0.14953 z"
           id="path3953"
           inkscape:connector-curvature="0" />
        <path
           style="fill:#552200;stroke:#000000;stroke-width:0.26458332px;stroke-linecap:butt;stroke-linejoin:miter;stroke-opacity:1"
           d="m 282.38696,166.38871 -0.35079,0.5145 -0.18708,0.58465 -0.25726,1.05237 0.0702,1.19269 0.18709,1.28624 0.18708,0.79512 0.44432,-0.0468 0.6782,-0.49111 0.1637,-0.74835 0.25726,-0.95883 0.0935,-1.37978 -0.11694,-0.8419 -0.30401,-0.79513 -0.35081,-0.30401 z"
           id="path3961"
           inkscape:connector-curvature="0" />
        <path
           style="fill:#552200;stroke:#000000;stroke-width:0.26458332px;stroke-linecap:butt;stroke-linejoin:miter;stroke-opacity:1"
           d="m 290.82933,166.59919 -0.44434,0.95883 -0.21047,0.79512 0.0468,1.0056 -0.0233,1.33301 0.0936,1.07576 0.14031,0.5145 0.65482,0.14031 0.58464,-0.53788 0.28062,-1.05237 0.37418,-0.86529 0.0702,-1.26284 -0.23386,-0.93545 -0.14031,-0.49111 -0.44434,-0.44433 z"
           id="path3963"
           inkscape:connector-curvature="0" />
        <path
           style="fill:none;stroke:#000000;stroke-width:0.26458332px;stroke-linecap:butt;stroke-linejoin:miter;stroke-opacity:1"
           d="m 287.55247,168.41249 -0.5457,0.61184 -0.77722,1.00873 -0.56224,0.81028 -0.52916,0.72761 -0.29766,0.42995 -0.69453,1.02526 -0.3638,0.79375 -0.51263,0.59531 -0.34727,0.51263 -0.13774,0.33875 0.0351,0.14616 0.0117,0.18709 0.1403,0.22801 0.0936,0.13447 0.30985,0.12278 0.4385,0.0585 0.49694,-0.0117 0.52035,-0.006 0.39757,-0.0585 0.60804,-0.0877 0.45018,-0.006 0.29816,-0.0468 0.42096,-0.12278 c 0,0 0.1403,-0.0292 0.16954,-0.0526 0.0292,-0.0234 0.31573,-0.12862 0.31573,-0.12862 l 0.12861,-0.076"
           id="path3969"
           inkscape:connector-curvature="0" />
        <path
           style="fill:#ffffff;stroke:#000000;stroke-width:0.26458332px;stroke-linecap:butt;stroke-linejoin:miter;stroke-opacity:1"
           d="m 284.74895,162.92757 0.16369,0.93545 0.0468,0.79512 -0.18709,0.53788 h -0.60803 l -0.58465,-0.23386 -0.63143,-0.0935 -0.74835,0.1637 c 0,0 -0.46773,0.14032 -0.58465,0.1637 -0.11695,0.0234 -1.14591,0.58466 -1.14591,0.58466 l -0.30403,-0.0468 -0.23387,-0.30402 0.18709,-0.60804 c 0,0 0.14033,-0.30401 0.18709,-0.39756 0.0468,-0.0935 0.5145,-0.53788 0.60803,-0.58465 0.0936,-0.0468 0.65482,-0.18709 0.77174,-0.30402 0.11695,-0.11693 0.65482,-0.3274 0.65482,-0.3274 0,0 0.81851,-0.16371 0.91207,-0.21048 0.0935,-0.0468 0.93543,-0.0935 0.93543,-0.0935 z"
           id="path3971"
           inkscape:connector-curvature="0" />
        <path
           style="fill:#ffffff;stroke:#000000;stroke-width:0.26458332px;stroke-linecap:butt;stroke-linejoin:miter;stroke-opacity:1"
           d="m 290.43177,164.00333 1.8709,0.11693 0.70157,0.44434 1.09915,0.60804 0.63141,0.46772 0.32742,0.91205 0.23386,1.14592 0.21048,0.56127 -0.51451,-0.21047 -0.35078,-0.3508 -0.35079,-0.35079 -1.66042,-0.60804 -0.79512,-0.56126 -0.58465,-0.0702 -0.72499,-0.0468 -0.58465,-0.0234 0.1637,-1.16931 0.0936,-0.56126 z"
           id="path3973"
           inkscape:connector-curvature="0" />
        <path
           style="fill:#483e37;stroke:#000000;stroke-width:0.26458332px;stroke-linecap:butt;stroke-linejoin:miter;stroke-opacity:1"
           d="m 300.83127,161.0042 -0.82682,0.23151 -0.76068,0.79375 -0.90752,0.68764 -1.40316,0.58465 -0.60802,0.42095 -0.65317,0.42343 -1.38142,-0.23634 -1.56689,-0.28063 -2.0112,-0.25725 -2.78294,-0.42095 -2.05796,-0.18709 -1.44994,-0.32741 -2.22168,-0.42095 -1.59025,-0.0468 -0.74658,-0.1378 -1.05415,-1.40568 -0.89715,-0.84328 -0.31893,-0.98083 -0.39756,-0.81852 0.0233,-0.4911 0.60804,-0.11694 3.97563,0.23387 4.3498,0.0702 3.71841,0.44434 3.48451,0.42095 3.41436,0.60804 3.01681,0.53788 2.05798,0.42095 0.0936,0.14031 -0.23387,0.23386 -0.63143,0.28064 z"
           id="path3975"
           inkscape:connector-curvature="0" />
        <path
           style="fill:#ffffff;stroke:#000000;stroke-width:0.26458332px;stroke-linecap:butt;stroke-linejoin:miter;stroke-opacity:1"
           d="m 277.37494,157.19357 0.56135,-0.77171 -0.39026,-0.88429 c 0,0 -0.58465,-1.05237 -0.74834,-1.14592 -0.1637,-0.0935 -0.81852,-0.98221 -0.81852,-0.98221 l -0.1637,-0.49111 c 0,0 -0.6782,-0.81851 -0.70159,-0.91206 -0.0233,-0.0935 -1.333,-1.1693 -1.333,-1.1693 l -0.53787,-1.09915 -0.21048,-0.60804 0.39757,-1.26285 1.02896,-0.44433 1.96445,-1.35639 1.00561,-0.3508 2.33859,-0.42095 c 0,0 0.65482,-0.11693 0.77174,-0.1637 0.11695,-0.0468 2.31524,-0.21047 2.31524,-0.21047 l 2.71277,0.14031 3.7184,0.3508 3.43773,0.98221 1.7072,0.74836 1.91765,1.05237 c 0,0 1.23946,1.12253 1.35641,1.37978 0.11692,0.25724 1.98781,1.91766 1.98781,1.91766 l 1.37978,1.49671 1.54347,1.28623 1.07577,1.07576 0.25726,0.60804 0.44431,1.1693 c 0,0 -0.11692,0.44434 -0.14031,0.58466 -0.0233,0.14031 -0.51448,0.39756 -0.51448,0.39756 l -0.81851,0.0468 -0.74838,0.11693 c 0,0 -0.25723,0.35079 -0.28061,0.46772 -0.0233,0.11694 -0.0469,1.16933 -0.0469,1.16933 l -7.69395,-1.42657 -5.30863,-0.70159 -3.43776,-0.37417 h -2.50232 l -3.11034,-0.11693 -1.9645,-0.11697 z"
           id="path3977"
           inkscape:connector-curvature="0"
           sodipodi:nodetypes="cccccccccccccccccccccccccccccccccccccccccc" />
        <path
           style="fill:#ffffff;stroke:#000000;stroke-width:0.26458332px;stroke-linecap:butt;stroke-linejoin:miter;stroke-opacity:1"
           d="m 282.97161,167.74511 -0.35079,-0.16371 -0.32742,0.0702 -0.0701,0.28063 -0.14034,0.53789 0.14034,0.46771 0.23386,0.32741 0.30401,-0.18709 0.23387,-0.18709 0.23386,-0.4911 -0.14033,-0.35079 z"
           id="path3955"
           inkscape:connector-curvature="0" />
        <path
           style="fill:#ffffff;stroke:#000000;stroke-width:0.26458332px;stroke-linecap:butt;stroke-linejoin:miter;stroke-opacity:1"
           d="m 291.34382,168.02574 -0.35079,0.1637 -0.21047,0.37418 0.0468,0.46772 0.0702,0.44433 0.23384,0.11694 0.30403,0.0234 0.21048,-0.37418 0.0233,-0.42095 -0.0702,-0.35079 z"
           id="path3957"
           inkscape:connector-curvature="0" />
        <path
           style="fill:#ff5555;stroke:#000000;stroke-width:0.26458332px;stroke-linecap:butt;stroke-linejoin:miter;stroke-opacity:1"
           d="m 301.14261,169.38213 0.18708,-0.44434 0.28062,-0.22216 0.77174,-0.14032 0.58465,0.0117 0.57298,0.22216 0.33909,0.44434 -0.0585,0.49111 0.0819,0.61973 -0.36248,0.44433 c 0,0 -0.17542,0.24556 -0.24556,0.26894 -0.0702,0.0234 -0.51451,0.0935 -0.51451,0.0935 l -0.53787,0.0935 -0.54957,-0.19878 c 0,0 0.0701,-0.40926 0.10523,-0.46772 0.0351,-0.0585 0.17539,-0.30402 0.22217,-0.37418 0.0468,-0.0702 0.23386,-0.31571 0.23386,-0.31571 0,0 -0.12861,-0.12863 -0.26894,-0.18709 -0.14031,-0.0585 -0.40926,-0.15201 -0.40926,-0.15201 z"
           id="path3951"
           inkscape:connector-curvature="0" />
      </g>
      <path
         sodipodi:nodetypes="cccccccccccccccccccccccccccccccccccccccccccccccccccccccccccccccccccccccccccccccccccccccccccc"
         inkscape:connector-curvature="0"
         id="path3809"
         d="m 88.680029,139.34435 -3.875409,0.12698 -1.506463,-2.44453 -2.078869,-3.87426 -3.49628,-5.29167 -4.945515,-6.16297 -2.672697,-3.4745 -3.875407,-4.81085 -3.608139,-4.54358 -4.276312,-5.34539 -2.939966,-4.009048 -2.806329,-4.54358 -3.073601,-4.54358 -2.138156,-4.00904 -1.98084,-4.85954 -1.133931,-3.49628 -1.42881,-4.87403 -0.650058,-3.630436 -0.552656,-4.387643 -0.392285,-4.022323 -0.09449,-3.685267 0.219504,-3.250462 0.819931,-7.143885 2.173364,-8.787945 v 0 l 2.619364,-5.048826 2.271792,-3.741775 2.384885,-3.966096 3.227774,-3.784719 2.725351,-2.735368 3.212796,-2.834823 4.063246,-3.118302 2.600112,-1.40429 5.715364,-3.1314246 3.544576,-1.459406 3.261891,-1.35256 3.493383,-1.156784 4.925608,-0.981372 6.698441,-1.302938 4.961192,-0.551243 -11.392364,2.655991 -2.901397,0.911886 -3.56715,1.535531 -1.866257,0.897691 -2.716704,1.464659 -2.29148,1.4410346 -2.598587,1.795386 -1.913503,1.724517 -1.393788,1.346538 -1.13393,1.157552 -1.866257,1.819011 -1.55915,1.889882 -1.299295,1.81901 -1.630021,2.055246 -1.086683,1.771764 -0.87407,1.535528 -1.630021,2.929316 -1.606399,3.63802 -0.921317,2.338727 -0.496093,1.630023 -1.157552,4.252233 -0.496094,2.622208 -0.401601,2.456845 -0.283482,2.4096 -0.259858,3.071055 -0.165365,2.811198 v 3.496281 l 0.118118,2.244233 0.14174,2.267857 0.259858,3.212796 0.401601,3.000187 0.4016,2.385972 0.401601,2.17337 1.22842,4.77195 0.661459,2.3151 0.897694,2.8112 1.606399,3.9215 2.55134,5.29167 1.582775,2.92931 1.535527,3.11831 1.488282,2.315098 2.36235,3.63802 2.031622,3.14193 1.535528,2.29148 1.700895,2.7167 1.181174,1.74814 0.992188,1.46466 1.110305,1.74814 3.874257,6.024 2.527715,4.41759 1.700892,3.09468 z"
         style="fill:url(#radialGradient4836);fill-opacity:1;stroke:#000000;stroke-width:0.26458332px;stroke-linecap:butt;stroke-linejoin:miter;stroke-opacity:1" />
      <path
         inkscape:connector-curvature="0"
         id="path3830"
         d="m 105.60153,1.5602554 -0.80181,0.133633 -0.73499,0.267272 -1.03567,0.851921 -1.25282,1.570207 -1.1359,1.753957 -0.952148,1.77066 -0.734992,1.720549 -0.7684,1.9711106 -0.584652,2.154862 -0.968852,2.973374 -0.668173,2.939963 -0.601356,3.073601 -0.467722,3.073598 -0.668173,3.942226 -0.534541,5.278575 -0.267269,3.80859 -0.334086,4.810852 -0.200454,4.677217 -0.133633,4.944486 0.06682,5.612659 0.06682,5.479026 0.133636,6.080381 v 4.610397 l 0.334086,4.00905 0.868628,8.35217 0.668173,5.47902 0.668173,5.27857 0.534541,4.610408 0.668173,3.67495 0.534538,3.67496 1.00226,6.5481 0.935445,5.21176 0.868628,5.54584 0.53454,3.60814 0.4009,2.87315 0.26727,2.73951 0.20045,2.53906 0.0668,0.33408 -7.349909,-0.0668 -0.400905,-2.00452 -0.668174,-2.47225 -1.069078,-2.47224 -1.069078,-3.00678 -1.336349,-2.93997 -0.801807,-2.3386 -1.069078,-2.6727 -1.5368,-3.54132 -1.269532,-2.87315 -1.336347,-3.40768 -1.269529,-2.87315 -1.00226,-2.07134 -1.469983,-3.20724 -1.870887,-4.476758 -1.135896,-3.27405 -1.069078,-3.20724 -0.601355,-2.00452 -0.668174,-2.33861 -1.016286,-3.32863 -1.039434,-4.53572 -0.755954,-4.06324 -0.377976,-3.59078 -0.377976,-3.685265 -0.188986,-3.401785 -0.188989,-4.630208 -0.18899,-5.197173 0.377979,-7.370535 0.472469,-4.252232 0.661458,-5.10268 1.228424,-4.630209 1.322916,-4.441219 1.228421,-3.685267 1.795388,-3.874257 1.606399,-3.401785 2.078869,-2.645833 1.984375,-2.645833 1.984375,-2.456847 2.267857,-2.3623506 2.362351,-1.984375 2.326915,-1.464656 1.33473,-0.779577 1.370164,-0.74414 1.712703,-0.815012 1.322917,-0.448847 1.582777,-0.413412 1.523713,-0.366165 2.24424,-0.307104 z"
         style="fill:url(#radialGradient4820);fill-opacity:1;stroke:#000000;stroke-width:0.26458332px;stroke-linecap:butt;stroke-linejoin:miter;stroke-opacity:1" />
      <path
         inkscape:connector-curvature="0"
         id="path3832"
         d="m 91.219088,179.42812 0.06682,2.20498 v 2.67269 l -0.06682,2.60588 0.06682,2.60588 v 1.80407 l -0.133636,1.20271 0.200454,1.00226 0.534538,1.06908 0.801809,0.66817 1.00226,0.73499 0.935445,0.53454 1.135893,0.13364 3.741775,-0.13364 9.888974,0.0668 5.07812,-0.13364 2.13815,-0.13363 1.40317,-0.46772 1.20271,-0.73499 0.66818,-0.53454 0.46772,-0.73499 0.33409,-0.60136 -0.13364,-1.26953 -0.0668,-5.94675 v -6.34765 l 0.20046,-0.4009 -0.13364,-0.0668 H 107.3221 l -9.621703,-0.13364 h -6.214018 z"
         style="fill:#c87137;stroke:#000000;stroke-width:0.26458332px;stroke-linecap:butt;stroke-linejoin:miter;stroke-opacity:1" />
      <path
         inkscape:connector-curvature="0"
         id="path3834"
         d="m 91.219086,179.42812 v 0 l -1.603613,-0.86863 -0.534541,-1.13589 v -0.80181 l 0.06682,-1.5368 v -1.46998 l 0.534538,-0.80181 0.467722,-0.20045 0.80181,-0.40091 0.734991,-0.13363 h 1.737251 5.011304 5.479022 l 5.01131,0.0668 3.8754,-0.13364 h 4.87767 1.60362 l 1.33635,0.0668 0.80181,0.13363 0.66817,0.33409 0.26727,0.46772 0.26727,0.46772 0.13363,0.40091 v 3.34087 l -0.0668,0.53454 -0.33409,0.53454 -0.26727,0.4009 -1.40314,0.60134 -0.13364,-0.0668 -29.06556,-0.13364 z"
         style="fill:#c87137;stroke:#000000;stroke-width:0.26458332px;stroke-linecap:butt;stroke-linejoin:miter;stroke-opacity:1" />
      <path
         inkscape:connector-curvature="0"
         id="path3836"
         d="m 91.219086,179.42812 -1.202711,0.66818 -0.868625,1.40316 -0.668173,1.20271 -0.133636,1.06908 -0.334087,1.20271 -0.133636,1.06908 0.200454,0.86863 0.400905,1.06908 0.734991,0.80181 0.534538,0.4009 0.668173,0.46772 0.801809,0.13364 0.06682,-3.0736 -0.06682,-2.6727 -0.06682,-2.93996 z"
         style="fill:#784421;stroke:#000000;stroke-width:0.26458332px;stroke-linecap:butt;stroke-linejoin:miter;stroke-opacity:1" />
      <path
         inkscape:connector-curvature="0"
         id="path3838"
         d="m 120.68558,179.29447 0.73497,0.28399 0.70158,0.93544 0.61806,0.88533 0.53454,1.05238 0.4009,1.06908 0.31739,1.186 0.0668,1.00226 -0.0334,0.80181 -0.26728,0.7684 -0.25056,0.61807 -0.45102,0.55124 -0.56794,0.41761 -0.85193,0.58465 -0.61806,0.26727 -0.48442,0.0835 -0.0501,-10.10615 z"
         style="fill:#a05a2c;stroke:#000000;stroke-width:0.26458332px;stroke-linecap:butt;stroke-linejoin:miter;stroke-opacity:1" />
      <path
         inkscape:connector-curvature="0"
         id="path3840"
         d="m 106.70402,179.32789 -1.03567,-0.0167 -0.7684,0.28397 -0.73499,0.55125 -0.56795,0.75169 -0.3675,0.78511 -0.31738,0.83521 -0.35079,1.05238 -0.26727,1.06907 -0.26727,0.88533 -0.0501,1.35306 0.0501,0.3842 0.0835,0.50113 0.28398,0.60135 0.33408,0.55125 0.30068,0.35079 0.30068,0.28397 0.4009,0.31738 0.3675,0.16705 0.65147,0.16704 0.65147,0.16705 0.51783,0.0501 0.58466,-0.0167 0.3842,-0.0668 0.55124,-0.10022 0.55124,-0.30068 0.35079,-0.25057 0.41761,-0.36749 0.3675,-0.41761 0.28397,-0.3842 0.33409,-0.63476 0.18375,-0.58466 0.16704,-0.68487 v -0.70159 l -0.18375,-0.51783 -0.16704,-0.55124 -0.13364,-0.70159 -0.21715,-0.50113 -0.18375,-0.58465 -0.25056,-0.65147 -0.31739,-0.50113 -0.45101,-0.75169 -0.3675,-0.63477 -0.33409,-0.46772 -0.48442,-0.51784 z"
         style="fill:#a05a2c;stroke:#000000;stroke-width:0.26458332px;stroke-linecap:butt;stroke-linejoin:miter;stroke-opacity:1" />
      <path
         sodipodi:nodetypes="cccccccccccccccccccccccccccccccccccccccccccccccccccccccccccccccccccccccccccccccccccccccccccccccccccccccccccccccccccccccccccccccccccccccccccccccccccccccc"
         inkscape:connector-curvature="0"
         id="path3848"
         d="m 105.60153,1.5602554 -3.38093,0.0093 -2.14821,0.141013 -2.883603,0.591314 -3.543525,0.826823 -3.28367,0.826823 -3.330913,0.921319 -2.527716,0.921316 -1.842635,0.803198 -1.511906,0.755955 -2.834819,1.441034 -2.220611,1.3701636 -1.630021,1.133927 -1.72452,1.110305 -1.677268,1.488282 -1.771764,1.700892 -1.700892,1.724517 -1.795386,1.913504 -1.393788,1.67727 -1.606399,2.220611 -1.299292,1.819011 -1.086681,1.795385 -0.874072,1.653646 -1.181177,2.055246 -1.322914,3.000185 -0.803201,1.984375 -0.687009,1.928675 -0.434313,1.637024 -0.634765,2.037932 -0.299159,1.270813 -0.369017,2.170281 -0.334087,1.770661 -0.300678,2.037932 -0.133633,1.536798 -0.200453,1.870887 -0.133633,1.904296 -0.06682,1.603616 -0.06682,2.037932 0.06682,1.46998 v 1.403167 l 0.06682,1.536798 0.06681,1.135896 0.06682,1.436574 0.200453,1.570209 0.06682,1.202711 0.501131,3.407688 0.334087,2.171572 0.353499,1.8846 0.715579,2.7592 0.668173,2.60588 0.501132,1.63703 1.904296,5.3788 1.069078,2.37201 1.202711,2.40543 1.135896,2.47224 1.135896,2.03793 1.269529,2.57247 0.902036,1.570208 0.868624,1.36976 1.069078,1.67043 2.33861,3.57473 5.445617,8.38558 5.980155,9.2208 1.5368,2.63929 1.737252,3.04019 1.503392,2.67269 1.369755,2.63929 1.135896,2.03793 0.902034,1.81075 v 0 0 l 0.701582,0.0267 1.703845,0.0334 3.122884,-0.0677 v 0 l -0.283145,-1.16847 -0.267272,-1.5034 -0.501121,-1.67042 -0.835226,-1.83749 -0.7684,-2.07134 -0.7684,-2.20497 -0.734991,-1.5368 -0.367488,-0.7684 -0.634773,-1.87089 -0.567946,-1.40316 -0.868627,-2.17157 -0.902034,-2.23838 -0.902036,-1.97111 -0.668173,-1.50339 -1.00226,-2.50566 -0.601356,-1.60361 -0.868627,-2.00452 -1.603618,-3.17383 -0.835216,-1.87088 -0.935445,-2.17157 -1.102487,-2.539058 -1.503389,-4.44336 -0.7684,-2.3052 -0.935445,-3.04019 -0.668173,-2.20497 -0.46772,-1.57021 -1.102487,-4.47676 -0.467723,-2.33861 -0.334086,-2.13816 -0.334087,-2.03793 -0.167045,-1.57021 -0.167042,-1.83747 -0.233862,-1.971121 -0.267269,-5.746295 -0.100227,-2.706103 -0.100224,-1.870887 -0.100227,-2.238383 -0.02532,-1.19567 0.12554,-3.214278 0.167042,-2.906554 0.167044,-2.138156 0.23386,-1.804069 0.167045,-1.703845 0.267269,-2.305198 0.384106,-2.653345 0.384294,-1.489334 0.434314,-1.503392 0.434311,-1.670434 0.334086,-1.069078 0.501132,-1.77066 0.267269,-0.801809 0.701582,-2.238381 0.367496,-1.069078 0.355277,-1.144529 0.27949,-0.692949 0.868624,-1.670436 1.436574,-3.173825 0.817099,-1.738834 v 0 l 0.819928,-1.000678 0.902034,-1.135896 2.672696,-3.541321 1.652961,-2.070616 1.487455,-1.6043406 0.780402,-0.75801 1.72525,-1.413555 0.637101,-0.57082 1.968778,-1.266658 1.536798,-0.835215 1.236122,-0.701583 1.035669,-0.53454 0.967145,-0.465389 1.322917,-0.448847 1.017399,-0.188251 2.089088,-0.591328 1.55246,-0.277296 z"
         style="fill:url(#radialGradient4828);fill-opacity:1;stroke:#000000;stroke-width:0.26458332px;stroke-linecap:butt;stroke-linejoin:miter;stroke-opacity:1" />
      <path
         sodipodi:nodetypes="cccccccccccccccccccccccccccccccccccccccccccccccccccccccccccccccccccccccccccccccccccccccccccccccccccccccccccccccc"
         inkscape:connector-curvature="0"
         id="path3852"
         d="m 105.822,1.3770494 -0.28662,0.01888 -0.66007,0.19402 -0.54159,0.200517 -0.48428,0.271669 -0.44885,0.413412 -0.29593,0.233595 -0.4423,0.575511 -0.47838,0.596492 -0.54334,0.708705 -0.43113,0.673272 -0.49357,0.770184 -0.26238,0.523203 -0.31892,0.54334 -0.370851,0.704117 -0.79851,1.823599 -0.704884,1.8680606 -0.287304,1.155748 -0.708707,2.244235 -0.557493,1.728253 -0.26933,1.142003 -0.307105,1.464656 -0.366164,1.689082 -0.248047,1.311106 -0.34254,2.208797 -0.318919,1.960753 -0.307104,1.830821 -0.165365,0.980377 -0.129929,0.980376 -0.106307,0.921316 -0.106307,0.944941 -0.212611,2.35054 -0.2008,2.315104 -0.118115,2.244233 -0.118118,1.641835 -0.165365,2.433219 -0.118118,2.019811 -0.03543,1.122116 -0.118118,2.220611 -0.03544,1.594588 -0.05906,2.007997 -0.0118,1.204801 0.0118,1.063057 v 0.531529 l 0.02363,2.374164 0.04725,3.330914 0.09449,6.756326 0.07087,6.071227 0.0118,1.32292 0.02363,0.64965 0.0945,1.06305 0.295294,3.60259 0.318918,2.98837 0.34254,3.28367 1.157552,9.37854 0.720516,6.035798 0.767765,4.74834 0.803199,5.3389 1.736328,10.28804 0.732329,4.73653 0.81501,5.50427 0.24805,1.91351 0.2008,1.99619 0.12993,1.45284 0.0591,1.12212 0.0993,0.66871 v 0 l 0.56212,-0.008 0.74999,3.2e-4 0.57877,0.006 0.62591,0.0174 4.71288,0.0294 1.39516,0.0515 0.40631,-2.70252 0.52373,-3.60818 0.33409,-3.00678 0.93544,-6.34765 0.73499,-4.74403 1.33635,-7.88445 0.46772,-2.60589 0.40091,-2.93996 0.65293,-4.20384 0.66146,-4.559328 0.55649,-4.13259 0.40091,-3.74176 0.4009,-3.54132 0.26727,-3.27405 0.40091,-3.47451 v -2.53906 l 0.13363,-3.20724 0.20045,-4.877662 0.13364,-5.278572 v -4.743974 -6.614922 l -0.13364,-4.877667 -0.20045,-4.343131 -0.33409,-3.808589 -0.26727,-4.409948 -0.4009,-4.276312 -0.66817,-4.543581 -0.735,-4.744035 -0.60135,-2.80633 -0.66818,-2.53906 -0.66817,-2.071339 -1.46998,-4.2094966 -1.20272,-2.138156 -0.73499,-1.536798 -1.00226,-1.202713 -0.93544,-1.00226 -1.40316,-1.603614 v 0 z"
         style="fill:url(#radialGradient4812);fill-opacity:1;stroke:#000000;stroke-width:0.26458332px;stroke-linecap:butt;stroke-linejoin:miter;stroke-opacity:1" />
      <path
         inkscape:connector-curvature="0"
         id="path3854"
         d="m 107.72299,1.4934424 0.75169,0.801804 1.58691,1.820773 1.00226,1.18601 0.73499,1.536798 0.83522,1.57021 0.3675,0.567946 0.53454,1.5702096 1.06907,3.073598 1.18601,4.075862 0.3842,1.854181 0.25057,1.052375 0.25056,1.65373 0.26727,1.770661 0.55124,3.741772 0.3508,2.388721 0.16704,1.503392 0.13364,1.837478 0.15033,1.80407 0.0835,1.804069 0.35079,4.359833 0.18375,3.491209 0.10022,1.937703 0.0668,1.887593 0.0167,1.336347 0.0334,1.085781 0.0334,1.753957 0.0167,1.436574 -0.0167,1.286235 -0.0167,1.820772 v 0.902036 l 0.0167,2.57247 v 2.422128 l -0.0668,1.687139 -0.0167,1.620322 -0.0835,1.469982 -0.0501,1.737252 -0.0668,1.637027 -0.0668,1.87088 -0.0501,1.18602 -0.0334,1.05237 -0.0501,3.20719 -0.15034,1.23616 -0.30068,2.57247 -0.26727,3.49121 -0.50113,4.07586 -0.23386,2.22168 -0.3675,3.05689 -0.66817,4.710628 -0.90204,5.79641 -0.3842,3.00678 -0.53454,2.85644 -1.26953,7.53366 -0.91874,6.04698 -0.70158,4.72733 -0.41761,3.65825 -0.3842,2.42213 -0.31738,2.25508 -0.0861,0.99496 v 0 l 2.45807,0.0574 3.29075,-0.0501 h 1.65373 l 0.40091,-2.00452 1.80407,-4.81085 2.13815,-5.61266 1.87089,-4.87767 3.0736,-7.01582 2.93996,-6.41447 1.67044,-3.80859 1.46998,-3.74177 1.20271,-3.274058 1.06908,-3.07359 0.80181,-2.80634 1.60362,-4.6104 1.33635,-5.74629 1.06907,-6.01356 0.80181,-6.147204 0.13364,-3.073598 0.26727,-5.746295 v -5.078121 l -0.26727,-6.815373 -0.93545,-7.349911 -0.93544,-4.142679 -1.20271,-5.078121 -1.60362,-4.81085 -2.13816,-4.810853 -2.40542,-4.677217 -2.6727,-3.608138 -3.60814,-4.142677 -3.4745,-2.9399646 -4.54358,-3.073599 -2.40543,-1.202713 -2.13815,-0.668174 -1.87089,-0.267269 z"
         style="fill:url(#radialGradient4844);fill-opacity:1;stroke:#000000;stroke-width:0.26458332px;stroke-linecap:butt;stroke-linejoin:miter;stroke-opacity:1" />
      <path
         sodipodi:nodetypes="ccccccccccccccccccccccccccccccccccccccccccccccccccccccccccccccccccccccccccccccccccccccccccccccccccccccccccccccccccccccccccccccccccccccccccccccccccccccc"
         inkscape:connector-curvature="0"
         id="path3856"
         d="m 107.79858,1.3894974 2.37163,0.618795 1.3447,0.233862 1.41987,0.392552 0.91874,0.267269 1.21941,0.400905 v 0 l 1.25283,0.668173 1.1526,0.53454 1.05237,0.684877 1.20272,0.801809 1.5535,1.152599 1.06908,0.718288 1.41987,1.186008 1.36975,1.1860076 1.06908,1.085782 0.80181,0.835218 0.81851,1.052375 1.03567,1.169302 1.08578,1.386462 0.81852,1.11919 0.7851,1.052375 0.21716,0.334086 0.61806,1.152599 0.3842,0.818515 0.66817,1.23612 0.56795,1.169305 0.81851,1.670434 0.63477,1.553504 0.58465,1.169304 0.46772,1.252826 0.66818,2.071339 0.45101,1.286234 0.7517,2.823036 0.53454,2.288495 0.35079,1.5368 0.35079,1.620322 0.30068,1.286235 0.13363,0.584652 0.20046,1.336347 0.11693,1.102487 0.51783,4.04245 0.10023,0.868627 0.0668,1.453277 0.0668,1.5368 0.0835,1.820775 0.0501,5.762998 v 1.152599 l -0.0501,1.269532 -0.0334,1.35305 -0.11693,2.605879 -0.11693,1.703842 -0.0167,1.252826 -0.0668,0.801807 v 0 l -0.15034,1.186007 -0.30068,2.505657 -0.35079,2.53906 -0.35079,1.75395 -0.21715,1.45328 -0.15034,0.88533 -0.16705,1.05238 -0.4009,1.70384 -0.25057,1.13589 -0.28397,1.30294 -0.20045,1.03567 -0.25057,0.83522 -0.13363,0.51783 -0.23386,0.68488 -0.66818,1.93771 -0.38419,1.10248 -0.40091,1.10249 -0.13364,0.63477 -0.31738,1.06908 -0.28397,0.91873 -0.3842,1.08579 -0.80181,2.28849 -0.68488,1.887588 -1.58691,4.09257 -0.68488,1.68713 -0.58465,1.33635 -2.72281,5.91334 -2.55095,5.77325 -1.16577,2.6708 -1.7456,4.53523 -1.31964,3.4578 -0.81852,2.20497 -1.06908,2.63929 -0.66817,1.80407 -0.31738,0.85192 -0.23386,1.00226 -0.21718,1.09711 v 0 l 5.5453,-0.0899 0.86919,-0.9738 1.20271,-2.47225 1.33635,-3.0736 2.53906,-4.07585 1.73725,-3.14042 2.47225,-3.80859 2.3386,-3.94223 3.0736,-4.6104 2.2718,-3.20723 2.13815,-3.14042 1.73725,-2.67269 1.33635,-2.07134 1.26953,-2.338608 1.67043,-3.00678 1.60362,-3.00679 1.33635,-2.47224 1.1359,-2.87315 1.13589,-2.80633 0.86863,-2.27179 0.4009,-1.06908 0.73499,-2.73951 0.66818,-1.87089 0.60135,-3.20723 0.40091,-2.33861 0.53454,-2.93996 0.26727,-2.605878 0.13363,-2.672697 0.0668,-3.140416 0.13363,-2.672694 -0.0668,-4.610399 -0.20045,-2.472245 -0.13363,-2.338607 -0.53454,-2.80633 -0.46772,-2.338609 -0.53454,-2.672694 -0.73499,-2.472243 -1.06908,-3.207234 -1.20271,-2.739514 -1.80407,-3.541321 -1.93771,-3.006783 -1.60361,-2.204972 -2.53906,-3.274052 -2.20498,-2.33861 -1.67043,-1.870884 -1.87089,-1.937705 -2.00452,-1.603619 -2.13816,-1.403164 -2.33861,-1.6704336 -2.60587,-1.403165 -2.13816,-1.00226 -2.93996,-1.269532 -2.47225,-0.868624 -3.00678,-0.801809 -3.51626,-0.893683 -1.57856,-0.417608 -2.14651,-0.45937 z"
         style="fill:url(#radialGradient4852);fill-opacity:1;stroke:#000000;stroke-width:0.26458332px;stroke-linecap:butt;stroke-linejoin:miter;stroke-opacity:1" />
      <path
         sodipodi:nodetypes="cccccccccccccccccccccccccccccccccccccccccccccccccccccccccccccccccccccccccccccccccccccccccccccccccccccccccccccccccccccccccccccccccccccccccccccccccccccccccccccccccscccccccccccccccccccccccccccccc"
         inkscape:connector-curvature="0"
         id="path3858"
         d="m 109.98116,2.0208334 0.88973,0.140308 0.73233,0.141743 0.81501,0.08268 1.3601,0.215733 1.12037,0.209489 1.42922,0.354354 1.52372,0.366165 2.24423,0.555151 2.69308,0.744141 1.83083,0.519718 1.6064,0.602398 1.78357,0.744141 0.93313,0.377976 1.6064,0.755954 1.26386,0.614209 1.34654,0.708708 1.023,0.563647 1.12674,0.8183266 0.85044,0.566965 0.83864,0.626023 1.33473,0.838634 1.18117,0.897694 0.77958,0.661458 0.36999,0.268116 0.77575,0.818565 0.8032,0.815012 0.77957,0.862258 0.6969,0.744141 2.1143,2.303291 0.86226,0.933129 0.72052,0.968563 1.05124,1.346542 1.13393,1.511905 0.62602,0.897692 0.46066,0.614212 0.4961,0.826823 0.64964,0.956751 0.65659,1.034122 0.58365,1.115618 0.77957,1.559152 0.57878,1.145742 0.44885,1.027623 0.49609,1.122116 0.24805,0.649645 0.31891,0.992187 0.28349,0.862259 0.64964,1.948939 0.17718,0.626025 0.24664,0.911006 0.13133,0.518215 0.21262,1.145741 0.3071,1.511904 0.14174,0.767765 0.35436,1.67727 0.2008,1.287481 0.18885,0.909257 v 0 l 0.0356,0.626271 0.17717,2.610398 0.12994,1.122116 -0.009,0.452065 -0.003,0.563748 0.0236,0.555151 0.0472,1.795388 v 0.921317 l -0.0236,1.015812 -0.0236,0.850445 -0.0354,0.614211 -0.0945,3.342727 -0.0591,1.594586 -0.0591,1.07487 -0.0472,0.897694 -0.11812,1.27567 -0.14153,1.200465 -0.27188,1.62254 -0.30711,1.606412 -0.81501,4.51209 -0.1428,0.74477 -0.47141,1.29866 -0.31892,1.12212 -0.41341,1.46466 -0.90951,2.6104 -0.83863,2.12611 -0.82682,2.04344 -1.0985,2.7167 -0.76776,1.58277 -0.90951,1.59459 -2.62221,4.87826 -1.29929,2.385968 -1.39379,2.25605 -3.20098,4.84282 -2.44504,3.48447 -3.75613,5.53971 -1.27567,2.14974 -0.8977,1.55915 -1.83082,2.83482 -2.79939,4.78376 -1.38197,2.16155 -1.01108,1.68858 -0.83156,1.91401 -0.56696,1.28748 -0.57878,1.16936 -0.56195,1.17501 -0.36222,0.56619 -0.50678,0.4076 0.67286,-0.0196 1.67834,0.0118 1.42639,0.0195 0.69017,-1.25667 0.70752,-1.09276 0.89769,-1.39379 0.54335,-0.90951 1.18117,-1.81901 0.69689,-1.07487 0.6024,-0.88588 0.61422,-0.9095 0.80319,-1.19299 0.67327,-0.92132 0.61422,-0.93313 0.49609,-0.61421 3.99237,-5.07905 4.64202,-5.94131 2.18518,-2.77577 5.10268,-6.5319 5.3271,-7.110678 2.89388,-4.07505 0.67327,-0.92132 v 0 l 0.5079,-1.07487 0.72052,-1.57096 0.81501,-1.38198 0.70871,-1.25204 0.68508,-1.14574 0.42522,-0.8977 0.57878,-1.18117 0.54334,-1.37017 0.43704,-1.20479 0.44884,-1.22843 0.47247,-1.28748 0.42522,-1.41741 0.63784,-2.03162 0.53153,-1.68908 0.31892,-0.95676 0.25986,-0.95675 0.31891,-1.67727 0.22443,-1.098499 0.23117,-1.213181 0.0759,-0.605829 0.16537,-1.145741 0.0945,-0.992188 0.0591,-0.673269 0.22442,-1.653646 0.0709,-1.181177 0.0473,-1.216609 0.0945,-1.370164 0.0827,-1.192987 0.0591,-1.346542 0.0118,-0.992187 0.0354,-1.311103 -0.0236,-1.393788 c 0,0 -0.0118,-0.909505 -0.0118,-0.956752 0,-0.04725 -0.0354,-0.744141 -0.0354,-0.744141 l -0.0945,-0.673269 -0.35435,-2.256046 -0.44884,-2.681269 -0.2953,-1.8072 -0.43703,-1.55915 -0.59059,-2.161553 -0.81501,-2.610397 -0.46066,-1.086681 -0.76777,-1.94894 -2.40959,-4.429408 -2.26102,-3.570377 -2.6727,-3.541321 -0.81861,-0.932108 -1.38198,-1.476471 -2.20936,-2.469089 -4.87769,-3.696647 -2.19698,-1.736328 -4.38217,-2.941127 -1.26385,-0.661458 -1.53553,-0.6496466 -4.99638,-2.185176 -4.33393,-1.82718 -1.80818,-0.558792 -4.20538,-1.17846 -2.04304,-0.416129 -3.76795,-0.649647 -3.10649,-0.425222 -1.93713,-0.236236 z"
         style="fill:url(#radialGradient4860);fill-opacity:1;stroke:#000000;stroke-width:0.26458332px;stroke-linecap:butt;stroke-linejoin:miter;stroke-opacity:1" />
    </g>
  </g>
</svg>
