<?xml version="1.0" encoding="UTF-8" standalone="no"?>
<!-- Created with Inkscape (http://www.inkscape.org/) -->

<svg
   xmlns:dc="http://purl.org/dc/elements/1.1/"
   xmlns:cc="http://creativecommons.org/ns#"
   xmlns:rdf="http://www.w3.org/1999/02/22-rdf-syntax-ns#"
   xmlns:svg="http://www.w3.org/2000/svg"
   xmlns="http://www.w3.org/2000/svg"
   xmlns:sodipodi="http://sodipodi.sourceforge.net/DTD/sodipodi-0.dtd"
   xmlns:inkscape="http://www.inkscape.org/namespaces/inkscape"
   width="210mm"
   height="297mm"
   viewBox="0 0 210 297"
   version="1.1"
   id="svg8"
   inkscape:version="0.92.4 (5da689c313, 2019-01-14)"
   sodipodi:docname="laptop.svg">
  <defs
     id="defs2">
    <inkscape:perspective
       sodipodi:type="inkscape:persp3d"
       inkscape:vp_x="0 : 148.5 : 1"
       inkscape:vp_y="0 : 1000 : 0"
       inkscape:vp_z="210 : 148.5 : 1"
       inkscape:persp3d-origin="105 : 99 : 1"
       id="perspective4576" />
    <filter
       inkscape:label="Iridescent Beeswax"
       inkscape:menu="Materials"
       inkscape:menu-tooltip="Waxy texture which keeps its iridescence through color fill change"
       style="color-interpolation-filters:sRGB;"
       id="filter4674">
      <feGaussianBlur
         result="result0"
         in="SourceGraphic"
         stdDeviation="3"
         id="feGaussianBlur4644" />
      <feTurbulence
         type="turbulence"
         baseFrequency="0.05"
         seed="200"
         numOctaves="5"
         result="result1"
         id="feTurbulence4646" />
      <feComposite
         result="result2"
         operator="in"
         in2="result1"
         in="result0"
         id="feComposite4648" />
      <feSpecularLighting
         lighting-color="rgb(255,255,255)"
         surfaceScale="4"
         result="result4"
         specularConstant="8"
         specularExponent="3"
         in="result2"
         id="feSpecularLighting4652">
        <feDistantLight
           elevation="62"
           azimuth="225"
           id="feDistantLight4650" />
      </feSpecularLighting>
      <feComposite
         k1="1.8"
         k3="0.8"
         k2="-0.4"
         in2="result2"
         in="result4"
         operator="arithmetic"
         result="result91"
         id="feComposite4654" />
      <feBlend
         result="fbSourceGraphic"
         mode="screen"
         in2="result91"
         id="feBlend4656" />
      <feComposite
         in2="fbSourceGraphic"
         in="result1"
         result="result2"
         operator="in"
         id="feComposite4658" />
      <feComposite
         in="fbSourceGraphic"
         result="fbSourceGraphic"
         operator="arithmetic"
         k2="2"
         k3="5"
         in2="result2"
         id="feComposite4660" />
      <feTurbulence
         type="fractalNoise"
         baseFrequency="0.04"
         seed="35"
         numOctaves="5"
         result="result1"
         id="feTurbulence4662" />
      <feComposite
         k4="-0.1"
         k1="0.9"
         k2="0.3"
         result="result2"
         operator="arithmetic"
         in2="result1"
         in="fbSourceGraphic"
         id="feComposite4664" />
      <feSpecularLighting
         surfaceScale="3"
         result="result4"
         specularConstant="1"
         specularExponent="30"
         in="result2"
         id="feSpecularLighting4668">
        <feDistantLight
           elevation="62"
           azimuth="225"
           id="feDistantLight4666" />
      </feSpecularLighting>
      <feComposite
         in2="result2"
         in="result4"
         operator="atop"
         result="result92"
         id="feComposite4670" />
      <feBlend
         mode="screen"
         in2="result92"
         id="feBlend4672" />
    </filter>
    <filter
       inkscape:label="Lightness-Contrast"
       inkscape:menu="Color"
       inkscape:menu-tooltip="Oversaturate colors which can be fluorescent in real world"
       style="color-interpolation-filters:sRGB;"
       id="filter4806"
       x="-0.15"
       y="-0.15"
       width="1.3"
       height="1.3">
      <feGaussianBlur
         result="result0"
         in="SourceGraphic"
         stdDeviation="0.5"
         id="feGaussianBlur4774" />
      <feTurbulence
         baseFrequency="0.042"
         seed="488"
         numOctaves="7"
         result="result1"
         id="feTurbulence4776" />
      <feDisplacementMap
         result="result5"
         xChannelSelector="R"
         scale="0"
         in2="result1"
         in="result1"
         yChannelSelector="G"
         id="feDisplacementMap4778" />
      <feComposite
         result="result2"
         operator="in"
         in2="result5"
         in="result0"
         id="feComposite4780" />
      <feSpecularLighting
         lighting-color="rgb(255,230,136)"
         surfaceScale="2"
         result="result4"
         specularConstant="2"
         specularExponent="65"
         in="result2"
         id="feSpecularLighting4784">
        <feDistantLight
           elevation="62"
           azimuth="225"
           id="feDistantLight4782" />
      </feSpecularLighting>
      <feComposite
         k1="2.5"
         k3="1"
         k2="-0.5"
         in2="result2"
         in="result4"
         operator="arithmetic"
         result="result91"
         id="feComposite4786" />
      <feBlend
         result="fbSourceGraphic"
         mode="multiply"
         in2="result91"
         id="feBlend4788" />
      <feColorMatrix
         values="1 0 0 -1 0 1 0 1 -1 0 1 0 0 -1 0 -2 -0.5 0 5 -2"
         in="fbSourceGraphic"
         result="fbSourceGraphicAlpha"
         id="feColorMatrix4790" />
      <feGaussianBlur
         stdDeviation="8"
         in="fbSourceGraphicAlpha"
         result="result0"
         id="feGaussianBlur4792" />
      <feOffset
         dx="2"
         dy="2"
         in="result0"
         result="result3"
         id="feOffset4794" />
      <feSpecularLighting
         in="result0"
         result="result1"
         lighting-color="rgb(255,255,255)"
         surfaceScale="4"
         specularConstant="0.8"
         specularExponent="15"
         id="feSpecularLighting4798">
        <fePointLight
           x="-5000"
           y="-10000"
           z="20000"
           id="fePointLight4796" />
      </feSpecularLighting>
      <feComposite
         in2="fbSourceGraphicAlpha"
         in="result1"
         result="result2"
         operator="in"
         id="feComposite4800" />
      <feComposite
         in="fbSourceGraphic"
         result="result4"
         operator="arithmetic"
         k2="2"
         k3="2"
         in2="result2"
         id="feComposite4802" />
      <feBlend
         mode="darken"
         in2="result4"
         id="feBlend4804"
         result="fbSourceGraphic" />
      <feColorMatrix
         result="fbSourceGraphicAlpha"
         in="fbSourceGraphic"
         values="0 0 0 -1 0 0 0 0 -1 0 0 0 0 -1 0 0 0 0 1 0"
         id="feColorMatrix4808" />
      <feGaussianBlur
         id="feGaussianBlur4810"
         stdDeviation="0.5"
         result="result6"
         in="fbSourceGraphic" />
      <feComposite
         in2="result6"
         id="feComposite4812"
         operator="in"
         in="result6"
         result="result91" />
      <feBlend
         in2="result91"
         id="feBlend4814"
         mode="multiply"
         in="result6"
         result="result2" />
      <feGaussianBlur
         id="feGaussianBlur4816"
         stdDeviation="7"
         result="result3"
         in="result2" />
      <feComposite
         in2="result2"
         id="feComposite4818"
         result="result92" />
      <feComposite
         in2="result92"
         id="feComposite4820"
         operator="in"
         in="result3"
         result="result5" />
      <feGaussianBlur
         id="feGaussianBlur4822"
         stdDeviation="1"
         in="result5" />
      <feSpecularLighting
         id="feSpecularLighting4824"
         surfaceScale="2"
         specularConstant="1.5"
         specularExponent="100"
         result="result93">
        <fePointLight
           id="fePointLight4826"
           x="-5000"
           y="-5000"
           z="20000" />
      </feSpecularLighting>
      <feComposite
         in2="result5"
         id="feComposite4828"
         operator="arithmetic"
         k1="1"
         result="result93" />
      <feComposite
         in2="result93"
         id="feComposite4830"
         operator="arithmetic"
         k2="0.1"
         k3="1"
         in="result5"
         result="result94" />
      <feBlend
         in2="result94"
         id="feBlend4832"
         mode="multiply"
         result="fbSourceGraphic" />
      <feColorMatrix
         result="fbSourceGraphicAlpha"
         in="fbSourceGraphic"
         values="0 0 0 -1 0 0 0 0 -1 0 0 0 0 -1 0 0 0 0 1 0"
         id="feColorMatrix4894" />
      <feColorMatrix
         id="feColorMatrix4896"
         type="hueRotate"
         values="0"
         in="fbSourceGraphic" />
      <feColorMatrix
         id="feColorMatrix4898"
         type="saturate"
         values="1" />
      <feColorMatrix
         id="feColorMatrix4900"
         type="matrix"
         values="2 -1 0 0 0 0 2 -1 0 0 -1 0 2 0 0 0 0 0 1 0 "
         result="fbSourceGraphic" />
      <feColorMatrix
         result="fbSourceGraphicAlpha"
         in="fbSourceGraphic"
         values="0 0 0 -1 0 0 0 0 -1 0 0 0 0 -1 0 0 0 0 1 0"
         id="feColorMatrix4926" />
      <feColorMatrix
         id="feColorMatrix4928"
         values="2.925 0 0 0.199398 -0.9625 0 2.925 0 0.199398 -0.9625 0 0 2.925 0.199398 -0.9625 0 0 0 1 0"
         in="fbSourceGraphic"
         result="fbSourceGraphic" />
      <feColorMatrix
         result="fbSourceGraphicAlpha"
         in="fbSourceGraphic"
         values="0 0 0 -1 0 0 0 0 -1 0 0 0 0 -1 0 0 0 0 1 0"
         id="feColorMatrix4930" />
      <feColorMatrix
         id="feColorMatrix4932"
         values="2.925 0 0 0.19939 -0.9625 0 2.925 0 0.19939 -0.9625 0 0 2.925 0.19939 -0.9625 0 0 0 1 0"
         in="fbSourceGraphic" />
    </filter>
  </defs>
  <sodipodi:namedview
     id="base"
     pagecolor="#ffffff"
     bordercolor="#666666"
     borderopacity="1.0"
     inkscape:pageopacity="0.0"
     inkscape:pageshadow="2"
     inkscape:zoom="1.979899"
     inkscape:cx="584.32076"
     inkscape:cy="678.27703"
     inkscape:document-units="mm"
     inkscape:current-layer="layer1"
     showgrid="false"
     inkscape:window-width="1850"
     inkscape:window-height="1016"
     inkscape:window-x="70"
     inkscape:window-y="27"
     inkscape:window-maximized="1" />
  <metadata
     id="metadata5">
    <rdf:RDF>
      <cc:Work
         rdf:about="">
        <dc:format>image/svg+xml</dc:format>
        <dc:type
           rdf:resource="http://purl.org/dc/dcmitype/StillImage" />
        <dc:title />
      </cc:Work>
    </rdf:RDF>
  </metadata>
  <g
     inkscape:label="Layer 1"
     inkscape:groupmode="layer"
     id="layer1">
    <path
       style="fill:#1a1a1a;stroke:#000000;stroke-width:0.94283938px;stroke-linecap:butt;stroke-linejoin:miter;stroke-opacity:1"
       d="M 109.63009,2.9577783 C 205.45846,48.109452 207.26654,49.112821 207.26654,49.112821 L 171.37378,136.86625 76.180593,81.220678 Z"
       id="path4537"
       inkscape:connector-curvature="0"
       sodipodi:nodetypes="ccccc" />
    <path
       style="fill:#f9f9f9;stroke:#000000;stroke-width:0.80115229px;stroke-linecap:butt;stroke-linejoin:miter;stroke-opacity:1"
       d="m 111.89021,9.2288428 c 83.8702,39.1973802 87.56778,41.7407142 87.56778,41.7407142 L 169.28024,126.24947 83.149925,77.170961 Z"
       id="path4537-3"
       inkscape:connector-curvature="0"
       sodipodi:nodetypes="ccccc" />
    <path
       style="fill:#1a1a1a;stroke:#000000;stroke-width:0.66029966px;stroke-linecap:butt;stroke-linejoin:miter;stroke-opacity:1"
       d="M 170.66263,136.54301 84.135838,153.9836 4.6508363,93.946655 76.180593,81.220678 Z"
       id="path4554"
       inkscape:connector-curvature="0"
       sodipodi:nodetypes="ccccc" />
    <path
       style="fill:none;stroke:#000000;stroke-width:0.67681688px;stroke-linecap:butt;stroke-linejoin:miter;stroke-opacity:1"
       d="m 4.6508363,93.946655 0.2160501,4.245235 78.3288506,59.82229 87.471953,-18.8333 -0.005,-2.63787 -94.482037,-55.322332 z"
       id="path4556"
       inkscape:connector-curvature="0"
       sodipodi:nodetypes="ccccccc" />
    <path
       style="fill:#666666;stroke:#000000;stroke-width:0.66721874px;stroke-linecap:butt;stroke-linejoin:miter;stroke-opacity:1"
       d="M 4.3367928,97.703973 4.204885,94.417453 84.135838,153.9836 c 3.558301,-0.92325 78.638522,-15.75241 87.237942,-17.11735 l -0.70609,2.31463 -87.471953,18.8333 z"
       id="path4558"
       inkscape:connector-curvature="0"
       sodipodi:nodetypes="ccccccc" />
    <path
       style="fill:#d5e5ff;stroke:#000000;stroke-width:0.99331081px;stroke-linecap:butt;stroke-linejoin:miter;stroke-opacity:1"
       d="M 116.04071,17.693001 188.03101,52.074082 163.10232,109.14707 92.844896,69.167989 Z"
       id="path4566"
       inkscape:connector-curvature="0"
       sodipodi:nodetypes="ccccc" />
    <path
       style="fill:#0066ff;stroke:#000000;stroke-width:0.93942505px;stroke-linecap:butt;stroke-linejoin:miter;stroke-opacity:1"
       d="m 92.844896,69.167989 c 2.57745,-6.242376 9.418934,-20.583187 9.792894,-21.00126 0.14957,-0.16721 0.48504,0.167211 0.63463,0 0.0747,-0.08364 0,-0.236474 0,-0.35473 0.21154,0 0.44543,0.105757 0.63462,0 0.18922,-0.105757 -0.14956,-0.542265 0,-0.709494 0.14962,-0.167247 0.48506,0.167211 0.63465,0 0.14956,-0.167247 -0.14961,-0.542264 0,-0.709485 0.14956,-0.167248 0.48504,0.16721 0.63463,0 0.14958,-0.167248 -0.14958,-0.542265 0,-0.709494 0.0748,-0.08364 0.21157,0 0.31731,0 0.10577,0 0.31731,-0.118256 0.31731,0 0,0.118255 -0.31731,-0.118256 -0.31731,0 0,0.167247 0.2504,0.205165 0.31731,0.35473 0.0483,0.107969 0,0.904477 0,1.064239 0,0.118255 0.0747,0.271125 0,0.354729 -0.42308,0.473005 -0.31731,-0.591233 -0.31731,0.354768 0,0.130268 0.0128,1.404706 0,1.418979 -0.0748,0.08365 -0.24252,-0.08364 -0.31731,0 -0.0447,0.05007 -0.0324,0.991469 0,1.064234 0.22024,0.492404 0.5646,0.354731 0.95194,0.354731 0.10577,0 0.24253,-0.08364 0.31735,0 0.0747,0.08364 -0.0748,0.271124 0,0.35473 0.0747,0.08364 0.24253,-0.08364 0.31731,0 0.0748,0.08364 0,0.236511 0,0.354767 v 0.35473 2.483214 c 0,0.118256 -0.0747,0.271125 0,0.354731 0.0748,0.08364 0.27003,-0.105759 0.31732,0 0.10269,0.22949 -0.11396,1.291548 0,1.418975 0.0747,0.08364 0.24252,-0.08364 0.31734,0 0.14958,0.167248 -0.14958,0.542265 0,0.709498 0.0748,0.08364 0.24252,-0.08364 0.31731,0 0.0747,0.08364 -0.0748,0.271124 0,0.354729 0.0747,0.08364 0.24252,-0.08364 0.31731,0 0.14959,0.167247 -0.0946,0.497967 0,0.709494 0.0669,0.149566 0.25041,0.205165 0.31731,0.35473 0.0473,0.105758 -0.0747,0.271125 0,0.35473 0.0747,0.08364 0.24254,-0.08364 0.31735,0 0.0747,0.08364 -0.0748,0.271125 0,0.354767 0.0747,0.08364 0.24254,-0.08364 0.31732,0 0.1496,0.167211 -0.14958,0.542254 0,0.709482 0.0747,0.08364 0.21158,0 0.31732,0 0.10577,0 0.2227,0.05286 0.31734,0 0.13378,-0.07478 0.18349,-0.279947 0.31731,-0.35473 0.18922,-0.105757 0.48505,0.167211 0.63462,0 0.15868,-0.177383 -0.15867,-0.886866 0,-1.064234 0.0747,-0.08364 0.24253,0.08364 0.31735,0 0.14961,-0.167247 -0.14957,-0.542264 0,-0.709497 0.42309,-0.472994 0.31732,0.591244 0.31732,-0.35473 v -0.709487 c 0,-0.118255 -0.0747,-0.271124 0,-0.354766 0.0747,-0.08364 0.24253,0.08364 0.31731,0 0.14957,-0.167211 -0.14958,-0.542254 0,-0.709482 0.0747,-0.08364 0.24252,0.08364 0.31735,0 0.65654,-0.733979 -1.00329,0.02853 0.31732,-0.709495 0.0946,-0.05286 0.24251,0.08364 0.31729,0 0.0748,-0.08364 0,-0.236512 0,-0.354729 0,-0.236513 -0.0946,-0.497963 0,-0.709495 0.0472,-0.105757 0.21155,0 0.31732,0 0.11653,0 1.25649,0.01428 1.26928,0 0.14957,-0.167209 -0.14958,-0.542253 0,-0.709482 0.0748,-0.08364 0.24252,0.08364 0.3173,0 0.0747,-0.08364 -0.0747,-0.271124 0,-0.354767 0.0747,-0.08364 0.24253,0.08364 0.31731,0 0.0748,-0.08364 -0.0748,-0.271125 0,-0.354729 0.15867,-0.177385 0.7933,0.177384 0.95196,0 0.0747,-0.08364 -0.0748,-0.271126 0,-0.354731 0.0747,-0.08364 0.24253,0.08364 0.31731,0 0.0748,-0.08364 -0.0747,-0.271124 0,-0.35473 0.14957,-0.16721 0.48505,0.167211 0.63463,0 0.0748,-0.08364 -0.0747,-0.271124 0,-0.354767 0.0748,-0.08364 0.24253,0.08364 0.31731,0 0.15867,-0.177383 -0.15866,-0.886854 0,-1.064238 0.14959,-0.167211 0.48506,0.167247 0.63464,0 0.0748,-0.08364 -0.0747,-0.271125 0,-0.354731 0.0128,-0.01427 1.15273,0 1.26926,0 0.87872,0 -0.24404,-0.35473 0.63463,-0.35473 h 0.31735 c 0.10577,0 0.24253,-0.08364 0.31731,0 0.0748,0.08365 -0.0472,0.248976 0,0.35473 0.0669,0.149567 0.25041,0.205164 0.31732,0.354731 0.0946,0.211546 -0.14958,0.542264 0,0.709496 0.0747,0.08364 0.24252,-0.08364 0.31735,0 0.0982,0.109847 -0.0982,1.663883 0,1.773722 0.0748,0.08364 0.24252,-0.08364 0.3173,0 0.1114,0.124525 -0.10959,1.528695 0,1.773728 0.0669,0.149565 0.25041,0.205164 0.31732,0.354729 0.0483,0.10797 0,0.904478 0,1.064235 v 2.483219 c 0,0.118255 -0.0748,0.271125 0,0.354729 0.14958,0.167211 0.48505,-0.167209 0.63463,0 0.15868,0.177385 -0.15867,0.886867 0,1.064236 0.0748,0.08364 0.24253,-0.08365 0.31732,0 0.0747,0.08364 -0.0748,0.271124 0,0.35473 0.0747,0.08364 0.24253,-0.08365 0.31731,0 0.0128,0.01427 0,1.288706 0,1.418987 v 0.354729 c 0,0.118256 -0.0747,0.271125 0,0.35473 0.0748,0.08364 0.24253,-0.08364 0.31735,0 0.0146,0.01614 0,1.606463 0,1.773729 0,0.118254 -0.0747,0.271124 0,0.35473 0.0747,0.08364 0.24252,-0.08364 0.31732,0 0.0748,0.08364 0,0.236473 0,0.354729 v 0.35473 1.773732 c 0,0.118257 -0.0747,0.271125 0,0.35473 0.0748,0.08364 0.24251,-0.08364 0.3173,0 0.14958,0.167248 -0.14957,0.542265 0,0.709497 0.0747,0.08364 0.21157,0 0.31731,0 h 0.31735 c 0.11653,0 1.2565,0.01426 1.26927,0 0.0748,-0.08364 -0.0747,-0.271125 0,-0.354768 0.65653,-0.733981 -0.0254,1.121618 0.63462,-0.354729 0.0472,-0.105757 -0.0747,-0.271125 0,-0.35473 0.0748,-0.08364 0.24253,0.08364 0.31734,0 0.14959,-0.167209 -0.1496,-0.542264 0,-0.709493 0.0747,-0.08364 0.22271,0.05286 0.31732,0 0.13378,-0.07479 0.18353,-0.279948 0.31732,-0.35473 0.0946,-0.05286 0.24253,0.08364 0.31735,0 0.0747,-0.08364 -0.0747,-0.271126 0,-0.35473 0.14956,-0.167248 0.48503,0.167209 0.63463,0 0.0747,-0.08364 -0.0748,-0.271124 0,-0.354768 0.0128,-0.01428 1.15272,0 1.26926,0 0.10577,0 0.24253,0.08364 0.31735,0 0.0748,-0.08364 -0.10578,-0.35473 0,-0.35473 0.14956,0 0.1835,0.279948 0.31731,0.35473 0.0946,0.05286 0.24252,-0.08364 0.31732,0 0.0764,0.08533 -0.0764,1.333625 0,1.418991 0.0747,0.08364 0.24251,-0.08364 0.31729,0 0.15868,0.177384 -0.15866,0.886855 0,1.064227 0.0748,0.08364 0.22272,-0.05286 0.31735,0 0.70161,0.392188 0.0984,0.220182 0.31732,0.709494 0.66029,1.476362 -0.022,-0.379237 0.63464,0.35473 0.0747,0.08364 -0.0748,0.271125 0,0.354768 0.0104,0.01126 0.87498,0 0.95193,0 0.10577,0 0.24253,0.08364 0.31734,0 0.0748,-0.08364 -0.0747,-0.271126 0,-0.354768 0.0748,-0.08364 0.24254,0.08364 0.31732,0 0.14958,-0.16721 -0.14957,-0.542254 0,-0.709483 0.0747,-0.08364 0.24253,-0.08364 0.31732,0 0.0747,0.08364 -0.0747,0.271126 0,0.35473 0.0747,0.08364 0.24253,-0.08364 0.31734,0 0.0747,0.08364 -0.0473,0.248977 0,0.354731 0.0669,0.149566 0.25041,0.205164 0.31732,0.354767 0.0472,0.105757 -0.0472,0.248975 0,0.354729 0.0669,0.149566 0.2504,0.205165 0.31732,0.35473 0.0946,0.211547 -0.14959,0.542265 0,0.709495 0.0747,0.08364 0.24251,-0.08364 0.31731,0 0.0748,0.08364 -0.0748,0.271124 0,0.354729 0.14957,0.16721 0.48505,-0.16721 0.63462,0 0.0747,0.08364 -0.0747,0.271126 0,0.35473 0.14962,0.167248 0.48507,-0.16721 0.63465,0 0.0747,0.08364 -0.0747,0.271125 0,0.354768 0.15867,0.177384 0.79329,-0.177384 0.95193,0 0.0747,0.08364 -0.0748,0.271124 0,0.35473 0.0747,0.08364 0.21157,0 0.31734,0 h 1.58659 c 0.10577,0 0.24251,0.08364 0.31732,0 0.0747,-0.08364 -0.0748,-0.271126 0,-0.35473 0.0747,-0.08364 0.21156,0 0.31733,0 0.10577,0 0.24253,-0.08364 0.31731,0 0.14959,0.16721 -0.14957,0.542257 0,0.709486 0.0748,0.08364 0.24253,-0.08365 0.31732,0 0.0747,0.08364 -0.0748,0.271125 0,0.35473 0.0747,0.08364 0.24253,-0.08365 0.31735,0 0.0748,0.08364 -0.0747,0.271125 0,0.354767 0.14956,0.16721 0.48503,-0.167247 0.63463,0 0.0747,0.08364 -0.0747,0.271125 0,0.35473 0.0747,0.08364 0.24251,-0.08364 0.31731,0 0.0747,0.08364 -0.0748,0.271124 0,0.35473 0.0747,0.08364 0.2227,-0.05286 0.31734,0 0.13378,0.07478 0.1835,0.279946 0.31731,0.354767 0.0946,0.05286 0.24253,-0.08364 0.31731,0 0.0747,0.08365 -0.0748,0.271125 0,0.35473 0.0104,0.01126 0.87501,0 0.95196,0 h 3.17315 0.63464 c 0.10577,0 0.24253,-0.08364 0.31732,0 0.0747,0.08364 -0.0747,0.271125 0,0.35473 0.0747,0.08364 0.31731,-0.118255 0.31731,0 0,0.502553 -1.48081,-1.005107 0.31732,0 0.18921,0.105757 -0.14959,0.542264 0,0.709493 0.0748,0.08364 0.24251,-0.08365 0.31734,0 0.14957,0.167248 -0.14958,0.542258 0,0.709487 0.0748,0.08365 0.24252,-0.08364 0.3173,0 0.21557,0.240978 -0.32445,0.705503 0.31732,1.064238 0.18923,0.105757 0.48505,-0.167248 0.63464,0 0.14957,0.16721 -0.14961,0.542265 0,0.709493 0.0764,0.08533 1.1929,-0.08533 1.26925,0 0.0747,0.08364 -0.0747,0.271126 0,0.354731 0.14959,0.167247 0.48507,-0.167211 0.63464,0 0.0747,0.08364 -0.0748,0.271125 0,0.35473 0.0747,0.08364 0.24254,-0.08365 0.31732,0 0.14957,0.167247 -0.14958,0.542264 0,0.709496 0.0747,0.08364 0.24253,-0.08364 0.31732,0 0.0747,0.08364 -0.0747,0.271126 0,0.354731 0.0104,0.01126 0.87499,0 0.95194,0 0.10577,0 0.24253,0.08364 0.31731,0 0.0747,-0.08364 -0.0747,-0.271125 0,-0.354731 0.15868,-0.177383 0.7933,0.177385 0.95196,0 0.0748,-0.08364 -0.0747,-0.271124 0,-0.354729 0.0748,-0.08364 0.24252,0.08365 0.31732,0 0.0747,-0.08364 -0.0748,-0.271125 0,-0.354767 0.0747,-0.08365 0.24251,0.08364 0.31733,0 0.14959,-0.167211 -0.14957,-0.542254 0,-0.709482 0.0748,-0.08365 0.24253,0.08364 0.31731,0 0.14959,-0.167211 -0.0946,-0.497967 0,-0.709494 0.0669,-0.149566 0.25042,-0.205165 0.31732,-0.35473 0.0946,-0.211546 -0.14957,-0.542265 0,-0.709495 0.0747,-0.08364 0.24253,0.08365 0.31735,0 0.14961,-0.167208 -0.14957,-0.542252 0,-0.709485 0.0747,-0.08365 0.24253,0.08364 0.31731,0 0.0747,-0.08365 -0.0747,-0.271124 0,-0.354767 0.0747,-0.08364 0.24254,0.08365 0.31732,0 0.14957,-0.16721 -0.14958,-0.542257 0,-0.709486 0.0748,-0.08365 0.24252,0.08364 0.31732,0 0.0747,-0.08365 -0.0748,-0.271125 0,-0.35473 0.1496,-0.167247 0.48504,0.16721 0.63462,0 0.0747,-0.08365 -0.0747,-0.271125 0,-0.354768 0.15868,-0.177383 0.7933,0.177384 0.95196,0 0.0747,-0.08364 -0.0748,-0.271125 0,-0.35473 0.0747,-0.08364 0.21154,0 0.31731,0 0.14961,0 1.57219,0.01614 1.58658,0 0.0747,-0.08364 -0.0747,-0.271125 0,-0.354729 0.15868,-0.177384 0.79329,0.177383 0.95195,0 0.0747,-0.08365 -0.0748,-0.271125 0,-0.354768 0.15868,-0.177384 0.79328,0.177384 0.95194,0 0.0748,-0.08364 -0.0747,-0.271125 0,-0.35473 0.14961,-0.167209 0.48505,0.167247 0.63464,0 0.0747,-0.08364 0,-0.236474 0,-0.35473 0.10578,0 0.24253,0.08365 0.31732,0 0.0747,-0.08364 -0.0472,-0.248974 0,-0.354731 0.0669,-0.149564 0.2504,-0.205164 0.31732,-0.354766 0.0472,-0.105757 -0.0747,-0.271125 0,-0.35473 0.15866,-0.177384 0.79327,0.177384 0.95193,0 0.0747,-0.08364 -0.0747,-0.271125 0,-0.35473 0.0982,-0.109846 1.48833,0.109846 1.58659,0 0.0747,-0.08364 -0.0748,-0.271125 0,-0.354767 0.0747,-0.08364 0.24252,0.08364 0.31731,0 0.0747,-0.08364 -0.0747,-0.271125 0,-0.35473 0.14959,-0.167248 0.48505,0.16721 0.63464,0 0.0748,-0.08364 -0.0747,-0.271124 0,-0.35473 0.0748,-0.08364 0.21158,0 0.31731,0 0.10578,0 0.24253,0.08364 0.31732,0 0.0747,-0.08364 -0.0747,-0.271125 0,-0.35473 0.0747,-0.08364 0.2227,0.05286 0.31731,0 0.26755,-0.149566 0.36705,-0.559916 0.63463,-0.709494 0.0946,-0.05286 0.24253,0.08364 0.31731,0 0.0747,-0.08364 -0.0747,-0.271124 0,-0.35473 0.1496,-0.167248 0.48505,0.167248 0.63465,0 0.0747,-0.08364 -0.0747,-0.271125 0,-0.354768 0.0747,-0.08364 0.24252,0.08364 0.31731,0 0.0748,-0.08364 -0.0747,-0.271124 0,-0.354729 0.15868,-0.177384 0.79328,0.177384 0.95194,0 0.0747,-0.08364 -0.0747,-0.271125 0,-0.35473 0.15867,-0.177383 0.7933,0.177384 0.95196,0 0.0747,-0.08364 -0.0747,-0.271124 0,-0.35473 0.14956,-0.167248 0.48504,0.16721 0.63462,0 0,-0.945987 -0.10577,0.118257 0.31735,-0.354767 0.0747,-0.08364 -0.0748,-0.271125 0,-0.35473 0.0747,-0.08364 0.31731,-0.118256 0.31731,0 0,0.118255 -0.42309,0 -0.31731,0 h 0.95194 c 0.10578,0 0.24253,0.08364 0.31732,0 0.0747,-0.08364 -0.0747,-0.271125 0,-0.35473 0.0128,-0.01428 1.15272,0 1.26926,0 0.11653,0 1.25649,0.01426 1.26926,0 0.0747,-0.08364 -0.0747,-0.271125 0,-0.354767 0.15868,-0.177385 0.79329,0.177383 0.95195,0 0.0748,-0.08364 -0.0747,-0.271125 0,-0.35473 0.0748,-0.08364 0.21157,0 0.31731,0 0.10578,0 0.24254,-0.08364 0.31735,0 0.0128,0.01426 0,1.288711 0,1.418979 0,0.945987 0.10577,-0.118256 -0.31735,0.354769 -0.0649,0.0725 0.0629,0.923577 0,1.064226 -0.0669,0.149566 -0.25039,0.205164 -0.31731,0.354768 -0.063,0.140667 0.0649,0.991703 0,1.064234 -0.0747,0.08364 -0.24252,-0.08364 -0.31731,0 -0.0128,0.01426 0,1.2887 0,1.41898 0,0.118255 -0.0946,0.301871 0,0.35473 0.18921,0.105757 0.44542,-0.105758 0.63462,0 0.13171,0.07362 -0.11073,0.940416 0,1.064239 0.0747,0.08364 0.24254,-0.08365 0.31735,0 0.15868,0.177383 -0.0291,2.983376 -3.37352,10.058922 -7.72253,18.520573 -4.57043,11.984047 -12.00104,27.508333"
       id="path4940"
       inkscape:connector-curvature="0"
       sodipodi:nodetypes="ccccccccccssscscscccssccscscccccccccccssccsccccscssscccccscscccscccccccsccccssscccccccccssccccccssccsccscscccssccccccccscccssscccccccccsssccccscccccccccccccssccsccccscccccccccscsccsccccccccccccccccscccccscccccccccsccccccccscccccccccccccccsccccscccccccscccccccccsssccsccccscscccccscccccc" />
  </g>
</svg>
