<?xml version="1.0" encoding="UTF-8" standalone="no"?>
<!-- Created with Inkscape (http://www.inkscape.org/) -->

<svg
   xmlns:dc="http://purl.org/dc/elements/1.1/"
   xmlns:cc="http://creativecommons.org/ns#"
   xmlns:rdf="http://www.w3.org/1999/02/22-rdf-syntax-ns#"
   xmlns:svg="http://www.w3.org/2000/svg"
   xmlns="http://www.w3.org/2000/svg"
   xmlns:sodipodi="http://sodipodi.sourceforge.net/DTD/sodipodi-0.dtd"
   xmlns:inkscape="http://www.inkscape.org/namespaces/inkscape"
   sodipodi:docname="mountain_background_01.svg"
   inkscape:version="0.92.4 (5da689c313, 2019-01-14)"
   id="svg8"
   version="1.1"
   viewBox="0 0 297 210"
   height="210mm"
   width="297mm">
  <sodipodi:namedview
     inkscape:window-maximized="1"
     inkscape:window-y="27"
     inkscape:window-x="70"
     inkscape:window-height="1136"
     inkscape:window-width="1850"
     showgrid="false"
     inkscape:current-layer="layer1"
     inkscape:document-units="mm"
     inkscape:cy="445.74252"
     inkscape:cx="612.97081"
     inkscape:zoom="2"
     inkscape:pageshadow="2"
     inkscape:pageopacity="0.0"
     borderopacity="1.0"
     bordercolor="#666666"
     pagecolor="#ffffff"
     id="base" />
  <defs
     id="defs2" />
  <metadata
     id="metadata5">
    <rdf:RDF>
      <cc:Work
         rdf:about="">
        <dc:format>image/svg+xml</dc:format>
        <dc:type
           rdf:resource="http://purl.org/dc/dcmitype/StillImage" />
        <dc:title />
      </cc:Work>
    </rdf:RDF>
  </metadata>
  <g
     id="layer1"
     inkscape:groupmode="layer"
     inkscape:label="Layer 1"
     transform="translate(0,-87)">
    <path
       style="opacity:0.27399998;fill:#000000;stroke:#000000;stroke-width:0.1265223px;stroke-linecap:butt;stroke-linejoin:miter;stroke-opacity:1"
       d="m 119.50543,196.15186 c 0.4701,-0.23727 0.95809,-1.12513 1.45214,-1.37234 0.49405,-0.24722 0.99419,-0.18298 1.48856,-0.4288 0.49437,-0.24585 0.98299,-0.22423 1.45405,-0.45749 0.47107,-0.23308 0.92456,-1.48315 1.34868,-1.69231 0.42412,-0.20926 0.81885,-0.0197 1.17239,-0.19353 0.35353,-0.1739 0.66587,0.5963 0.92519,0.46908 0.25932,-0.12721 0.46563,-0.5012 0.6071,-0.57045 0.14149,-0.0693 0.21813,-0.94792 0.21813,-0.94792 0,0 0.0766,0.49093 0.2111,0.39886 0.13446,-0.0921 0.32672,-0.28063 0.55793,-0.43982 0.23121,-0.15916 0.50139,-0.86741 0.7917,-1.06876 0.2903,-0.20139 0.60072,-0.3503 0.91242,-0.56884 0.3117,-0.21859 0.62468,0.44895 0.92008,0.23824 0.29542,-0.21073 0.57326,-0.97195 0.8147,-1.14989 0.24144,-0.17806 0.44647,-8.8e-4 0.59625,-0.1213 0.14978,-0.12013 0.24432,-0.25568 0.26475,-0.29316 0.0204,-0.0374 0.0869,-0.51995 0.18779,-0.67877 0.10098,-0.15891 0.23633,0.33856 0.39473,0.0936 0.15841,-0.24511 0.33981,-0.70009 0.53271,-0.99626 0.19289,-0.29618 0.39728,-0.18052 0.60167,-0.49269 0.2044,-0.31217 0.40879,-0.61628 0.60168,-0.90935 0.1929,-0.29305 0.3743,-2.03674 0.53271,-2.27556 0.15839,-0.23872 0.29381,0.0549 0.39473,-0.0943 0.10087,-0.14957 0.16733,-0.60853 0.18778,-0.63351 0.0204,-0.025 0.0587,0.71696 0.11236,0.58314 0.0536,-0.13385 0.12264,-0.96836 0.2044,-1.18219 0.0817,-0.21392 0.1763,-0.1164 0.28104,-0.3813 0.10473,-0.26498 0.21972,0.27747 0.34235,-0.0105 0.12264,-0.28721 0.25294,-1.60792 0.38835,-1.8885 0.13541,-0.28057 0.27594,-0.79845 0.41901,-1.0435 0.14307,-0.24511 0.28871,0.89233 0.43433,0.71164 0.14563,-0.18076 0.29126,-0.62863 0.43434,-0.71603 0.14307,-0.0875 0.31936,-0.26703 0.51832,-0.4118 0.19897,-0.14466 0.4206,-0.88489 0.65437,-1.0675 0.23379,-0.18273 0.47969,0.34588 0.7272,0.14491 0.2475,-0.20089 0.4966,-1.48206 0.73677,-1.68187 0.24016,-0.19969 0.47138,0.1164 0.68312,-0.0627 0.21174,-0.17906 0.40399,-0.28292 0.56623,-0.42183 0.16224,-0.13902 0.29446,0.26731 0.38611,0.18814 0.0916,-0.0793 0.14276,-0.13681 0.14276,-0.13681 l 0.24526,-0.27813 0.24528,-0.86555 0.24527,0.0105 0.24527,0.29165 0.24528,-0.37424 0.24527,0.27045 0.24526,-1.51097 0.24527,1.1926 0.22484,-0.69902 0.22483,0.0773 0.22483,-0.0374 0.22483,0.44652 0.22484,1.08927 0.22483,-0.53288 0.22483,-0.26447 0.22483,0.33339 0.36791,-0.0173 0.36791,-0.4833 0.3679,0.99949 0.36791,-0.0899 0.36791,-1.06061 0.36791,0.49671 0.3679,0.19697 0.3679,-0.30177 0.34747,-0.50359 0.34747,0.0702 0.34747,-0.20876 0.34747,-0.83667 0.34747,-0.78666 0.34746,-0.28635 0.34747,0.49948 0.34747,-0.36385 0.16351,-0.0771 0.16352,0.34096 0.16351,-0.0658 0.16352,1.33003 0.16351,1.02894 0.16352,0.45131 0.16352,0.0197 0.16351,0.0972 c 0,0 0.046,0.4785 0.12679,0.54453 0.0808,0.066 0.19641,-0.66586 0.33565,-0.55154 0.13924,0.11446 0.30211,0.33118 0.47744,0.47603 0.17534,0.14491 0.36312,0.11343 0.55219,0.27112 0.18906,0.15768 0.3794,1.08507 0.55984,1.23775 0.18043,0.15276 0.35097,0.002 0.50044,0.13261 0.14946,0.12994 0.27785,-0.42952 0.37397,-0.34005 0.0961,0.0894 0.16001,1.31538 0.18043,1.34659 0.0205,0.0312 0.0945,-0.7245 0.20919,-0.57282 0.11465,0.15179 0.26986,1.26706 0.45254,1.50549 0.18269,0.2385 0.39282,0.14517 0.61733,0.43655 0.22451,0.29137 0.4634,0.0129 0.70356,0.32215 0.24015,0.31062 0.48159,0.47071 0.71122,0.76677 0.22963,0.29611 0.44742,1.68642 0.64032,1.93421 0.1929,0.2478 0.36088,0.53691 0.49087,0.70266 0.12997,0.16577 0.22195,0.0807 0.26283,0.13065 0.0409,0.0498 0.11752,0.45125 0.22036,0.60831 0.1028,0.15695 0.23186,-0.43158 0.37749,-0.19992 0.14564,0.23186 0.30787,-3.2e-4 0.47712,0.27384 0.16927,0.2741 0.34556,1.82039 0.5193,2.10449 0.17372,0.28409 0.3449,0.37976 0.50395,0.64139 0.15905,0.26167 0.30595,0.60058 0.43114,0.80741 0.12519,0.20679 0.22866,-0.32613 0.30084,-0.20656 0.0722,0.11962 0.11305,-0.14959 0.11305,-0.14959 l 0.61317,1.16793 0.61318,0.16653 0.61318,0.51033 0.61318,-0.17339 0.61317,1.54887 0.61318,-0.11319 0.61318,0.8058 0.61317,0.84118 0.32704,-1.04464 0.32703,-0.17093 0.32703,-0.40846 0.32702,0.27237 0.32703,0.0173 0.32703,-0.37585 0.32702,0.26867 0.32703,-1.02746 c 0,0 0.0102,0.45734 0.0281,0.36651 0.0179,-0.0909 0.0435,0.27684 0.0741,0.11962 0.0306,-0.15718 0.0664,-0.23356 0.10473,-0.43285 0.0384,-0.19919 0.0792,-1.84458 0.12009,-2.06155 0.0409,-0.21685 0.0817,0.79908 0.12007,0.58885 0.0384,-0.21025 0.0741,-1.1497 0.10474,-1.32882 0.0306,-0.17905 0.0562,-0.74086 0.0741,-0.86449 0.0179,-0.12348 0.0281,0.37106 0.0281,0.32735 v -0.11936 -0.2635 -0.66049 0.10442 -0.54516 -0.96105 -0.65716 0.45928 c 0,0 0.0255,-1.18651 0.0706,-1.28807 0.045,-0.10171 0.10952,0.1815 0.18747,0.006 0.078,-0.17512 0.16927,0.34706 0.26795,0.12605 0.0987,-0.22104 0.20471,-1.71418 0.31201,-1.95299 0.10724,-0.23874 0.2159,-0.0503 0.31969,-0.27918 0.10383,-0.22866 0.20279,-0.58241 0.29094,-0.77321 0.0881,-0.19084 0.16543,0.58704 0.22579,0.46207 0.0603,-0.12501 0.10383,-0.45663 0.12423,-0.48784 0.0205,-0.0312 0.0817,-0.56618 0.17342,-0.67205 0.0916,-0.10584 0.21365,0.43014 0.35545,0.2721 0.14179,-0.15793 0.30339,-0.82654 0.47425,-1.01434 0.17087,-0.18788 0.35099,-0.67246 0.52983,-0.86756 0.17885,-0.195 0.35641,-0.26903 0.52216,-0.44901 0.16575,-0.18003 0.31968,0.16307 0.45126,0.0197 0.13158,-0.14244 0.2408,-0.56811 0.31712,-0.65055 0.0763,-0.0826 0.11977,0.18297 0.11977,0.18297 l 0.24527,-0.73698 0.24528,-0.23234 0.24526,0.39628 0.24527,0.0543 0.24528,-0.38787 0.24527,-0.43023 0.24527,-0.91936 0.24527,0.64046 0.34747,-0.78602 0.34747,-0.0844 0.34747,0.0408 0.34746,-0.94547 0.34747,0.38939 0.34747,0.37979 0.34746,-0.66785 0.34747,0.19551 0.18396,-0.74299 0.18395,-0.34002 0.18396,-0.17414 0.18397,1.22364 0.18396,-1.16607 0.18396,-0.0379 0.18395,0.14072 0.18396,0.0317 0.18397,-0.22006 0.18396,-0.17167 0.18396,1.10865 0.18395,-1.58464 0.18396,0.13829 0.18397,-0.52123 0.18396,-0.0795 0.18396,1.23651 0.14307,-0.84773 0.14307,0.37247 0.14308,0.51941 0.14307,0.39799 0.14307,0.53833 0.14307,-1.21122 0.14308,0.10854 0.14307,1.29224 0.42922,-0.74189 0.42923,1.26273 0.42921,0.29837 0.42923,-1.33655 0.42922,0.88639 0.42923,0.24535 0.42922,0.77829 0.42923,-1.18675 0.14307,1.44629 0.14307,0.23431 0.14308,-0.79481 0.14307,0.36844 0.14307,0.70805 0.14307,-0.11666 0.14308,-0.40811 0.14307,0.55149 0.30658,-0.81308 0.30659,0.20655 0.30659,-0.0197 0.30659,0.75798 0.30658,-0.4068 0.3066,1.03482 0.30658,-0.62107 0.30659,-0.0105 0.26571,0.50936 0.26572,-0.15572 0.2657,0.1405 0.26572,-0.46355 0.26571,-1.15992 0.2657,0.70866 0.26572,-0.21466 0.26571,-0.98101 0.16352,0.0541 0.16351,0.67662 0.16352,-0.89994 0.16351,-0.22251 0.16352,0.32862 0.16352,-0.29622 0.16351,-0.69049 0.16352,0.31177 0.16351,-0.0322 0.16352,0.34512 0.16351,0.35686 0.16352,0.44358 0.16352,-0.2031 0.16351,-0.11834 0.16352,0.48804 0.16351,-0.39891 0.3679,0.60949 0.36792,0.70864 0.3679,-0.84112 0.36791,1.33619 0.3679,-0.21196 0.36792,-0.0428 0.3679,-0.005 0.3679,0.74464 0.28615,-0.46639 0.28615,1.0988 0.28615,1.28059 0.28615,-0.45618 0.28615,1.74772 0.28615,-0.24511 0.28615,0.53856 0.28615,0.9651 0.53143,0.85745 0.53141,-0.005 0.53142,0.26897 0.53142,0.67917 0.53143,0.5207 0.53142,-0.14712 0.53142,0.026 0.53142,0.54079 1.77822,2.71214 1.77821,2.04316 1.77822,1.55798 1.77821,1.22384 1.77821,1.54247 1.77823,2.95881 1.7782,1.40464 1.77823,1.85406 0.89932,-0.10738 0.89933,1.73649 0.89933,0.21416 0.89933,0.39867 0.89932,0.4944 0.89932,0.0471 0.89933,1.1485 0.89932,0.0781 1.00153,0.0359 1.00153,1.38215 1.00152,-5.1e-4 1.00153,0.23014 1.00151,-0.72358 1.00153,-0.0356 1.00152,1.1817 1.00152,-0.11794 0.51099,-0.93774 0.51098,0.66367 0.51097,-0.12695 0.51099,-0.39544 0.51098,0.66678 0.51098,-1.02229 0.51098,0.73534 0.51099,-1.40323 4.3654,-1.03696 3.5048,2.4176 v 0 0 0 l 11.22216,1.95496 3.41235,7.58925 c -43.18377,0.0776 -79.64013,-4.36109 -146.12123,-4.0098 l 1.96216,-12.77519"
       id="path5015"
       inkscape:connector-curvature="0"
       sodipodi:nodetypes="cssssssscssssssssssssssssssssssssssssssscccccccccccccccccccccccccccccccccccccccccssssssssssssssssssssssscccccccccccccccccssssssssccccccccssssssscssssssscccccccccccccccccccccccccccccccccccccccccccccccccccccccccccccccccccccccccccccccccccccccccccccccccccccccccccccccccccccccccccccccccccccccccccccccccccccccccc" />
  </g>
</svg>
