<?xml version="1.0" encoding="UTF-8" standalone="no"?>
<!-- Created with Inkscape (http://www.inkscape.org/) -->

<svg
   xmlns:dc="http://purl.org/dc/elements/1.1/"
   xmlns:cc="http://creativecommons.org/ns#"
   xmlns:rdf="http://www.w3.org/1999/02/22-rdf-syntax-ns#"
   xmlns:svg="http://www.w3.org/2000/svg"
   xmlns="http://www.w3.org/2000/svg"
   xmlns:sodipodi="http://sodipodi.sourceforge.net/DTD/sodipodi-0.dtd"
   xmlns:inkscape="http://www.inkscape.org/namespaces/inkscape"
   sodipodi:docname="mountain_background_02.svg"
   inkscape:version="0.92.4 (5da689c313, 2019-01-14)"
   id="svg8"
   version="1.1"
   viewBox="0 0 297 210"
   height="210mm"
   width="297mm">
  <sodipodi:namedview
     inkscape:window-maximized="1"
     inkscape:window-y="27"
     inkscape:window-x="70"
     inkscape:window-height="1136"
     inkscape:window-width="1850"
     showgrid="false"
     inkscape:current-layer="layer1"
     inkscape:document-units="mm"
     inkscape:cy="445.74252"
     inkscape:cx="292.97081"
     inkscape:zoom="2"
     inkscape:pageshadow="2"
     inkscape:pageopacity="0.0"
     borderopacity="1.0"
     bordercolor="#666666"
     pagecolor="#ffffff"
     id="base" />
  <defs
     id="defs2" />
  <metadata
     id="metadata5">
    <rdf:RDF>
      <cc:Work
         rdf:about="">
        <dc:format>image/svg+xml</dc:format>
        <dc:type
           rdf:resource="http://purl.org/dc/dcmitype/StillImage" />
        <dc:title></dc:title>
      </cc:Work>
    </rdf:RDF>
  </metadata>
  <g
     id="layer1"
     inkscape:groupmode="layer"
     inkscape:label="Layer 1"
     transform="translate(0,-87)">
    <path
       sodipodi:nodetypes="cssssssssssssssssssscssssssscssssssssssssccccc"
       inkscape:connector-curvature="0"
       id="path5039"
       d="m 0.46586471,195.37102 c 0.4667793,-0.54683 1.02107999,-1.03177 1.60212369,-1.51744 0.581043,-0.48567 1.1888292,-0.7713 1.7625795,-1.16942 0.5737494,-0.39813 1.1134636,-1.07126 1.5583622,-1.35547 0.4448994,-0.2842 0.7949839,0.21673 0.9894753,0.0728 0.1944921,-0.1439 0.5251272,-0.19604 0.9311282,-0.48564 0.4060009,-0.28961 0.8873674,-0.78459 1.3833202,-1.13715 0.4959537,-0.35256 1.0064936,-1.18997 1.4708422,-1.52274 0.464348,-0.33277 0.882505,-0.81409 1.193691,-1.04434 0.311187,-0.23024 0.70017,-0.51165 1.115896,-0.85222 0.415725,-0.34057 0.858193,-0.049 1.27635,-0.40395 0.418156,-0.35496 0.812002,-0.63393 1.130481,-0.90734 0.31848,-0.27341 0.561595,-1.34407 0.678289,-1.44 0.116695,-0.0959 0.515403,0.30533 1.069703,-0.10299 0.554301,-0.40832 1.264195,-0.74332 2.003263,-1.29255 0.739068,-0.54922 1.507309,-1.37152 2.178304,-1.89017 0.670997,-0.51864 1.244745,-0.82184 1.59483,-1.13842 0.350084,-0.31659 0.78769,-1.41198 1.266625,-1.85927 0.478936,-0.44729 0.9992,-0.38248 1.514603,-0.85736 0.515403,-0.47487 1.025943,-0.73765 1.48543,-1.13698 0.459485,-0.39933 0.867917,-0.60938 1.179104,-0.83003 0.311186,-0.22064 0.583475,-1.46015 0.829021,-1.71198 0.245545,-0.25183 0.464346,-0.64413 0.668563,-0.88396 0.204216,-0.23984 0.393845,0.19692 0.581042,0.0122 0.187198,-0.18467 0.371966,-0.006 0.566457,-0.0919 0.194492,-0.0863 0.457056,-0.65885 0.746363,-0.55273 0.289306,0.10613 0.605355,1.10221 0.906816,1.29647 0.301462,0.19427 0.588337,-0.0175 0.819296,0.16054 0.230959,0.17808 0.406,0.64312 0.483797,0.70068 0.07779,0.0576 0.291737,0.18046 0.573749,0.5708 0.282013,0.39033 0.632097,0.78417 0.982182,1.3286 0.350085,0.54443 0.70017,1.15306 0.982183,1.67291 0.282011,0.51984 0.495952,0.13657 0.573749,0.45316 0.07779,0.31658 0.427881,2.02016 0.918972,2.66172 0.491092,0.64156 1.123189,0.5194 1.765011,1.2629 0.641822,0.74349 1.293369,2.3559 1.823358,2.97827 0.52999,0.62238 0.938421,0.0789 1.094015,0.3571 0.155593,0.27821 0.690444,0.67554 1.419787,1.20438 0.729342,0.52884 1.653177,1.74631 2.586736,2.36509 0.93356,0.61877 1.876842,1.70137 2.645085,2.2494 0.768241,0.54802 1.36144,0.55739 1.594829,0.87397 0.93356,1.26634 2.800677,5.28104 3.734237,5.7799 0.933559,0.49886 4.978982,1.05597 4.978982,1.05597 0,0 -46.989142,-0.63097 -46.989142,-0.63097 0,0 -19.60474,0.21828 -19.60474,0.21828 0,0 7.93525171,-2.37871 7.93525171,-2.37871"
       style="opacity:0.594;fill:#000000;stroke:#000000;stroke-width:0.10817842px;stroke-linecap:butt;stroke-linejoin:miter;stroke-opacity:1" />
  </g>
</svg>
