<?xml version="1.0" encoding="UTF-8" standalone="no"?>
<!-- Created with Inkscape (http://www.inkscape.org/) -->

<svg
   xmlns:dc="http://purl.org/dc/elements/1.1/"
   xmlns:cc="http://creativecommons.org/ns#"
   xmlns:rdf="http://www.w3.org/1999/02/22-rdf-syntax-ns#"
   xmlns:svg="http://www.w3.org/2000/svg"
   xmlns="http://www.w3.org/2000/svg"
   xmlns:sodipodi="http://sodipodi.sourceforge.net/DTD/sodipodi-0.dtd"
   xmlns:inkscape="http://www.inkscape.org/namespaces/inkscape"
   width="210mm"
   height="297mm"
   viewBox="0 0 210 297"
   version="1.1"
   id="svg30"
   inkscape:version="0.92.4 (5da689c313, 2019-01-14)"
   sodipodi:docname="star.svg">
  <defs
     id="defs24" />
  <sodipodi:namedview
     id="base"
     pagecolor="#ffffff"
     bordercolor="#666666"
     borderopacity="1.0"
     inkscape:pageopacity="0.0"
     inkscape:pageshadow="2"
     inkscape:zoom="0.35"
     inkscape:cx="714.68302"
     inkscape:cy="586.04444"
     inkscape:document-units="mm"
     inkscape:current-layer="layer1"
     showgrid="false"
     inkscape:window-width="1850"
     inkscape:window-height="1016"
     inkscape:window-x="70"
     inkscape:window-y="27"
     inkscape:window-maximized="1" />
  <metadata
     id="metadata27">
    <rdf:RDF>
      <cc:Work
         rdf:about="">
        <dc:format>image/svg+xml</dc:format>
        <dc:type
           rdf:resource="http://purl.org/dc/dcmitype/StillImage" />
        <dc:title></dc:title>
      </cc:Work>
    </rdf:RDF>
  </metadata>
  <g
     inkscape:label="Layer 1"
     inkscape:groupmode="layer"
     id="layer1"
     style="opacity:1">
    <path
       style="opacity:0.8;fill:#f9f9f9;stroke:#000000;stroke-width:0.68661559px;stroke-linecap:butt;stroke-linejoin:miter;stroke-opacity:1"
       d="m 0.15392261,89.776209 1.84199039,-3.140244 4.1422694,0.547149 -0.273037,1.847093 3.9719365,-0.415113 0.9653171,-2.090745 3.056752,-2.837095 -1.081965,2.187267 3.635399,-0.495106 1.692721,-0.01814 1.054075,-0.427649 2.495972,-1.558857 1.00101,-2.050178 2.437984,-0.250156 1.835245,-1.488244 2.003752,-0.187777 3.615995,1.401978 0.18673,-4.289146 0.938371,2.300596 2.24747,0.379394 0.927343,-3.419092 4.030772,3.233571 0.186876,-3.092845 3.377088,-1.357216 2.218661,2.274155 -0.359142,-4.793172 3.702991,1.709114 0.510403,-1.066439 1.580556,-1.094989 2.22177,-0.683165 3.228995,-0.476433 1.063433,-0.240277 0.692527,-0.08922 1.245088,-3.983893 -0.137884,0.03969 -1.034155,-0.43965 -3.12259,-2.784283 -0.121748,-2.378804 0.400419,-0.264232 -1.230301,-0.137802 0.460061,-2.876478 -1.019751,-0.129791 -0.988242,-4.387956 1.169016,-0.902594 -1.481073,-0.254311 -0.679941,-1.486989 -1.416327,-1.159273 0.522725,-2.13527 -0.811604,-1.750876 -2.270412,-1.215827 -1.104008,-1.947001 -0.662134,0.07741 0.373225,-2.407268 -1.668653,-0.793616 1.484711,-0.339256 -1.486648,-2.079933 -0.956235,-1.948378 0.646585,-2.616151 -2.024511,-1.384847 -1.103506,-0.677285 0.438234,-1.54247 -2.97749,-3.838226 v 0 l 1.621186,0.364053 -2.627677,-2.659004 3.065883,-0.809074 1.318078,2.252257 0.217678,3.108866 2.215406,-0.860937 2.832155,-2.33449 3.292538,3.351844 0.594982,0.599762 0.289848,0.154422 4.542349,1.505496 1.125628,-0.364113 -0.747592,3.698476 4.52017,-0.908104 1.303997,-1.718999 -0.144925,3.551663 3.416663,-0.480449 0.434479,0.523568 1.782951,2.105377 2.448105,-0.421528 2.816253,3.63576 -0.648109,0.29453 4.30431,-3.199531 1.971615,5.155897 2.173483,-2.304062 1.368713,1.029667 1.940019,1.915285 -0.838858,-0.315646 2.880061,2.106755 3.369109,-1.942639 -1.319956,3.959697 2.946248,-2.282997 1.770628,3.281556 3.694894,-1.807277 -0.359084,-1.666378 -0.408164,-1.133872 1.514077,-1.419124 2.057485,0.428964 -0.556053,-1.151682 4.085403,-2.467814 0.26108,1.244798 -0.80243,-3.538484 0.81506,-1.457209 3.11616,-0.03727 0.33749,-2.600666 2.94758,-2.392501 -1.4621,-1.219479 1.32517,-0.242693 2.47781,-1.899739 -1.33235,-0.774466 4.09311,0.06341 0.0599,-3.091229 -0.20564,-0.465067 3.22249,-1.135866 0.55364,-2.495776 1.33394,0.263452 -1.04952,-0.733483 3.87446,-0.5771 -1.85505,-3.533415 0.97196,-1.487827 1.97351,0.830399 1.25679,-5.3805477 2.13415,1.7985918 0.6379,-3.7121849 0.20888,-0.7454801 1.71466,-2.3257556 -0.92995,3.0006521 0.72292,1.5097022 1.46441,0.1958115 0.31947,2.4901295 -0.25141,2.7828102 -0.10881,-0.977967 2.20175,1.804484 -0.26756,3.910895 1.54207,-1.316586 -2.24192,3.935008 1.81128,0.239245 -1.29778,1.998328 0.5449,1.036095 0.3463,2.280391 3.19852,3.796563 -1.03425,1.025968 -1.37061,1.674903 1.70405,-0.129217 0.36584,2.368446 1.27102,1.162612 -0.8498,2.137218 -0.15724,1.362235 1.26365,-0.11457 -0.91285,3.560542 0.90837,0.855429 1.95442,2.303249 -0.76125,-0.649564 0.56823,0.787316 -1.01538,3.523392 2.77864,-0.847025 -0.33256,3.064533 -0.89955,4.135712 3.89336,-3.632122 2.83379,0.699611 1.03402,1.7e-5 2.99312,1.177846 2.04913,-3.329604 -1.10117,2.867259 4.82445,-0.478211 -0.41849,-7e-4 3.9572,0.07826 0.0446,0.426451 4.53305,-1.269469 1.73487,-0.48951 1.32116,1.551199 1.3076,-2.605544 2.3601,0.442274 2.91269,-0.134886 -0.98385,-1.468845 3.19995,2.718573 1.43035,-2.574605 3.42449,2.352196 1.7161,-0.784099 0.85085,-1.687129 2.96954,1.366162 1.30538,-1.421711 2.71712,1.863788 2.22006,-2.866072 2.05049,1.574917 1.50467,1.003056 2.08194,-1.948846 0.99373,0.317723 2.22465,-1.190336 1.32925,-1.589648 0.96817,3.023963 -1.71329,0.917708 -2.36477,-1.069123 -0.0989,4.991552 -1.58021,-0.62449 -1.90681,1.068921 -1.63851,1.773293 0.58908,3.373133 -2.69234,-0.223402 0.17162,1.936601 -2.85745,0.458062 -1.57407,0.300249 0.60444,0.273149 -4.13302,2.544832 0.70579,2.570448 -2.45263,-2.824524 0.27958,2.184023 -2.11131,3.653256 -1.52939,-0.104244 -1.40759,0.956357 -2.49534,1.985029 0.55057,1.805945 -3.59597,1.668996 0.7989,-0.176481 -0.1505,1.788289 -3.49672,1.524091 -0.62919,0.04321 -2.07879,1.85808 -1.74613,0.723386 1.06096,2.267896 -2.83009,0.901878 0.098,-0.575722 -0.2702,1.294267 3.47725,0.801106 -1.59533,0.97032 4.68315,2.613939 -1.87568,1.155131 2.97262,1.710992 1.03539,0.181854 2.0224,1.883266 0.66592,-0.691907 0.50404,1.601751 2.74388,1.832792 2.12621,1.933467 0.8013,-0.167461 1.22495,2.382861 1.60866,-1.17541 0.0684,2.05042 1.17712,2.73577 3.83366,1.03416 -0.36161,-0.5134 2.85844,1.29965 0.13642,2.07007 3.46533,-1.44656 -1.48295,2.07666 1.90567,1.92223 1.37763,1.00047 3.42104,0.77754 1.82986,1.84731 -0.65621,0.58024 3.66913,0.57614 -0.43776,1.99908 1.03174,0.85429 1.75717,2.31803 -3.26874,-1.17782 0.97075,0.74923 -4.76586,-1.358 -1.13013,0.97907 -0.6033,-0.19501 -4.35019,0.19374 -1.79499,0.79518 0.51278,-1.71228 -3.17173,0.32146 -3.87857,-0.24641 -0.54077,-1.41728 -3.23025,1.58129 -1.04757,1.11132 -2.93477,-1.50165 -1.15321,0.26838 0.0328,-1.35703 -4.44794,-0.46276 -1.8442,1.03781 -1.12877,1.54967 -3.37127,-0.9667 0.0584,-1.12794 -3.62321,0.21912 -0.98664,1.97913 -1.13345,-3.1295 -2.77974,-0.17808 -3.88661,3.35983 -0.0542,-1.31932 -3.44183,-1.37374 -0.28223,0.30776 -2.4345,0.0544 -2.06247,-0.64799 -1.0519,0.47489 -2.12335,2.18458 0.59174,0.9258 -0.2834,2.33327 -1.39224,2.17018 1.70626,0.0909 -0.47687,1.1595 0.355,4.10351 -1.29619,1.22163 0.5454,2.11819 -1.36578,-0.4436 0.0177,1.64144 0.2162,1.16244 0.53265,3.70925 -1.82585,0.10807 1.18723,-1.07868 -2.65303,1.70273 2.8451,4.057 -1.72364,2.15421 -0.11381,-0.14989 0.41579,0.79706 0.0781,2.06497 -0.25435,2.15828 -1.572,1.33248 -0.69841,3.15445 -0.0235,-0.69593 1.22683,1.65494 -2.19766,4.82485 2.04036,-1.22677 -0.0939,2.0677 -3.05673,1.35583 2.43725,0.73157 -0.5605,2.97519 -2.33305,-2.74568 -1.83522,1.6252 -0.0907,-4.07675 -0.47669,-0.6524 -3.09196,0.34726 -1.74321,-1.59815 1.15028,-0.97988 -0.41867,-2.79032 -4.49725,-1.01315 -0.009,-0.0522 -1.60634,-2.68299 -1.50544,0.47792 -0.97963,-4.0874 0.88974,2.06638 -0.62065,-2.58253 -3.78729,-2.1005 1.41277,-0.53129 -4.54835,-3.16963 -1.10671,-1.0286 -1.18331,-0.21319 -1.18362,-1.966 1.67153,-2.30278 -3.05315,2.20292 -1.21331,-3.90996 0.31275,1.07227 -2.59449,-2.94032 -1.95809,1.48738 0.94884,-3.92006 -2.98133,-1.04397 -0.51562,1.21378 0.86931,-3.83152 -3.76355,-0.10837 -0.70602,1.75753 -0.697837,0.0124 -3.754273,0.68914 -1.559491,-0.24024 -1.205101,2.34158 -0.403527,1.25105 -2.451363,-0.52452 -1.213051,0.83813 -1.247787,0.75087 -3.584471,1.17603 0.705758,-1.12842 -3.023313,0.53532 -2.14136,1.07071 -0.640922,4.2176 -1.686316,-0.31237 -2.993946,-2.58367 -1.027263,4.13441 -1.759186,-0.52141 -2.867741,2.15668 0.783824,0.28747 -3.297498,1.31779 -1.41172,1.52517 -2.28244,1.29114 -2.597137,0.6085 -0.447447,-0.22152 -2.139744,-0.30355 -2.542718,3.57162 0.224427,-1.45949 -3.313836,2.04936 -2.552985,-1.30806 1.572486,2.91214 -4.983165,0.99373 3.652385,-1.23313 -1.52546,-3.16289 1.442496,-1.39184 -0.312967,-2.58064 1.554886,-0.25878 -1.756518,-0.27351 1.104241,-2.53717 1.414186,-4.2204 1.89217,1.03668 0.658056,-1.85557 -0.81803,-3.42092 -0.960256,-1.16719 1.069682,-0.85653 -0.200958,-2.25365 2.604267,-0.35033 -0.415353,-2.19532 0.542264,0.004 1.347033,0.74542 1.315673,-4.55648 -1.47685,-1.25412 1.384027,-2.02769 -0.54684,1.47224 0.306483,-4.84887 1.166904,1.51395 1.738036,-4.75553 1.447452,0.37068 0.643388,-3.86118 -2.317057,-0.17604 2.520831,-2.21289 0.130843,-0.30062 0.143457,0.18105 1.675196,-1.4849 -3.842049,-2.27369 -1.750532,0.66812 -2.82397,-1.85848 -0.620446,0.28544 -1.626203,0.8479 -0.395432,-3.59139 -1.705706,-0.3622 -3.545364,0.37439 -1.481219,-0.57409 -0.642713,-0.78676 -1.663725,-1.317842 -4.987684,1.260652 -0.299764,-2.789691 -3.250732,0.789694 -1.592409,-1.275643 -1.062051,0.55205 -2.164288,0.101121 -1.9901,-1.514943 -0.201074,-1.215922 -3.461079,-1.549042 -1.74153,1.848853 -2.398978,-2.231601 -0.405696,-1.006395 -3.592234,3.191843 -2.365777,-3.10842 -0.06524,1.22431 -3.4798061,0.994449 -0.030687,-2.719692 -1.9791928,-0.908897 -3.9555062,-2.12864 -1.6670161,0.04697 -1.98551239,0.630317"
       id="path52"
       inkscape:connector-curvature="0"
       sodipodi:nodetypes="ccccccccccccccccccccccccccccccccccccccccccccccccccccccccccccccccccccccccccccccccccccccccccccccccccccccccccccccccccccccccccccccccccccccccccccccccccccccccccccccccccccccccccccccccccccccccccccccccccccccccccccccccccccccccccccccccccccccccccccccccccccccccccccccccccccccccccccccccccccccccccccccccccccccccccccccccccccccccccccccccccccccccccccccccccccccccccccccccccccccccccccccccccccccccccccccccccccccccccccccccccccccccccccccccccccccccccccccccccccccccccccccccc" />
    <path
       style="opacity:0.8;fill:#ececec;fill-opacity:1;stroke-width:0.24521986"
       d="m 134.76857,164.96454 c 0,-1.99078 -0.24496,-2.20095 -2.34063,-2.00822 -1.39354,0.12817 -1.5412,0.0971 -2.07891,-0.43786 -0.53822,-0.53539 -0.54702,-0.60333 -0.12522,-0.96802 0.37718,-0.32612 0.42033,-0.67011 0.25608,-2.04166 -0.11136,-0.93026 -0.33755,-1.68527 -0.51866,-1.73164 -0.17665,-0.0452 -1.2269,-0.28719 -2.33393,-0.53773 l -2.01278,-0.45555 -0.80502,-1.38922 c -0.73129,-1.26202 -0.87697,-1.38526 -1.59102,-1.34586 -0.7403,0.0409 -0.78647,-0.007 -0.79384,-0.82428 -0.004,-0.47723 -0.10961,-1.38035 -0.23402,-2.00696 -0.2142,-1.07893 -0.31439,-1.18768 -1.89129,-2.0532 -1.52587,-0.83753 -1.6164,-0.93095 -1.08275,-1.11728 0.32027,-0.11181 0.58232,-0.26172 0.58232,-0.33311 0,-0.0714 -1.00552,-0.81191 -2.23451,-1.64557 -1.22897,-0.83368 -2.66859,-1.8829 -3.19916,-2.33159 -0.53056,-0.44871 -1.14875,-0.81583 -1.37378,-0.81583 -0.22501,0 -0.62262,-0.3503 -0.88354,-0.77843 -0.46653,-0.76552 -0.46194,-0.79673 0.27664,-1.88055 0.57907,-0.84975 0.6787,-1.17034 0.43506,-1.40005 -0.26091,-0.24599 -0.46541,-0.19035 -1.17314,0.31922 -1.80891,1.30246 -1.7191,1.32189 -2.23224,-0.48289 -0.29315,-1.03097 -0.60041,-1.63404 -0.83261,-1.63404 -0.20243,0 -0.76828,-0.48808 -1.25746,-1.08458 -0.4892,-0.59653 -0.96018,-1.08459 -1.04665,-1.08459 -0.0864,0 -0.40293,0.17081 -0.7033,0.37961 -0.59208,0.41155 -0.59211,0.42458 0.006,-1.95221 0.1389,-0.55202 0.032,-0.63732 -1.43423,-1.14471 l -1.5843,-0.54825 0.19319,-1.13291 c 0.10623,-0.62309 0.21105,-1.23051 0.23287,-1.34982 0.0232,-0.1261 -0.9544,-0.24291 -2.33459,-0.279 l -2.374284,-0.0621 -0.259251,0.82129 c -0.248336,0.78665 -0.335282,0.83712 -2.061167,1.19655 -1.058123,0.22035 -2.318838,0.33196 -3.054238,0.27036 l -1.252329,-0.10493 -0.806059,1.68188 c -0.44333,0.92503 -0.834878,1.7134 -0.870103,1.75193 -0.03523,0.0385 -0.527968,-0.0302 -1.094994,-0.15269 -0.972583,-0.21014 -1.103545,-0.17532 -2.31303,0.61496 -0.705142,0.46077 -1.757236,0.99056 -2.337993,1.17735 -1.038422,0.33397 -1.052821,0.33197 -0.86896,-0.12133 0.138469,-0.34139 0.08695,-0.4309 -0.198671,-0.34513 -0.212106,0.0637 -1.130908,0.23409 -2.041807,0.37867 -0.910902,0.14461 -2.234286,0.54945 -2.940865,0.89965 l -1.28468,0.63675 -0.197174,1.85205 c -0.264385,2.4835 -0.531839,2.52957 -2.904133,0.50024 -2.085307,-1.78386 -1.930018,-1.81874 -2.50722,0.56309 -0.507818,2.0955 -0.512295,2.10206 -1.340778,1.963 -0.613466,-0.10294 -1.034056,0.0831 -2.486722,1.0998 -0.961604,0.67305 -1.687285,1.34827 -1.612629,1.5005 0.07907,0.16121 -0.226392,0.39415 -0.73159,0.5579 -0.477025,0.1546 -1.699587,0.93104 -2.716797,1.7254 -2.12851,1.66223 -3.793518,2.26528 -5.312963,1.92429 -1.863561,-0.4182 -2.386381,-0.28695 -3.038128,0.76274 -0.329685,0.53099 -0.688148,0.92252 -0.796574,0.87009 -0.108431,-0.0524 -0.975698,0.39163 -1.927257,0.98682 -0.951548,0.59519 -1.796829,1.08216 -1.878401,1.08216 -0.251534,0 -2.830402,-1.3391 -2.830402,-1.46971 0,-0.0676 0.208733,-0.30348 0.463867,-0.52408 0.344715,-0.29804 0.446492,-0.73427 0.396215,-1.69818 -0.06178,-1.1843 -0.01789,-1.2971 0.506388,-1.2971 0.38923,0 0.574044,-0.13966 0.574044,-0.43384 0,-0.23862 -0.179747,-0.43383 -0.399467,-0.43383 -0.705292,0 -0.74276,-0.38773 -0.182709,-1.89091 0.301487,-0.80922 0.748393,-2.0379 0.99313,-2.73039 l 0.444977,-1.2591 0.93587,0.4526 0.935879,0.45259 0.44759,-1.20476 c 0.405862,-1.09244 0.408408,-1.3664 0.02729,-2.93844 -0.231175,-0.95352 -0.606403,-2.01528 -0.83387,-2.35947 -0.357303,-0.54067 -0.359849,-0.6607 -0.01878,-0.8822 0.222904,-0.14477 0.430957,-0.74369 0.477824,-1.37551 0.06868,-0.9264 0.178488,-1.13028 0.637442,-1.18384 1.888835,-0.22045 1.875329,-0.21009 1.670193,-1.2805 l -0.190866,-0.99588 0.758043,0.46658 c 0.416915,0.25661 0.79596,0.43689 0.842315,0.40063 0.04637,-0.0363 0.422109,-1.26008 0.835016,-2.71955 l 0.750747,-2.65359 -0.763902,-0.6239 c -0.664131,-0.54242 -0.705897,-0.64931 -0.319773,-0.8184 0.538685,-0.23589 1.064192,-1.52407 0.69465,-1.70278 -0.328916,-0.15905 -0.335709,-1.33631 -0.0086,-1.49449 0.136504,-0.066 0.326549,0.0398 0.422348,0.23517 0.28011,0.57115 0.523171,0.18141 1.417228,-2.27253 0.825969,-2.26703 0.860337,-2.31502 1.657928,-2.31502 0.811462,0 0.815698,-0.007 1.143717,-1.84378 0.500449,-2.80266 0.503725,-2.78217 -0.456583,-2.86041 l -0.834335,-0.0679 1.93647,-1.62687 c 1.065055,-0.89479 1.939483,-1.6957 1.943168,-1.77982 0.0039,-0.0841 -0.989396,-0.74627 -2.206851,-1.47144 l -2.213554,-1.31851 -0.849625,0.34379 c -0.842278,0.34085 -0.861643,0.33589 -2.256252,-0.57777 l -1.406688,-0.92155 -0.834791,0.37489 c -0.459132,0.20618 -0.883299,0.33692 -0.942593,0.29052 -0.05929,-0.0464 -0.185173,-0.73277 -0.279757,-1.52527 l -0.172056,-1.44093 -1.070969,-0.22566 c -0.681839,-0.14365 -1.719145,-0.1577 -2.854938,-0.0386 -2.098151,0.21996 -2.262034,0.16517 -4.154342,-1.38929 l -1.403511,-1.152929 -2.079121,0.532769 c -1.143515,0.293025 -2.160437,0.53407 -2.259814,0.53567 -0.0994,0.001 -0.267581,-0.582773 -0.373743,-1.298596 -0.106176,-0.715825 -0.286006,-1.301501 -0.399645,-1.301501 -0.113619,0 -0.895819,0.185549 -1.738197,0.412331 l -1.531908,0.412248 -0.830662,-0.649981 c -0.812122,-0.635474 -0.849744,-0.642252 -1.686022,-0.303869 -0.470442,0.19037 -1.212446,0.346112 -1.648909,0.346112 -0.990381,0 -2.205664,-0.943325 -2.450789,-1.902341 -0.147494,-0.577072 -0.50174,-0.839978 -2.108399,-1.564802 -1.062114,-0.479151 -1.981747,-0.871186 -2.043633,-0.871186 -0.06187,0 -0.462828,0.378399 -0.890983,0.840891 l -0.7781,0.840944 -0.900111,-0.838926 c -0.495064,-0.461409 -1.037282,-1.15705 -1.204943,-1.545867 -0.167652,-0.388819 -0.357364,-0.754417 -0.421589,-0.81244 -0.06419,-0.058 -0.950765,0.612203 -1.970108,1.489378 l -1.853041,1.594865 -1.210634,-1.655661 c -0.665851,-0.910621 -1.320124,-1.708613 -1.453941,-1.773326 -0.133818,-0.06471 -0.243309,0.352518 -0.243309,0.927197 0,1.041743 -0.0039,1.04591 -1.247469,1.395874 l -1.24748,0.351016 v -1.158461 -1.15846 L 8.0812004,90.8478 C 6.8614471,90.235557 5.8634719,89.657788 5.8634719,89.563877 c 0,-0.09391 0.8325963,-0.240528 1.850209,-0.325801 1.0176213,-0.08529 2.0066313,-0.20201 2.1978108,-0.259413 0.1911713,-0.05739 0.5709683,-0.590458 0.8439983,-1.18456 0.273025,-0.594105 0.625048,-1.161727 0.782269,-1.261376 0.157219,-0.09965 1.470963,-0.29713 2.919417,-0.438836 1.448454,-0.141705 3.028793,-0.301351 3.511857,-0.354776 1.328491,-0.146915 4.016668,-1.881885 4.540678,-2.930577 0.49299,-0.98663 0.920959,-1.266844 1.942174,-1.271635 0.441025,-0.0026 1.061484,-0.288724 1.645578,-0.760273 1.392016,-1.123804 2.302257,-1.170103 4.668954,-0.237503 1.085251,0.427647 2.038672,0.777538 2.118715,0.777538 0.08003,0 0.145539,-0.540301 0.145539,-1.200673 0,-1.074831 0.05084,-1.179776 0.485128,-1.001316 0.266819,0.109637 1.000816,0.266165 1.631111,0.347821 l 1.145975,0.148454 0.330973,-1.153625 c 0.182035,-0.634491 0.388608,-1.293741 0.459049,-1.464998 0.08682,-0.21103 0.79449,0.206623 2.196154,1.296071 l 2.068099,1.607444 0.0023,-0.753778 c 0.0016,-0.414577 0.0819,-1.271827 0.179101,-1.904995 0.170125,-1.108364 0.22522,-1.170453 1.480815,-1.668311 l 1.304115,-0.5171 1.311052,1.397168 c 0.721078,0.768445 1.381786,1.397166 1.46823,1.397166 0.08645,0 0.07064,-1.132317 -0.0351,-2.516264 l -0.192244,-2.516256 1.502087,0.672469 c 1.676977,0.750764 2.12765,0.82442 2.12765,0.347724 0,-0.178617 0.432036,-0.69894 0.960079,-1.156286 1.001353,-0.867289 1.766645,-1.104533 6.233234,-1.932331 l 2.064813,-0.38267 0.624667,-1.952253 c 0.343556,-1.073737 0.697926,-2.179665 0.787475,-2.457616 0.139851,-0.433993 0.0819,-0.485279 -0.410044,-0.3631 -0.44947,0.111633 -0.874343,-0.106605 -1.972361,-1.013046 -2.057721,-1.698704 -2.804275,-3.414164 -1.776332,-4.081708 0.529567,-0.343907 0.284452,-0.652729 -0.518048,-0.652729 -0.597862,0 -0.617354,-0.05289 -0.419699,-1.138812 0.320795,-1.762472 0.300298,-1.898021 -0.287004,-1.898021 -0.423917,0 -0.594209,-0.236082 -0.821444,-1.138809 -0.709007,-2.816626 -0.711253,-2.746717 0.109928,-3.417396 l 0.7628,-0.623006 -0.936422,-0.188602 c -0.636853,-0.128255 -1.058559,-0.39279 -1.318105,-0.826827 -0.209905,-0.351032 -0.682564,-0.891576 -1.050347,-1.201205 -0.611797,-0.515078 -0.644693,-0.646749 -0.386652,-1.547709 0.416288,-1.453502 -0.230499,-2.787285 -1.771516,-3.653242 -1.523941,-0.856356 -2.795599,-2.872334 -2.552186,-4.046013 0.122334,-0.589875 0.04528,-0.852097 -0.312882,-1.065017 -0.44478,-0.264399 -0.442515,-0.282899 0.03539,-0.289354 0.450866,-0.006 0.400097,-0.165441 -0.434125,-1.362627 -1.728248,-2.480247 -1.879266,-2.93828 -1.472099,-4.464999 l 0.359506,-1.348043 -1.518786,-1.015297 c -1.414,-0.945251 -1.508012,-1.067247 -1.362646,-1.768195 0.126208,-0.608496 -0.03665,-1.005591 -0.848998,-2.070499 -0.55283,-0.724686 -1.066135,-1.405051 -1.140688,-1.511929 -0.07522,-0.107846 0.191247,-0.130158 0.598835,-0.05011 0.403915,0.07933 0.734393,0.08301 0.734393,0.008 0,-0.07483 -0.638935,-0.764356 -1.419852,-1.532281 -0.780909,-0.767917 -1.373466,-1.42615 -1.316777,-1.462738 0.05665,-0.03656 0.496327,-0.170226 0.976976,-0.296983 0.868605,-0.229056 0.877432,-0.223815 1.455387,0.86439 0.411162,0.774327 0.581392,1.562659 0.581392,2.692796 0,0.954961 0.115268,1.597951 0.286417,1.597951 0.704692,0 3.009324,-1.134779 4.12037,-2.028835 l 1.218804,-0.980769 1.872769,1.884402 c 1.863171,1.874758 1.886526,1.888823 4.560724,2.747477 l 2.687961,0.863067 -0.180598,1.065362 c -0.09934,0.585951 -0.250682,1.339517 -0.336329,1.674595 l -0.15572,0.609218 2.94258,-0.602464 2.942583,-0.602465 v 1.018284 1.018282 l 1.178164,-0.178342 c 2.300674,-0.348257 2.48299,-0.296066 3.534506,1.011793 l 0.970258,1.206788 1.303293,-0.129401 1.303299,-0.129401 1.030784,1.253344 c 0.566932,0.689335 1.061584,1.448568 1.099247,1.687178 0.03764,0.238606 0.07886,0.507043 0.09156,0.59652 0.06498,0.457333 0.968695,0.02886 2.402085,-1.138814 0.878709,-0.715823 1.677184,-1.3015 1.77438,-1.3015 0.09719,0 0.593022,1.122545 1.101824,2.494539 0.508804,1.371997 1.000311,2.492436 1.092246,2.48986 0.09195,-0.0026 0.665815,-0.549202 1.275283,-1.214745 l 1.108142,-1.210066 1.040284,0.917268 c 0.572166,0.504497 1.040295,1.030069 1.040295,1.167928 0,0.137849 0.684388,0.77953 1.520866,1.425928 l 1.520865,1.175265 1.25129,-0.690145 c 0.688214,-0.37958 1.249163,-0.618948 1.246548,-0.531924 -0.0023,0.08702 -0.24998,0.890308 -0.549679,1.785085 -0.299715,0.894785 -0.54707,1.72167 -0.549686,1.837524 -0.0023,0.115857 0.787984,-0.404134 1.756881,-1.155536 l 1.761629,-1.366187 0.780287,1.436598 c 0.429164,0.790128 0.877409,1.483559 0.996097,1.540961 0.162292,0.07849 3.727671,-1.541497 4.364711,-1.983184 0.05518,-0.03827 -0.04183,-0.708676 -0.215655,-1.48976 -0.275152,-1.236343 -0.255936,-1.491972 0.148532,-1.974974 0.255524,-0.305146 0.624395,-0.506829 0.819721,-0.448175 0.195325,0.05867 0.820729,0.174967 1.389794,0.258514 0.94044,0.138055 1.01509,0.114526 0.81988,-0.258429 -0.52089,-0.995115 -0.46332,-1.111297 1.00464,-2.026854 1.14366,-0.713309 1.49727,-0.842915 1.56667,-0.574233 0.0984,0.380861 0.29477,0.424967 0.79152,0.177746 0.24879,-0.123801 0.23177,-0.550003 -0.0713,-1.786242 -0.30496,-1.244153 -0.32488,-1.763063 -0.0852,-2.220161 0.29053,-0.554039 0.42731,-0.596523 1.92041,-0.596523 h 1.6076 l 0.19952,-1.45794 c 0.18942,-1.384085 0.27481,-1.519685 1.68535,-2.676839 1.57268,-1.290138 1.70899,-1.523931 1.11382,-1.910441 -0.2976,-0.19324 -0.0117,-0.524078 1.43228,-1.653432 1.57548,-1.23278 1.93535,-1.411841 2.83754,-1.411841 h 1.03324 l 0.19464,-1.924368 0.19465,-1.924367 1.42746,-0.515939 c 1.38039,-0.498927 1.43492,-0.552729 1.65303,-1.631107 0.18445,-0.911875 0.314,-1.097067 0.71073,-1.015888 0.31991,0.06545 0.59119,-0.08276 0.79634,-0.43508 0.24913,-0.427841 0.59126,-0.564511 1.71622,-0.685577 0.77279,-0.08316 1.40507,-0.192267 1.40507,-0.242455 0,-0.05016 -0.43293,-0.931347 -0.96206,-1.958136 -0.73543,-1.427111 -0.8964,-1.962911 -0.68329,-2.274484 0.33769,-0.493741 0.3498,-0.494267 1.41868,-0.06175 0.89177,0.360842 1.32088,0.189473 1.33128,-0.531658 0.002,-0.161857 0.2109,-1.178169 0.46349,-2.2584796 l 0.45926,-1.9641923 1.02967,0.9448618 c 1.17362,1.0769512 1.20293,1.0536767 1.51079,-1.2000705 0.2802,-2.0511972 0.39281,-2.2168806 0.93229,-1.3715612 0.26591,0.4166662 0.70764,0.7484643 1.04687,0.7863452 0.48432,0.054056 0.61708,0.2625032 0.75994,1.1930378 0.25939,1.6896866 0.22597,2.1524805 -0.14258,1.9742494 -0.23024,-0.1113418 -0.26925,0.045434 -0.13861,0.5566034 0.10002,0.39138 0.18188,0.906002 0.18188,1.14361 0,0.32754 0.13626,0.404136 0.56349,0.316717 0.39053,-0.07992 0.69602,0.04294 0.9952,0.400235 0.54144,0.646603 0.47534,5.080584 -0.0894,5.998509 -0.57923,0.941418 -0.46298,1.258039 0.46191,1.258039 h 0.8223 l -0.5834,0.773717 c -0.4994,0.66229 -0.54068,0.888784 -0.28666,1.572647 0.16321,0.439412 0.3861,1.285321 0.49531,1.879805 0.14425,0.785313 0.60882,1.563258 1.69887,2.844958 l 1.50033,1.764078 -1.26426,1.41515 c -0.69535,0.778334 -1.26435,1.499163 -1.26443,1.601833 -1.2e-4,0.102676 0.46769,0.186674 1.03954,0.186674 1.03497,0 1.04044,0.0048 1.19173,1.034793 0.0942,0.640963 0.37451,1.208927 0.73672,1.492336 0.54458,0.426136 0.5599,0.526358 0.22325,1.459752 -0.19882,0.551208 -0.43824,1.417052 -0.53208,1.924092 -0.15239,0.823327 -0.11101,0.921896 0.38711,0.921896 0.65012,0 0.65857,0.06389 0.24244,1.831077 l -0.31525,1.338799 0.99363,1.082236 c 1.57557,1.716039 1.6488,2.009623 1.03708,4.157835 -0.29489,1.035535 -0.48625,1.921841 -0.42524,1.969573 0.0609,0.04775 0.6176,-0.07185 1.23688,-0.265748 0.6193,-0.193884 1.18583,-0.352526 1.25897,-0.352526 0.29414,0 0.0929,1.782328 -0.52049,4.609479 -0.35591,1.640428 -0.57277,2.9776 -0.48194,2.971488 0.0908,-0.0062 1.15587,-0.943159 2.36669,-2.082341 2.07149,-1.948894 2.25161,-2.063655 3.04939,-1.942832 2.48489,0.376356 3.19301,0.545568 4.54809,1.086846 1.29896,0.51886 1.53921,0.553985 1.94051,0.283687 0.99702,-0.67154 7.87078,-0.944616 8.38046,-0.332934 0.0882,0.105871 1.57537,-0.204143 3.30481,-0.688899 2.44964,-0.686637 3.1969,-0.819961 3.3819,-0.603381 0.13061,0.152909 0.44801,0.546443 0.70529,0.874528 0.25729,0.328088 0.546,0.596519 0.64155,0.596519 0.0956,0 0.48258,-0.610075 0.86006,-1.355727 0.54948,-1.085375 0.79313,-1.341075 1.22188,-1.282247 0.29455,0.04039 1.55093,0.06405 2.79193,0.05255 2.24568,-0.0209 2.26046,-0.01745 3.11021,0.739954 0.4696,0.418513 0.90124,0.760927 0.95917,0.760927 0.058,0 0.39888,-0.578226 0.75762,-1.284937 l 0.65225,-1.284933 1.60042,1.084876 1.60041,1.084885 1.11629,-0.490924 c 0.71601,-0.31488 1.23116,-0.739485 1.43663,-1.184081 l 0.32034,-0.693166 1.40608,0.648724 1.40609,0.648726 0.66596,-0.675711 0.66595,-0.675713 1.20459,0.868835 c 1.39127,1.00346 1.63101,1.047301 2.08257,0.380771 0.18189,-0.268433 0.62809,-0.858617 0.99157,-1.31151 l 0.66092,-0.823453 1.72102,1.222047 1.72107,1.22206 1.15232,-1.020425 c 0.64,-0.566744 1.28706,-0.955265 1.45538,-0.873864 0.1828,0.0884 0.30307,0.917891 0.30307,2.090146 v 1.943577 L 200.0597,52.34003 c -0.85333,-0.167575 -2.56498,0.82948 -3.69942,2.154966 -0.6728,0.786122 -0.74479,1.023467 -0.56903,1.876101 0.41349,2.00579 0.40146,2.02828 -1.00514,1.877423 l -1.24748,-0.133785 v 1.046529 1.046536 l -2.36264,0.38796 c -2.41097,0.395902 -2.97056,0.614928 -2.1786,0.852725 0.33709,0.101213 0.0165,0.401657 -1.31838,1.235011 -0.97011,0.60569 -1.83779,1.261245 -1.92821,1.456781 -0.14032,0.303507 -0.21189,0.286008 -0.48934,-0.119622 -0.58223,-0.85127 -1.14817,-0.368815 -1.14817,0.978789 0,0.895115 -0.22538,1.589369 -0.87269,2.688252 -0.7694,1.306142 -0.96295,1.481489 -1.63522,1.481489 -0.56235,0 -1.31539,0.404002 -2.86845,1.538903 -2.21075,1.615507 -2.17424,1.547836 -1.65169,3.062005 0.0932,0.270201 -0.29044,0.555843 -1.41184,1.051055 -1.73654,0.766858 -2.01377,1.005353 -1.5712,1.35165 0.16968,0.132774 0.30851,0.460578 0.30851,0.728458 0,0.390249 -0.41533,0.647675 -2.08964,1.295176 -1.14932,0.444466 -2.49999,1.163508 -3.0015,1.597871 -0.50152,0.43437 -1.37,1.011327 -1.92999,1.282133 -1.15379,0.557975 -1.17365,0.613507 -0.60231,1.683486 0.22871,0.428308 0.41583,0.854872 0.41583,0.94794 0,0.242831 -1.60938,0.648054 -2.04926,0.515977 -0.24333,-0.07306 -0.43075,0.125291 -0.54661,0.578557 -0.28882,1.130001 -0.23623,1.192243 1.26136,1.492578 l 1.43767,0.288312 -0.66954,0.42424 c -0.59763,0.378657 -0.62173,0.451127 -0.22439,0.674583 0.24485,0.137688 1.28607,0.721733 2.31386,1.297862 l 1.86865,1.047508 -0.9029,0.589813 -0.9029,0.589808 1.76983,1.029102 c 0.9734,0.566004 2.01997,1.083037 2.3257,1.148954 0.30574,0.06592 0.99251,0.543914 1.52615,1.062211 0.53364,0.518296 1.1301,0.948281 1.32547,0.955533 0.19539,0.0072 0.43602,0.177929 0.53477,0.379281 0.0988,0.201344 0.62501,0.661033 1.16946,1.021511 0.54447,0.36048 1.67605,1.208162 2.51461,1.88374 0.8386,0.675588 1.71182,1.277857 1.94052,1.338388 0.22871,0.0605 0.6616,0.6099 0.96199,1.22082 0.30038,0.61093 0.61569,1.11078 0.70065,1.11078 0.085,0 0.43176,-0.15197 0.77063,-0.33768 0.5917,-0.32429 0.61613,-0.31415 0.61613,0.25575 0,0.32639 0.274,1.25918 0.60892,2.07286 l 0.60895,1.47944 2.78696,0.6968 c 1.53281,0.38324 2.94288,0.78569 3.13347,0.89437 0.19245,0.10972 0.34652,0.65194 0.34652,1.21945 0,0.56201 0.0779,1.08275 0.17295,1.15718 0.0951,0.0745 0.65647,-0.0577 1.24746,-0.29363 1.0742,-0.42881 1.28933,-0.37092 0.8126,0.21869 -0.17933,0.2218 -0.002,0.57065 0.60705,1.19305 1.8311,1.87179 2.49585,2.28714 4.35871,2.72338 1.38009,0.3232 1.98989,0.60088 2.56392,1.16755 0.64912,0.64078 0.69698,0.77997 0.34652,1.00756 -0.70426,0.45737 -0.45959,0.59799 1.52276,0.87519 l 1.92939,0.2698 -0.16158,0.92246 c -0.14276,0.81489 -0.0552,1.02603 0.75046,1.81052 0.97289,0.94731 0.96888,1.29909 -0.0106,0.88911 -0.32992,-0.13816 -0.7713,-0.19971 -0.98087,-0.1368 -0.20955,0.0629 -1.14348,-0.087 -2.07537,-0.33332 -1.6818,-0.44442 -1.69882,-0.44458 -2.30016,-0.0239 -0.48665,0.34039 -1.06943,0.43254 -2.96217,0.46843 -1.29599,0.0247 -2.59164,0.0997 -2.87921,0.16718 -0.44951,0.10532 -0.49657,0.0405 -0.3354,-0.46197 l 0.18746,-0.58448 -1.88233,0.15152 c -1.03528,0.0834 -1.94471,0.1519 -2.02093,0.15232 -2.62404,0.0151 -3.60382,-0.0831 -3.60382,-0.36182 0,-0.17117 -0.12286,-0.56408 -0.273,-0.8731 l -0.27302,-0.56185 -1.87542,0.90914 c -1.03149,0.50003 -2.07867,1.10434 -2.3271,1.3429 -0.44812,0.43033 -0.4623,0.42877 -1.80191,-0.19872 -0.7426,-0.34787 -1.47496,-0.63249 -1.62743,-0.63249 -0.15246,0 -0.34072,-0.24402 -0.41832,-0.54228 -0.13134,-0.50478 -0.31217,-0.55991 -2.61411,-0.79701 l -2.47302,-0.25472 -1.15829,0.62357 c -0.63706,0.34298 -1.31304,0.91595 -1.50221,1.27329 l -0.34392,0.6497 -1.2894,-0.37327 c -1.10162,-0.31891 -1.30137,-0.46819 -1.37171,-1.02507 l -0.0823,-0.65181 -1.99679,0.0773 c -1.59689,0.0619 -2.09535,0.16706 -2.48886,0.5253 -0.57763,0.52586 -0.56063,0.53662 -0.98615,-0.62393 l -0.33071,-0.90198 -1.59049,-0.0979 -1.59049,-0.0978 -1.7326,1.40413 c -0.95292,0.77229 -1.73355,1.27103 -1.73471,1.10829 -0.004,-0.4127 -3.92529,-1.97322 -4.27392,-1.70042 -0.41156,0.32205 -2.18372,0.25262 -3.35881,-0.13158 -1.36016,-0.44469 -1.91572,-0.21986 -3.59862,1.45625 -1.05568,1.05143 -1.21919,1.33373 -0.97732,1.68737 0.57632,0.84262 0.33967,2.55851 -0.54118,3.92388 -0.45739,0.70902 -0.83164,1.34071 -0.83164,1.40377 0,0.0631 0.34306,0.11505 0.76235,0.11558 l 0.76234,6.1e-4 v 2.43937 c 0,2.1182 -0.076,2.52509 -0.57701,3.09015 -0.44092,0.49724 -0.53053,0.81854 -0.37988,1.36206 0.17927,0.64687 0.14592,0.69859 -0.36831,0.57089 -0.55417,-0.13762 -0.56187,-0.0887 -0.3866,2.46203 0.0984,1.43133 0.25642,2.76064 0.35124,2.95399 0.10086,0.20558 0.0321,0.35157 -0.16531,0.35157 -0.18573,0 -0.94739,0.39942 -1.69256,0.88761 l -1.35485,0.8876 1.42994,2.095 1.42992,2.095 -0.85051,1.06847 c -0.67894,0.85294 -0.79971,1.17303 -0.59868,1.58676 0.31889,0.65631 0.31386,2.51392 -0.009,3.60533 -0.13661,0.46071 -0.55719,1.09518 -0.93464,1.40995 -0.49833,0.41557 -0.77856,1.01028 -1.02325,2.1715 -0.18535,0.87959 -0.22956,1.66045 -0.0982,1.73532 0.97629,0.55687 0.95543,0.79108 -0.32119,3.60701 -0.69121,1.52464 -1.19924,2.81703 -1.12898,2.87202 0.0702,0.055 0.57257,-0.1655 1.11622,-0.48997 0.94274,-0.56265 0.98845,-0.56914 0.98845,-0.14003 0,0.31733 -0.46975,0.668 -1.59398,1.18989 -0.8767,0.40698 -1.55761,0.8628 -1.51312,1.01292 0.0873,0.29459 -0.71021,1.0864 -1.0941,1.0864 -0.12885,0 -0.23425,-0.72015 -0.23425,-1.60032 z"
       id="path68"
       inkscape:connector-curvature="0" />
    <path
       style="opacity:0.8;fill:#f2f2f2;fill-opacity:1;stroke-width:0.20790438"
       d="m 132.20977,149.868 c 0,-1.62688 -0.21533,-1.79863 -2.05883,-1.64111 -1.22582,0.10462 -1.35568,0.0794 -1.82863,-0.35786 -0.47344,-0.43749 -0.48115,-0.49304 -0.11031,-0.79102 0.33174,-0.26652 0.36961,-0.54766 0.22501,-1.66846 -0.0979,-0.76021 -0.29684,-1.37723 -0.45622,-1.41511 -0.15577,-0.037 -1.07925,-0.23457 -2.05299,-0.43941 l -1.77046,-0.37226 -0.7081,-1.13527 c -0.64324,-1.03132 -0.77135,-1.13204 -1.39945,-1.09983 -0.65122,0.0335 -0.69183,-0.005 -0.69829,-0.67362 -0.002,-0.38998 -0.0962,-1.12798 -0.20593,-1.64005 -0.18864,-0.88171 -0.27695,-0.97058 -1.66361,-1.67786 -1.34217,-0.68444 -1.42184,-0.76077 -0.95242,-0.91304 0.28192,-0.0912 0.51222,-0.21395 0.51222,-0.27223 0,-0.0584 -0.88448,-0.66348 -1.96549,-1.34477 -1.08104,-0.68126 -2.34733,-1.53867 -2.81402,-1.90533 -0.46667,-0.36669 -1.01046,-0.66669 -1.20839,-0.66669 -0.19773,0 -0.54766,-0.28626 -0.77716,-0.63614 -0.41037,-0.62556 -0.40636,-0.65109 0.24379,-1.53677 0.50935,-0.6944 0.59701,-0.9564 0.3827,-1.14411 -0.22941,-0.20104 -0.40944,-0.15552 -1.03194,0.26085 -1.59115,1.06438 -1.51208,1.08027 -1.96348,-0.39459 -0.25787,-0.84252 -0.52811,-1.33533 -0.7324,-1.33533 -0.17778,0 -0.67577,-0.39886 -1.10609,-0.88632 -0.43028,-0.48748 -0.84457,-0.88631 -0.92059,-0.88631 -0.0759,0 -0.35462,0.13957 -0.61862,0.31019 -0.52085,0.33632 -0.52085,0.34698 0.002,-1.59533 0.12204,-0.4511 0.0264,-0.52081 -1.26163,-0.93544 l -1.39356,-0.44804 0.16985,-0.92578 c 0.0936,-0.50921 0.18542,-1.00559 0.20478,-1.1031 0.0177,-0.10293 -0.8395,-0.19848 -2.05353,-0.22798 l -2.08848,-0.0508 -0.227953,0.67116 c -0.218268,0.64284 -0.294896,0.6841 -1.813051,0.97781 -0.930683,0.1801 -2.039648,0.27127 -2.686497,0.22095 l -1.101541,-0.0858 -0.709045,1.37443 c -0.389915,0.75595 -0.73439,1.40019 -0.76534,1.43166 -0.02993,0.0315 -0.464373,-0.0245 -0.96316,-0.12473 -0.855463,-0.17165 -0.970699,-0.14334 -2.034543,0.50255 -0.62027,0.37654 -1.545673,0.80948 -2.056576,0.96212 -0.913373,0.27292 -0.926048,0.27128 -0.764313,-0.099 0.122041,-0.27899 0.07597,-0.35214 -0.17485,-0.28205 -0.186874,0.052 -0.994784,0.19126 -1.796032,0.30944 -0.801192,0.11821 -1.965308,0.44901 -2.586782,0.7352 l -1.130058,0.52034 -0.173379,1.51349 c -0.232937,2.0295 -0.467808,2.06714 -2.554511,0.40879 -1.834232,-1.45776 -1.697639,-1.48625 -2.205373,0.46015 -0.446683,1.71244 -0.450614,1.7178 -1.179372,1.60417 -0.539595,-0.084 -0.909562,0.0679 -2.187331,0.89874 -0.84592,0.55 -1.484174,1.10179 -1.418548,1.22619 0.06954,0.13179 -0.199197,0.32209 -0.643504,0.45589 -0.419577,0.12655 -1.494951,0.76086 -2.389726,1.41002 -1.87228,1.35834 -3.336807,1.85116 -4.673339,1.57251 -1.639169,-0.3418 -2.099084,-0.23458 -2.672385,0.6233 -0.290142,0.43393 -0.605308,0.75386 -0.700624,0.71103 -0.09505,-0.0428 -0.85828,0.32005 -1.695262,0.80642 -0.836982,0.48639 -1.580496,0.88433 -1.652254,0.88433 -0.220907,0 -2.489647,-1.0943 -2.489647,-1.20105 0,-0.0553 0.183942,-0.24787 0.407989,-0.42825 0.303196,-0.24348 0.392762,-0.60004 0.348611,-1.38775 -0.05427,-0.9678 -0.01466,-1.05999 0.445451,-1.05999 0.342186,0 0.504946,-0.11402 0.504946,-0.35451 0,-0.19492 -0.158126,-0.35453 -0.35122,-0.35453 -0.620389,0 -0.653364,-0.31686 -0.160475,-1.54526 0.2655,-0.66126 0.658321,-1.66532 0.873595,-2.23123 l 0.391383,-1.02894 0.823193,0.36986 0.823224,0.36987 0.393701,-0.98453 c 0.356855,-0.89274 0.359084,-1.11661 0.02347,-2.40129 -0.203012,-0.77921 -0.533403,-1.64688 -0.733482,-1.92813 -0.314461,-0.44184 -0.316692,-0.53991 -0.01466,-0.72094 0.196264,-0.11837 0.379062,-0.60772 0.42034,-1.12407 0.06014,-0.75704 0.156951,-0.92364 0.560657,-0.9674 1.661467,-0.18012 1.649554,-0.17164 1.469104,-1.04643 l -0.1681,-0.81382 0.666798,0.38127 c 0.366621,0.2097 0.700124,0.35702 0.740931,0.32739 0.04078,-0.0297 0.371113,-1.02971 0.73445,-2.22237 l 0.660374,-2.16853 -0.671932,-0.50985 c -0.584157,-0.44325 -0.620916,-0.5306 -0.281635,-0.66878 0.473849,-0.19277 0.936111,-1.24546 0.611058,-1.39151 -0.289262,-0.12997 -0.295304,-1.09202 -0.0088,-1.22129 0.120281,-0.054 0.286914,0.0324 0.371463,0.19215 0.24643,0.46676 0.460237,0.14822 1.246614,-1.85707 0.726498,-1.85261 0.756745,-1.89183 1.458307,-1.89183 0.713826,0 0.717523,-0.006 1.00608,-1.50674 0.44017,-2.2903 0.443047,-2.27357 -0.401651,-2.3375 l -0.733893,-0.0555 1.70333,-1.32947 c 0.936875,-0.73122 1.706,-1.38571 1.709197,-1.45445 0.0025,-0.0688 -0.870278,-0.60985 -1.941163,-1.20246 l -1.946974,-1.07748 -0.747415,0.28094 c -0.740904,0.27853 -0.757979,0.27448 -1.984701,-0.47215 l -1.237255,-0.7531 -0.734301,0.30636 c -0.403882,0.16852 -0.776989,0.27533 -0.82915,0.23741 -0.05222,-0.0379 -0.162819,-0.59882 -0.246135,-1.246452 l -0.150849,-1.177582 -0.942008,-0.184379 c -0.599763,-0.117417 -1.512199,-0.12885 -2.511268,-0.03157 -1.845554,0.179741 -1.989657,0.135001 -3.654174,-1.135324 l -1.234535,-0.942179 -1.828804,0.435374 c -1.005816,0.239435 -1.900385,0.436447 -1.987751,0.437749 -0.08742,0.001 -0.235282,-0.47624 -0.32872,-1.061207 -0.09328,-0.584963 -0.251123,-1.063581 -0.351573,-1.063581 -0.100047,0 -0.788048,0.151646 -1.528952,0.336956 l -1.347209,0.336952 -0.730664,-0.531158 c -0.714354,-0.519305 -0.747446,-0.524847 -1.48304,-0.248323 -0.413825,0.155569 -1.066483,0.282842 -1.450416,0.282842 -0.871159,0 -1.940107,-0.770881 -2.155704,-1.554583 -0.129668,-0.471582 -0.441373,-0.686428 -1.854591,-1.27875 -0.934225,-0.391556 -1.743152,-0.711928 -1.797602,-0.711928 -0.05427,0 -0.407107,0.30923 -0.783706,0.687174 l -0.684692,0.687176 -0.791774,-0.685562 c -0.435442,-0.377061 -0.912384,-0.94554 -1.059855,-1.26328 -0.147475,-0.317734 -0.314455,-0.616501 -0.370745,-0.663918 -0.05665,-0.04742 -0.836313,0.500286 -1.732924,1.217113 l -1.630226,1.303326 -1.064911,-1.352998 c -0.585422,-0.744161 -1.160938,-1.396276 -1.278617,-1.449161 -0.117847,-0.05288 -0.213896,0.288078 -0.213896,0.757699 0,0.851308 -0.0032,0.854712 -1.097297,1.1407 l -1.097298,0.286848 V 91.15649 90.209805 l -1.950389,-0.909674 c -1.072906,-0.500324 -1.950722,-0.972474 -1.950722,-1.049219 0,-0.07673 0.732372,-0.196546 1.627446,-0.266244 0.895113,-0.06969 1.765085,-0.165073 1.933234,-0.211994 0.168102,-0.0469 0.502228,-0.482525 0.742388,-0.968014 0.240152,-0.485509 0.549809,-0.949365 0.68809,-1.030797 0.138439,-0.08143 1.293885,-0.242817 2.567963,-0.358612 1.274078,-0.115811 2.66414,-0.24627 3.089067,-0.28992 1.168559,-0.120081 3.533117,-1.537867 3.994029,-2.394854 0.433628,-0.806264 0.81008,-1.035259 1.708337,-1.039174 0.387951,-0.002 0.933676,-0.235932 1.447503,-0.621289 1.224376,-0.918366 2.025067,-0.956199 4.106785,-0.194064 0.954593,0.349472 1.793218,0.635404 1.863685,0.635404 0.0707,0 0.127615,-0.441531 0.127615,-0.981182 0,-0.878347 0.04488,-0.964109 0.426705,-0.818274 0.234696,0.08961 0.880312,0.217503 1.43478,0.284241 l 1.008015,0.121321 0.291317,-0.942735 c 0.159885,-0.518504 0.341833,-1.057235 0.403762,-1.197192 0.07627,-0.172443 0.698834,0.168838 1.931747,1.059142 l 1.819123,1.313596 0.0021,-0.615983 c 0.0014,-0.33879 0.07188,-1.039325 0.15754,-1.556748 0.149324,-0.905749 0.198023,-0.956491 1.302498,-1.363335 l 1.147132,-0.422572 1.153204,1.141757 c 0.634292,0.627966 1.215458,1.141756 1.291498,1.141756 0.07598,0 0.06219,-0.925325 -0.02992,-2.056278 l -0.169274,-2.056271 1.321216,0.549538 c 1.475117,0.613523 1.871519,0.673714 1.871519,0.28416 0,-0.145951 0.379999,-0.571172 0.84452,-0.94491 0.880783,-0.708748 1.553888,-0.902619 5.482774,-1.579092 l 1.816227,-0.312711 0.549451,-1.595373 c 0.302081,-0.877452 0.613875,-1.781212 0.692672,-2.008348 0.123217,-0.35466 0.07188,-0.39657 -0.360639,-0.29673 -0.395343,0.09121 -0.769066,-0.08712 -1.734925,-0.827851 -1.809998,-1.388174 -2.466617,-2.790036 -1.562454,-3.33555 0.465811,-0.28104 0.250244,-0.533407 -0.45569,-0.533407 -0.525893,0 -0.543026,-0.04321 -0.369234,-0.930633 0.282222,-1.440283 0.264326,-1.551051 -0.252298,-1.551051 -0.372959,0 -0.522636,-0.192941 -0.722538,-0.930631 -0.623644,-2.301727 -0.625609,-2.2446 0.09682,-2.792675 l 0.670994,-0.50912 -0.823691,-0.154146 c -0.56016,-0.104811 -0.931067,-0.320983 -1.159365,-0.675679 -0.184824,-0.28686 -0.600439,-0.728594 -0.923879,-0.981617 -0.538155,-0.420919 -0.567112,-0.528519 -0.340014,-1.264778 0.366242,-1.187796 -0.203011,-2.277758 -1.558229,-2.985411 -1.340463,-0.699811 -2.459019,-2.347254 -2.244919,-3.30638 0.107369,-0.482043 0.0396,-0.696334 -0.275179,-0.870326 -0.391238,-0.216081 -0.389271,-0.231174 0.02992,-0.236456 0.396606,-0.005 0.351984,-0.135185 -0.38182,-1.113534 -1.520209,-2.026841 -1.653046,-2.401141 -1.294931,-3.64877 l 0.31634,-1.101599 -1.335974,-0.829699 c -1.243766,-0.772454 -1.326466,-0.872146 -1.198558,-1.444962 0.111189,-0.497254 -0.03374,-0.821761 -0.746799,-1.691997 -0.486259,-0.592206 -0.937754,-1.148199 -1.003351,-1.235545 -0.06631,-0.08812 0.1681,-0.106376 0.526713,-0.04093 0.355389,0.06486 0.646,0.06787 0.646,0.0066 0,-0.06116 -0.561978,-0.624636 -1.248902,-1.252177 -0.686923,-0.627537 -1.208094,-1.165441 -1.15825,-1.195341 0.04988,-0.02989 0.436532,-0.13911 0.859337,-0.24269 0.76402,-0.187204 0.771794,-0.18291 1.280174,0.706377 0.361782,0.632777 0.5114,1.276998 0.5114,2.200539 0,0.780387 0.1015,1.305837 0.251712,1.305837 0.619858,0 2.647008,-0.927333 3.624308,-1.657955 l 1.072088,-0.801479 1.647267,1.539926 c 1.638906,1.53204 1.659441,1.543535 4.011703,2.245223 l 2.36435,0.705291 -0.159007,0.870609 c -0.08742,0.478835 -0.220613,1.094648 -0.295715,1.368471 l -0.137004,0.497886 2.588335,-0.492335 2.588337,-0.492329 v 0.832142 0.832133 l 1.036355,-0.145699 c 2.023629,-0.284595 2.183985,-0.241938 3.108977,0.826832 l 0.853411,0.986181 1.146398,-0.105756 1.146399,-0.105757 0.906657,1.024228 c 0.498698,0.563317 0.933793,1.183761 0.966943,1.37875 0.03374,0.195008 0.06954,0.414353 0.08097,0.487474 0.0572,0.373734 0.85203,0.02354 2.112872,-0.930632 0.772938,-0.584966 1.475236,-1.063579 1.560753,-1.063579 0.08537,0 0.52161,0.917339 0.969202,2.03852 0.447534,1.121193 0.879844,2.036809 0.960754,2.034706 0.08097,-0.002 0.585625,-0.448807 1.121698,-0.992684 l 0.974747,-0.988859 0.915047,0.749584 c 0.503274,0.41227 0.915018,0.841769 0.915018,0.954426 0,0.112666 0.602022,0.637028 1.337821,1.16526 l 1.337762,0.960421 1.100634,-0.563982 c 0.605337,-0.310193 1.098813,-0.505802 1.096494,-0.434686 -0.0021,0.07109 -0.220027,0.727551 -0.48353,1.458759 -0.264032,0.731216 -0.481183,1.406939 -0.4835,1.50162 -0.0021,0.0947 0.693142,-0.33026 1.545408,-0.944304 l 1.549515,-1.116435 0.686367,1.173974 c 0.377479,0.645692 0.771795,1.212357 0.876148,1.259269 0.142576,0.06414 3.278926,-1.259701 3.83923,-1.62065 0.0487,-0.03127 -0.03726,-0.579125 -0.189809,-1.217424 -0.242323,-1.010331 -0.225014,-1.219224 0.130255,-1.613935 0.224717,-0.249375 0.549237,-0.414178 0.721047,-0.366244 0.17191,0.04792 0.72192,0.142966 1.22246,0.211237 0.82724,0.112826 0.89291,0.09359 0.72116,-0.211192 -0.45815,-0.813206 -0.40751,-0.90815 0.88367,-1.656334 1.00607,-0.58291 1.31708,-0.688825 1.37809,-0.469262 0.0865,0.311236 0.25933,0.347284 0.69625,0.145263 0.21856,-0.101141 0.20331,-0.449456 -0.0628,-1.459707 -0.26812,-1.016716 -0.28573,-1.440765 -0.0745,-1.814303 0.25552,-0.452756 0.37586,-0.487475 1.68925,-0.487475 h 1.41398 l 0.17543,-1.191422 c 0.16664,-1.131065 0.24175,-1.241879 1.48251,-2.187497 1.38332,-1.054292 1.5032,-1.245348 0.97968,-1.561204 -0.26197,-0.157934 -0.0117,-0.428274 1.25984,-1.351176 1.38583,-1.007419 1.7024,-1.153749 2.49593,-1.153749 h 0.90885 l 0.17103,-1.572581 0.17105,-1.572583 1.25562,-0.42162 c 1.21419,-0.407722 1.26213,-0.451686 1.45399,-1.332932 0.16253,-0.745181 0.27636,-0.896518 0.62514,-0.830178 0.28163,0.05351 0.52003,-0.06767 0.7005,-0.355546 0.21915,-0.349629 0.52003,-0.461315 1.5096,-0.560249 0.67973,-0.06797 1.2359,-0.157131 1.2359,-0.198106 0,-0.041 -0.38079,-0.761093 -0.84622,-1.600179 -0.64688,-1.166223 -0.78846,-1.60408 -0.60106,-1.858694 0.29719,-0.403482 0.30774,-0.403915 1.2479,-0.05048 0.78442,0.294879 1.16189,0.154813 1.17101,-0.434469 0.002,-0.13227 0.18542,-0.962792 0.40767,-1.845618 l 0.40406,-1.605127 0.90573,0.772136 c 1.03226,0.880075 1.05803,0.86106 1.32884,-0.980694 0.24642,-1.676223 0.34561,-1.811624 0.82005,-1.120829 0.23381,0.3405 0.62244,0.611639 0.92087,0.642595 0.42595,0.04417 0.54277,0.214497 0.66844,0.974946 0.22792,1.380804 0.1989,1.758997 -0.12528,1.613344 -0.20243,-0.09097 -0.23675,0.03714 -0.12205,0.454856 0.088,0.319835 0.15989,0.740375 0.15989,0.93455 0,0.267662 0.11969,0.330255 0.49568,0.258813 0.34339,-0.06531 0.6122,0.03507 0.87536,0.32707 0.47628,0.528402 0.41813,4.151827 -0.0787,4.901949 -0.50954,0.769323 -0.40722,1.028061 0.40624,1.028061 h 0.72338 l -0.51321,0.632278 c -0.43927,0.541219 -0.47556,0.726309 -0.25201,1.285158 0.14346,0.359085 0.3396,1.050357 0.4357,1.536167 0.12675,0.641755 0.53552,1.277484 1.49437,2.324888 l 1.3197,1.441593 -1.11209,1.156452 c -0.6116,0.636048 -1.11212,1.225107 -1.11221,1.309007 -1.2e-4,0.08393 0.4114,0.152539 0.91442,0.152539 0.91036,0 0.91518,0.0039 1.04825,0.845629 0.0828,0.523792 0.32945,0.987931 0.64803,1.219533 0.479,0.348229 0.49249,0.430132 0.19625,1.192896 -0.17484,0.450446 -0.38549,1.158011 -0.46804,1.57236 -0.13406,0.672819 -0.0973,0.753367 0.34037,0.753367 0.57183,0 0.57925,0.05221 0.21328,1.496345 l -0.27723,1.094062 0.87394,0.884395 c 1.38593,1.402337 1.45035,1.642256 0.91227,3.397763 -0.25934,0.846231 -0.42771,1.570515 -0.37417,1.60952 0.0536,0.039 0.54326,-0.05869 1.08804,-0.217159 0.54473,-0.158416 1.04305,-0.288086 1.10739,-0.288086 0.25874,0 0.0818,1.456508 -0.45781,3.76684 -0.31295,1.340548 -0.50386,2.433277 -0.42395,2.428284 0.0799,-0.005 1.01671,-0.770745 2.08178,-1.701675 1.82214,-1.592627 1.98053,-1.686412 2.68225,-1.587673 2.18577,0.307555 2.80862,0.445835 4.00058,0.888165 1.14258,0.424009 1.35386,0.452714 1.70687,0.231851 0.87704,-0.548782 6.92321,-0.771938 7.37151,-0.272073 0.0774,0.08651 1.38572,-0.166842 2.90697,-0.562966 2.15471,-0.561119 2.81203,-0.670071 2.97483,-0.493078 0.11475,0.124948 0.394,0.446548 0.62029,0.714658 0.22619,0.268109 0.48031,0.487471 0.56436,0.487471 0.0839,0 0.42448,-0.498553 0.7565,-1.107895 0.4833,-0.886959 0.69764,-1.095914 1.07476,-1.047841 0.25904,0.03301 1.36419,0.05234 2.4558,0.04293 1.97533,-0.01699 1.98834,-0.01424 2.73575,0.604685 0.4131,0.342007 0.79277,0.621827 0.84379,0.621827 0.0511,0 0.35084,-0.472527 0.66636,-1.050048 l 0.57373,-1.050038 1.40774,0.886559 1.40779,0.88656 0.98185,-0.401182 c 0.62983,-0.257322 1.08294,-0.604302 1.26371,-0.967627 l 0.28193,-0.566447 1.23682,0.530131 1.23678,0.53014 0.5858,-0.552191 0.58577,-0.55219 1.05959,0.71001 c 1.22379,0.820021 1.43466,0.855848 1.83185,0.311163 0.15988,-0.219341 0.55248,-0.701656 0.87222,-1.071763 l 0.58128,-0.672919 1.5139,0.998653 1.51384,0.998659 1.01356,-0.833884 c 0.56301,-0.463141 1.13214,-0.780637 1.28021,-0.714119 0.16047,0.07224 0.26666,0.750099 0.26666,1.708055 v 1.588284 l -0.6039,-0.110187 c -0.75061,-0.136906 -2.25617,0.677845 -3.25404,1.76103 -0.59181,0.642413 -0.65512,0.836368 -0.50048,1.533137 0.36359,1.639122 0.35309,1.6575 -0.88419,1.534222 l -1.09729,-0.109338 v 0.855215 0.855221 l -2.0782,0.317039 c -2.12072,0.323527 -2.61292,0.502519 -1.91631,0.696845 0.29645,0.08271 0.0147,0.328232 -1.15969,1.009245 -0.85329,0.494967 -1.61649,1.03068 -1.69606,1.190471 -0.1235,0.248023 -0.18628,0.233731 -0.43042,-0.09775 -0.51217,-0.695656 -1.00995,-0.301394 -1.00995,0.799865 0,0.73148 -0.19803,1.298822 -0.76763,2.19682 -0.67672,1.067377 -0.84699,1.210671 -1.43834,1.210671 -0.49467,0 -1.15705,0.330147 -2.52311,1.257579 -1.94464,1.320188 -1.91251,1.264884 -1.45285,2.502254 0.0824,0.220811 -0.25553,0.454235 -1.24186,0.858915 -1.52749,0.626677 -1.77133,0.821574 -1.38207,1.104565 0.14874,0.108512 0.27107,0.376378 0.27107,0.595288 0,0.318913 -0.36547,0.529282 -1.8381,1.058413 -1.01088,0.363214 -2.199,0.95081 -2.64012,1.305774 -0.44113,0.354966 -1.20506,0.826444 -1.69766,1.047751 -1.01482,0.455972 -1.03233,0.501348 -0.52973,1.375734 0.20096,0.350012 0.36583,0.6986 0.36583,0.77465 0,0.198429 -1.4156,0.529588 -1.80252,0.421654 -0.21388,-0.05968 -0.37888,0.102361 -0.48081,0.472792 -0.25375,0.92343 -0.208,0.974299 1.10947,1.219731 l 1.26461,0.235606 -0.58896,0.346686 c -0.52568,0.309436 -0.54683,0.368656 -0.19743,0.551265 0.21533,0.112507 1.13123,0.589797 2.03524,1.060608 l 1.6437,0.856016 -0.79422,0.481991 -0.79415,0.481986 1.55673,0.840976 c 0.85624,0.462534 1.77679,0.885054 2.04573,0.938926 0.26901,0.05388 0.87304,0.444479 1.34239,0.868029 0.46937,0.423548 0.99409,0.77493 1.16592,0.780857 0.17191,0.0057 0.38355,0.145423 0.47035,0.309948 0.0872,0.164569 0.54984,0.540191 1.02871,0.834773 0.47892,0.294582 1.47426,0.987303 2.21188,1.53938 0.73762,0.552085 1.50568,1.04426 1.70689,1.093723 0.20096,0.04941 0.58194,0.498401 0.84619,0.997646 0.26432,0.499246 0.54158,0.907718 0.6163,0.907718 0.0747,0 0.37979,-0.124166 0.67786,-0.275945 0.52046,-0.265011 0.54191,-0.256726 0.54191,0.208987 0,0.266721 0.24116,1.028991 0.53563,1.693931 l 0.53567,1.20899 2.45142,0.56941 c 1.34831,0.31318 2.58859,0.64208 2.75622,0.73087 0.16928,0.0897 0.30469,0.53277 0.30469,0.99653 0,0.45929 0.0684,0.88484 0.15227,0.94566 0.0836,0.0609 0.57749,-0.0472 1.09731,-0.23995 0.94488,-0.35042 1.13411,-0.3031 0.71477,0.17874 -0.15754,0.18124 -0.002,0.46632 0.53393,0.97495 1.61068,1.52961 2.19539,1.86903 3.83398,2.22553 1.21396,0.26412 1.75035,0.49104 2.25527,0.95411 0.57095,0.52365 0.61308,0.6374 0.3047,0.82339 -0.61949,0.37375 -0.40421,0.48868 1.33943,0.7152 l 1.69714,0.22049 -0.14228,0.75384 c -0.12587,0.6659 -0.0487,0.83846 0.66011,1.47953 0.85575,0.77413 0.85224,1.06161 -0.0118,0.72657 -0.29012,-0.11295 -0.67849,-0.16319 -0.86282,-0.1118 -0.18424,0.0515 -1.00582,-0.0711 -1.82554,-0.27238 -1.47925,-0.36315 -1.49431,-0.3633 -2.0232,-0.0195 -0.42811,0.27816 -0.94068,0.35348 -2.60555,0.3828 -1.14,0.0199 -2.27964,0.0816 -2.53259,0.13657 -0.3954,0.0861 -0.4368,0.033 -0.29493,-0.37753 l 0.16459,-0.47763 -1.65572,0.12383 c -0.91065,0.0681 -1.71057,0.12416 -1.77763,0.12458 -2.30814,0.0131 -3.16998,-0.0679 -3.16998,-0.29569 0,-0.13991 -0.10797,-0.46097 -0.24027,-0.71349 l -0.24027,-0.45916 -1.64965,0.74295 c -0.90726,0.40862 -1.82839,0.90245 -2.04692,1.09742 -0.39419,0.35165 -0.40666,0.35038 -1.58498,-0.16246 -0.65317,-0.28427 -1.29739,-0.51684 -1.43149,-0.51684 -0.13467,0 -0.29983,-0.19947 -0.36815,-0.44317 -0.11558,-0.41249 -0.27489,-0.45756 -2.29937,-0.65131 l -2.17531,-0.20814 -1.01887,0.50958 c -0.56028,0.28026 -1.1549,0.74851 -1.32127,1.04052 l -0.30247,0.53094 -1.13412,-0.30504 c -0.96892,-0.26061 -1.14462,-0.38261 -1.20645,-0.8377 l -0.0722,-0.53265 -1.7564,0.0632 c -1.40462,0.0505 -1.84309,0.13655 -2.18925,0.42926 -0.50805,0.42973 -0.49308,0.43851 -0.8674,-0.50987 l -0.29102,-0.73708 -1.39898,-0.0799 -1.39906,-0.0799 -1.52394,1.14746 c -0.83822,0.6311 -1.52489,1.03866 -1.52592,0.90568 -0.002,-0.33725 -3.45269,-1.61251 -3.75941,-1.38958 -0.36209,0.26317 -1.92077,0.20643 -2.9544,-0.10749 -1.19637,-0.36341 -1.68508,-0.17973 -3.16536,1.19001 -0.92863,0.85923 -1.07241,1.08994 -0.85968,1.37893 0.50693,0.68859 0.2987,2.0908 -0.47606,3.20657 -0.40226,0.57939 -0.73151,1.09564 -0.73151,1.14716 0,0.0517 0.30173,0.094 0.67062,0.0943 l 0.67054,4.8e-4 v 1.99347 c 0,1.73097 -0.0668,2.06348 -0.50752,2.52523 -0.38786,0.40635 -0.46669,0.66893 -0.33435,1.11308 0.15753,0.52862 0.1282,0.57087 -0.32385,0.46651 -0.48744,-0.11255 -0.49423,-0.0724 -0.34,2.01197 0.0862,1.16969 0.22532,2.25598 0.30881,2.414 0.0892,0.16809 0.0299,0.28728 -0.14522,0.28728 -0.16312,0 -0.83334,0.32641 -1.48873,0.72536 l -1.19183,0.72536 1.25781,1.712 1.25776,1.71202 -0.74809,0.87314 c -0.5972,0.69704 -0.70341,0.9586 -0.52659,1.29671 0.28045,0.53633 0.27634,2.05435 -0.008,2.94625 -0.12029,0.3765 -0.49014,0.89499 -0.82213,1.15223 -0.43836,0.33959 -0.68483,0.82557 -0.90005,1.77452 -0.1631,0.71879 -0.20153,1.35692 -0.0865,1.41809 0.85874,0.45507 0.84041,0.64645 -0.28281,2.94764 -0.60798,1.24595 -1.05483,2.30209 -0.99305,2.347 0.0616,0.0448 0.50368,-0.1352 0.98187,-0.40036 0.82922,-0.45985 0.8694,-0.46515 0.8694,-0.11455 0,0.25935 -0.41318,0.54586 -1.40204,0.97236 -0.77115,0.33261 -1.37008,0.70507 -1.33095,0.82777 0.0763,0.24083 -0.62471,0.88777 -0.9624,0.88777 -0.11381,0 -0.20595,-0.58853 -0.20595,-1.30779 z"
       id="path68-6"
       inkscape:connector-curvature="0" />
    <path
       style="opacity:0.8;fill:#f9f9f9;fill-opacity:1;stroke-width:0.19609621"
       d="m 134.74218,145.99793 c -0.0936,-1.54287 -0.30525,-1.7057 -2.02562,-1.55594 -1.14391,0.0995 -1.26721,0.0757 -1.73598,-0.33898 -0.46927,-0.4148 -0.47967,-0.46749 -0.14894,-0.75014 0.29575,-0.25286 0.31509,-0.51944 0.11564,-1.58227 -0.13558,-0.72096 -0.35797,-1.30607 -0.50928,-1.34196 -0.14822,-0.035 -1.02586,-0.22223 -1.95111,-0.41629 l -1.68228,-0.35267 -0.72945,-1.07646 c -0.66262,-0.9779 -0.78863,-1.07337 -1.37602,-1.04271 -0.60899,0.0315 -0.64922,-0.005 -0.69373,-0.63868 -0.0246,-0.36983 -0.15489,-1.06969 -0.28768,-1.5553 -0.22726,-0.83611 -0.31577,-0.92036 -1.65701,-1.59083 -1.29839,-0.64879 -1.37749,-0.72116 -0.9459,-0.86568 0.25926,-0.0867 0.46827,-0.20305 0.46485,-0.25825 -0.002,-0.0554 -0.8678,-0.62904 -1.92108,-1.2749 -1.05321,-0.64584 -2.29035,-1.4587 -2.74922,-1.80633 -0.45886,-0.34766 -0.98621,-0.63204 -1.17195,-0.632 -0.18582,1e-4 -0.53012,-0.27137 -0.76557,-0.60314 -0.42088,-0.59314 -0.41853,-0.61735 0.14016,-1.45741 0.43794,-0.65862 0.50513,-0.90713 0.2933,-1.08507 -0.22657,-0.19064 -0.39298,-0.14735 -0.95301,0.24758 -1.43151,1.0097 -1.35644,1.02474 -1.86466,-0.37382 -0.29014,-0.79893 -0.57215,-1.26622 -0.76373,-1.26619 -0.16685,2e-5 -0.6569,-0.37811 -1.08855,-0.84029 -0.43169,-0.46221 -0.8432,-0.84037 -0.91451,-0.84036 -0.0713,1e-4 -0.32459,0.13248 -0.56244,0.29433 -0.46935,0.31907 -0.46871,0.32916 -0.0892,-1.51291 0.0888,-0.4278 -0.002,-0.4939 -1.23725,-0.88684 l -1.33306,-0.42462 0.1064,-0.87801 c 0.059,-0.48291 0.11651,-0.95364 0.12887,-1.04613 0.0112,-0.0976 -0.79894,-0.18809 -1.9395,-0.2158 l -1.96211,-0.0477 -0.17493,0.63651 c -0.16755,0.60966 -0.23745,0.64882 -1.64458,0.92765 -0.86273,0.171 -1.897751,0.25766 -2.507421,0.21023 l -1.038327,-0.0809 -0.586141,1.30355 c -0.322467,0.717 -0.608474,1.32803 -0.635735,1.35788 -0.02459,0.0299 -0.436982,-0.0236 -0.910703,-0.11814 -0.812359,-0.16261 -0.918798,-0.13574 -1.879667,0.47701 -0.560284,0.35721 -1.403516,0.76798 -1.874005,0.91285 -0.841089,0.25902 -0.853109,0.25743 -0.722681,-0.0938 0.09872,-0.26463 0.05059,-0.33396 -0.180197,-0.2674 -0.172133,0.0494 -0.922207,0.18158 -1.667077,0.29385 -0.74477,0.1122 -1.817836,0.42618 -2.38437,0.69774 l -1.030216,0.49368 -0.07587,1.43534 c -0.101867,1.9247 -0.32001,1.96044 -2.37285,0.38819 -1.804457,-1.38206 -1.677964,-1.40913 -2.042375,0.43684 -0.320712,1.62403 -0.323875,1.62916 -1.014198,1.52151 -0.511032,-0.0793 -0.849344,0.0647 -2.000253,0.85279 -0.761911,0.52176 -1.328936,1.04514 -1.260229,1.16311 0.07237,0.12503 -0.168613,0.3055 -0.577459,0.43247 -0.386331,0.12016 -1.358688,0.72188 -2.16075,1.33771 -1.67835,1.28849 -3.02387,1.75616 -4.293686,1.49221 -1.5573,-0.32385 -1.982587,-0.22207 -2.471066,0.59163 -0.247649,0.41155 -0.524556,0.71503 -0.61638,0.67442 -0.09168,-0.0405 -0.786746,0.30369 -1.543988,0.76511 -0.757205,0.46143 -1.431825,0.83898 -1.499128,0.83899 -0.20725,-7e-5 -2.398386,-1.03727 -2.404536,-1.1385 -0.0032,-0.0523 0.158423,-0.23509 0.358087,-0.4062 0.27048,-0.23102 0.334064,-0.56912 0.247297,-1.31611 -0.106438,-0.91783 -0.07377,-1.00523 0.356931,-1.00533 0.321061,-9e-5 0.467194,-0.10815 0.45335,-0.3363 -0.01056,-0.18493 -0.168947,-0.33619 -0.349854,-0.33616 -0.581988,2.1e-4 -0.631132,-0.30034 -0.239216,-1.46539 0.210765,-0.62713 0.521888,-1.57943 0.691342,-2.11614 l 0.308065,-0.97584 0.793456,0.35058 0.793457,0.35056 0.312984,-0.93375 c 0.283478,-0.84667 0.272589,-1.05898 -0.115215,-2.27721 -0.235003,-0.7389 -0.594988,-1.56166 -0.798867,-1.82839 -0.320361,-0.41892 -0.328088,-0.51193 -0.05443,-0.68365 0.177745,-0.11235 0.320716,-0.57642 0.329847,-1.06612 0.01405,-0.71792 0.09413,-0.87594 0.470389,-0.91753 1.548237,-0.17114 1.537558,-0.16312 1.318049,-0.99267 l -0.20409,-0.77176 0.647467,0.36146 c 0.355981,0.19878 0.677289,0.33841 0.713891,0.31034 0.03652,-0.028 0.288748,-0.97659 0.561265,-2.10773 l 0.494877,-2.05663 -0.659623,-0.48335 c -0.573489,-0.42024 -0.61297,-0.50309 -0.302798,-0.63419 0.433471,-0.18294 0.806628,-1.1813 0.493258,-1.31974 -0.278559,-0.12313 -0.339681,-1.03553 -0.0801,-1.15821 0.109258,-0.0512 0.270827,0.0306 0.359491,0.1822 0.257833,0.44258 0.440287,0.14044 1.062708,-1.7614 0.575067,-1.75707 0.601169,-1.79426 1.259279,-1.79441 0.669665,-1.2e-4 0.672828,-0.006 0.857246,-1.4291 0.281372,-2.17206 0.284887,-2.15618 -0.511066,-2.21663 l -0.691621,-0.0525 1.521433,-1.26114 c 0.836873,-0.69363 1.520733,-1.31448 1.519821,-1.37966 -0.0018,-0.0653 -0.851416,-0.57817 -1.890062,-1.13995 l -1.888376,-1.021432 -0.684984,0.266602 c -0.679021,0.26438 -0.695318,0.26055 -1.888983,-0.447286 l -1.203918,-0.713946 -0.67125,0.290678 c -0.369187,0.159916 -0.713049,0.261243 -0.764124,0.225333 -0.05128,-0.03613 -0.186875,-0.567855 -0.302444,-1.182029 l -0.209149,-1.116575 -0.894269,-0.174701 c -0.569343,-0.111197 -1.42603,-0.121861 -2.357606,-0.02907 -1.720957,0.17089 -1.858693,0.128406 -3.493168,-1.075927 l -1.212243,-0.893209 -1.690538,0.413217 c -0.929785,0.227291 -1.757632,0.414302 -1.839546,0.415554 -0.08147,8.75e-4 -0.248352,-0.45158 -0.369543,-1.006311 -0.120833,-0.554723 -0.296472,-1.008583 -0.390896,-1.008565 -0.09414,-7.3e-5 -0.730578,0.143967 -1.414961,0.319871 l -1.244495,0.319843 -0.715964,-0.503577 c -0.700017,-0.492326 -0.731351,-0.497575 -1.40548,-0.235217 -0.379235,0.147662 -0.984196,0.268444 -1.344356,0.268543 -0.817275,6.6e-5 -1.864315,-0.730661 -2.111611,-1.473839 -0.148587,-0.447183 -0.453422,-0.650865 -1.813237,-1.2123 -0.898871,-0.371144 -1.676098,-0.674796 -1.727211,-0.674787 -0.05093,1.19e-4 -0.364128,0.293356 -0.695661,0.651838 l -0.602796,0.651729 -0.78211,-0.649983 c -0.43018,-0.35749 -0.91023,-0.896504 -1.066827,-1.1978 -0.156668,-0.301289 -0.3302,-0.584585 -0.385946,-0.629536 -0.05588,-0.04494 -0.755798,0.474615 -1.555753,1.154588 l -1.454297,1.236248 -1.076759,-1.282873 c -0.591894,-0.705613 -1.169248,-1.323914 -1.282674,-1.374051 -0.11346,-0.05011 -0.184065,0.273237 -0.15702,0.718601 0.04883,0.80733 0.04601,0.81056 -0.963856,1.081995 l -1.012852,0.272245 -0.05443,-0.897933 -0.05444,-0.897787 -1.88258,-0.862259 c -1.035276,-0.474254 -1.885846,-0.921837 -1.890236,-0.994612 -0.0032,-0.07277 0.675707,-0.186491 1.511389,-0.252853 0.835677,-0.06612 1.646312,-0.156885 1.801364,-0.201453 0.154912,-0.04458 0.443377,-0.457699 0.640791,-0.918156 0.197418,-0.460477 0.461224,-0.900426 0.58624,-0.977684 0.12505,-0.07724 1.199844,-0.230563 2.388378,-0.340596 1.188533,-0.110121 2.485047,-0.234096 2.881142,-0.275595 1.089299,-0.114117 3.226062,-1.459138 3.609158,-2.271949 0.360408,-0.764695 0.70044,-0.981944 1.542861,-0.985828 0.363816,-0.0017 0.862342,-0.223903 1.322123,-0.589495 1.095869,-0.871171 1.844784,-0.907214 3.841421,-0.184909 0.91556,0.331216 1.718673,0.60221 1.784782,0.602196 0.06674,-3.6e-5 0.09413,-0.418746 0.06358,-0.930522 -0.05026,-0.832968 -0.01406,-0.914311 0.353312,-0.776077 0.22552,0.08489 0.838278,0.206074 1.362273,0.269241 l 0.952511,0.114832 0.219196,-0.894095 c 0.120136,-0.491751 0.259942,-1.002684 0.309824,-1.135422 0.06148,-0.163525 0.665277,0.159991 1.872988,1.004026 l 1.781937,1.245361 -0.03515,-0.584156 c -0.02106,-0.321262 0.0071,-0.985622 0.05832,-1.476354 0.08815,-0.858984 0.131026,-0.907119 1.143533,-1.293165 l 1.051783,-0.400978 1.147401,1.082534 c 0.631132,0.595398 1.20578,1.082525 1.277196,1.08251 0.07131,-7.3e-5 0.0071,-0.877563 -0.147536,-1.95004 l -0.277153,-1.950001 1.27094,0.520879 c 1.419037,0.581526 1.794374,0.638524 1.771998,0.269087 -0.01056,-0.138388 0.323522,-0.541741 0.73792,-0.896264 0.785552,-0.672316 1.405833,-0.856305 5.052607,-1.498636 l 1.685834,-0.296923 0.423778,-1.513059 c 0.23289,-0.832178 0.473551,-1.689324 0.534355,-1.904743 0.0952,-0.336354 0.04496,-0.376095 -0.355313,-0.281298 -0.36564,0.08657 -0.726504,-0.08244 -1.675081,-0.784731 -1.777732,-1.316098 -2.474237,-2.645404 -1.657386,-3.162918 0.420826,-0.266608 0.204092,-0.505902 -0.458131,-0.505754 -0.493364,2.26e-4 -0.511874,-0.04084 -0.399817,-0.882481 0.182309,-1.365932 0.159127,-1.470976 -0.325985,-1.470869 -0.349866,3.71e-4 -0.501338,-0.182832 -0.731279,-0.882404 -0.717301,-2.182688 -0.715825,-2.128511 -0.06991,-2.648416 l 0.60017,-0.482995 -0.781548,-0.146042 c -0.53155,-0.0993 -0.891886,-0.304207 -1.126395,-0.640539 -0.190042,-0.272002 -0.60514,-0.690832 -0.923111,-0.930719 -0.529016,-0.399065 -0.562351,-0.501094 -0.391635,-1.199365 0.275048,-1.126502 -0.321417,-2.160045 -1.633281,-2.83086 -1.297674,-0.663379 -2.441666,-2.225492 -2.295957,-3.135105 0.07306,-0.457166 -0.0026,-0.660371 -0.308066,-0.825309 -0.379411,-0.204838 -0.378497,-0.219155 0.01755,-0.22427 0.371757,-0.005 0.322118,-0.128252 -0.422158,-1.055927 -1.542469,-1.921817 -1.688598,-2.276753 -1.424335,-3.459996 l 0.233597,-1.044755 -1.300941,-0.786559 c -1.211155,-0.732297 -1.294476,-0.82682 -1.207433,-1.370072 0.07556,-0.471582 -0.07974,-0.779303 -0.797742,-1.604433 -0.490164,-0.561516 -0.945624,-1.08869 -1.012191,-1.17151 -0.06744,-0.08353 0.151397,-0.100982 0.49171,-0.03898 0.337222,0.06145 0.609915,0.06422 0.606405,0.0066 -0.0032,-0.05799 -0.563056,-0.592257 -1.243544,-1.187234 -0.680382,-0.594977 -1.200266,-1.104977 -1.155162,-1.133346 0.04531,-0.02822 0.401505,-0.132033 0.792122,-0.230349 0.705989,-0.177688 0.713506,-0.173626 1.241572,0.669629 0.375656,0.600014 0.553081,1.210918 0.606124,2.086746 0.04495,0.740067 0.170018,1.238352 0.310877,1.238316 0.581463,-1.68e-4 2.429793,-0.879955 3.304675,-1.573029 l 0.959608,-0.760293 1.633807,1.460038 c 1.625449,1.452556 1.6454,1.463455 3.89232,2.128408 l 2.258443,0.668368 -0.09908,0.825667 c -0.05443,0.454118 -0.143671,1.03814 -0.198821,1.297837 l -0.100107,0.472153 2.399794,-0.467424 2.399793,-0.46743 0.04778,0.789152 0.04778,0.789141 0.963893,-0.138364 c 1.881946,-0.270267 2.034823,-0.229912 2.963974,0.783482 l 0.857248,0.935055 1.069313,-0.100533 1.06938,-0.100575 0.909341,0.971128 c 0.500176,0.534112 0.944012,1.122414 0.986302,1.307319 0.04392,0.184943 0.08922,0.392929 0.10399,0.462279 0.07482,0.354409 0.800621,0.02198 1.928595,-0.882989 0.69148,-0.554907 1.322792,-1.008937 1.402951,-1.008957 0.0801,-1.05e-4 0.542052,0.869845 1.026384,1.93301 0.484195,1.063177 0.942398,1.931407 1.018131,1.929394 0.07555,-0.002 0.523607,-0.425743 0.995193,-0.941624 l 0.857634,-0.937979 0.901402,0.710668 c 0.495858,0.390879 0.906777,0.798101 0.913242,0.90494 0.0071,0.106838 0.601344,0.603993 1.32198,1.104782 l 1.310078,0.910533 1.000108,-0.535071 c 0.550062,-0.294289 1.001696,-0.479894 1.003627,-0.41245 0.0021,0.06742 -0.164753,0.690008 -0.369793,1.383492 -0.205486,0.693498 -0.370555,1.33435 -0.367281,1.424147 0.0031,0.08982 0.631233,-0.31334 1.395504,-0.895837 l 1.389382,-1.059075 0.711363,1.113185 c 0.391215,0.612253 0.793639,1.149562 0.894274,1.194027 0.137696,0.06082 3.003494,-1.195285 3.508365,-1.537706 0.04396,-0.02945 -0.06825,-0.549188 -0.248339,-1.15449 -0.284879,-0.958092 -0.281376,-1.156192 0.02808,-1.530569 0.196718,-0.236481 0.491463,-0.3929 0.655361,-0.347459 0.164046,0.04538 0.685437,0.135412 1.158963,0.200096 0.78251,0.106869 0.84302,0.08859 0.66436,-0.20047 -0.47648,-0.771097 -0.43453,-0.861145 0.73376,-1.570945 0.91033,-0.552998 1.19598,-0.653508 1.26581,-0.445295 0.0994,0.295155 0.26345,0.329286 0.66147,0.137606 0.19921,-0.09593 0.16478,-0.426271 -0.14259,-1.384283 -0.31016,-0.964132 -0.35091,-1.366279 -0.17386,-1.72056 0.2139,-0.429409 0.32456,-0.462367 1.55662,-0.462636 l 1.32644,-3.06e-4 0.0959,-1.129909 c 0.0916,-1.072667 0.15562,-1.177772 1.26514,-2.074785 1.23707,-1.000109 1.3385,-1.181315 0.82926,-1.480745 -0.25505,-0.149764 -0.0378,-0.406146 1.10419,-1.281633 1.24214,-0.955656 1.53079,-1.094492 2.27512,-1.094651 l 0.85259,-1.75e-4 0.0706,-1.491379 0.0701,-1.491375 1.15362,-0.400097 c 1.11557,-0.3869 1.15803,-0.428604 1.28738,-1.264369 0.10942,-0.70672 0.20831,-0.850261 0.53877,-0.787413 0.26731,0.05067 0.48395,-0.06422 0.63666,-0.33734 0.18548,-0.331612 0.46134,-0.437585 1.38391,-0.531613 0.6338,-0.06467 1.15037,-0.149234 1.14801,-0.188098 -0.002,-0.03893 -0.40091,-0.721699 -0.88573,-1.51734 -0.67389,-1.105841 -0.83183,-1.521047 -0.67061,-1.762547 0.25605,-0.382695 0.26521,-0.383108 1.16773,-0.04821 0.75277,0.279444 1.09884,0.146572 1.07353,-0.412261 -0.006,-0.125431 0.11883,-0.913092 0.27644,-1.750357 l 0.28701,-1.522283 0.89401,0.73206 c 1.01894,0.834395 1.04199,0.81636 1.19025,-0.930296 0.13491,-1.589684 0.22026,-1.718111 0.70483,-1.063098 0.2389,0.322858 0.61903,0.579914 0.90076,0.609205 0.40213,0.0418 0.52153,0.20332 0.6831,0.924447 0.29297,1.309423 0.28734,1.668084 -0.0212,1.529988 -0.19532,-0.08627 -0.21989,0.03529 -0.0889,0.431383 0.10049,0.303307 0.19216,0.702092 0.20341,0.886237 0.0176,0.253807 0.13095,0.313176 0.47984,0.245379 0.3182,-0.06198 0.57628,0.03313 0.83997,0.309995 0.47715,0.501004 0.63078,3.937245 0.20794,4.648723 -0.43385,0.729679 -0.32285,0.97503 0.44011,0.974865 l 0.67857,-3.16e-4 -0.44505,0.599724 c -0.38097,0.513343 -0.40439,0.688876 -0.1623,1.218813 0.15562,0.340496 0.37902,0.996024 0.49692,1.456714 0.15633,0.608574 0.5758,1.211374 1.53546,2.204477 l 1.32082,1.366842 -0.97677,1.096937 c -0.53721,0.60331 -0.97286,1.162043 -0.96818,1.241607 0.002,0.07965 0.39476,0.14459 0.86661,0.144464 0.854,-2.04e-4 0.85874,0.0036 1.03194,0.801724 0.10752,0.496718 0.36599,0.936823 0.67794,1.156394 0.4694,0.330139 0.48674,0.407813 0.2522,1.131237 -0.13837,0.427205 -0.29504,1.098257 -0.34879,1.491224 -0.0872,0.638085 -0.0483,0.714468 0.36261,0.714373 0.53641,-1.81e-4 0.5464,0.04939 0.28629,1.418997 l -0.19706,1.037599 0.87062,0.838522 c 1.38075,1.32961 1.45498,1.55712 1.051,3.222042 -0.19492,0.80257 -0.31083,1.489467 -0.2585,1.526451 0.0524,0.03701 0.50625,-0.05572 1.00815,-0.206174 0.50191,-0.150352 0.96197,-0.273395 1.02231,-0.273428 0.2427,-2.7e-5 0.16052,1.381241 -0.21288,3.572329 -0.21675,1.271358 -0.33303,2.30767 -0.25819,2.302925 0.0746,-0.005 0.90946,-0.731136 1.85509,-1.614194 1.61786,-1.51072 1.76104,-1.599689 2.42492,-1.506191 2.06817,0.291217 2.66032,0.42222 3.80398,0.841458 1.09615,0.401868 1.29602,0.42905 1.6145,0.219529 0.79123,-0.520609 6.4502,-0.733481 6.8995,-0.259479 0.0774,0.08208 1.29026,-0.158505 2.69462,-0.534478 1.98902,-0.53257 2.59942,-0.636025 2.76228,-0.468228 0.11479,0.118479 0.39525,0.423399 0.62299,0.677615 0.22763,0.254241 0.4786,0.462185 0.55741,0.462168 0.0785,-1.3e-5 0.36952,-0.472881 0.64604,-1.050815 0.40234,-0.841236 0.59145,-1.039434 0.94795,-0.99392 0.24485,0.03127 1.28272,0.04939 2.30631,0.04022 1.85194,-0.01642 1.86429,-0.0139 2.60105,0.572885 0.40717,0.324254 0.77942,0.589544 0.82727,0.589532 0.0478,1.18e-4 0.30208,-0.448192 0.56475,-0.995938 l 0.47793,-0.99591 1.3715,0.840467 1.37159,0.840475 0.89794,-0.380654 c 0.57613,-0.24414 0.98116,-0.573309 1.12993,-0.917898 l 0.23183,-0.537231 1.19075,0.502483 1.19063,0.502501 0.5178,-0.523786 0.51774,-0.523782 1.03483,0.673113 c 1.19513,0.777407 1.39502,0.811339 1.73627,0.294721 0.13771,-0.208032 0.47798,-0.665519 0.75665,-1.016571 l 0.50665,-0.638275 1.47757,0.946746 1.47743,0.946769 0.90296,-0.79102 c 0.5015,-0.439329 1.01717,-0.740536 1.1599,-0.677489 0.15459,0.06849 0.2933,0.711289 0.34813,1.619769 l 0.0915,1.506216 -0.57284,-0.104365 c -0.712,-0.129672 -2.07763,0.643294 -2.95138,1.670716 -0.51824,0.60935 -0.56651,0.793299 -0.38141,1.454034 0.43532,1.554375 0.42649,1.571799 -0.7413,1.455146 l -1.03564,-0.103499 0.0492,0.81103 0.0492,0.81104 -1.93134,0.301072 c -1.97081,0.307274 -2.42228,0.477097 -1.75762,0.661239 0.28279,0.07834 0.0315,0.311256 -1.0299,0.957339 -0.77203,0.469574 -1.45714,0.977769 -1.52264,1.129314 -0.10172,0.235243 -0.16122,0.221698 -0.40935,-0.09259 -0.52048,-0.659616 -0.96477,-0.28564 -0.90148,0.758748 0.0418,0.693696 -0.11135,1.231763 -0.5939,2.083487 -0.57353,1.012375 -0.72496,1.148296 -1.27973,1.148417 -0.46402,-6.4e-5 -1.06647,0.313334 -2.29462,1.193128 -1.74841,1.252378 -1.72144,1.199919 -1.21913,2.373277 0.0901,0.209361 -0.21358,0.430821 -1.11567,0.814796 -1.39694,0.594612 -1.6144,0.77949 -1.23303,1.047783 0.14541,0.102894 0.27574,0.356869 0.28806,0.564476 0.0212,0.302408 -0.31264,0.502017 -1.66343,1.004112 -0.92747,0.344649 -2.00824,0.902138 -2.4016,1.238853 -0.39347,0.336716 -1.08308,0.783994 -1.53237,0.993965 -0.92583,0.432635 -0.93969,0.475665 -0.41794,1.304769 0.2083,0.331897 0.38333,0.662437 0.3877,0.734558 0.014,0.188132 -1.29756,0.502516 -1.66668,0.400249 -0.20406,-0.05656 -0.34948,0.09715 -0.42389,0.448466 -0.18512,0.875778 -0.13908,0.924012 1.11085,1.156492 l 1.19986,0.223187 -0.53258,0.328907 c -0.47533,0.293545 -0.49181,0.34972 -0.15349,0.522824 0.20865,0.106647 1.09506,0.559093 1.97014,1.005396 l 1.59113,0.81145 -0.71738,0.457262 -0.71729,0.457243 1.50868,0.797205 c 0.82986,0.438471 1.71771,0.838975 1.97302,0.890011 0.2561,0.05112 0.84453,0.421334 1.30919,0.822902 0.46461,0.401568 0.97705,0.734692 1.13859,0.740286 0.16119,0.0055 0.36816,0.137846 0.45902,0.293847 0.0914,0.156056 0.54682,0.512173 1.013,0.791431 0.46618,0.279276 1.43966,0.935998 2.16337,1.459404 0.72361,0.523403 1.47245,0.990008 1.66408,1.036871 0.19108,0.04687 0.57449,0.472534 0.85109,0.945924 0.27646,0.473399 0.5602,0.860704 0.63032,0.860696 0.0702,0 0.34918,-0.117828 0.61997,-0.261827 0.47311,-0.251401 0.49361,-0.243586 0.52037,0.198052 0.0176,0.252894 0.28595,0.975791 0.59983,1.606296 l 0.57197,1.146452 2.33237,0.53949 c 1.28288,0.29671 2.46522,0.60838 2.62757,0.69254 0.16408,0.085 0.31688,0.50519 0.34322,0.945 0.0246,0.43557 0.11478,0.83911 0.19703,0.89675 0.0816,0.0575 0.53905,-0.0448 1.01559,-0.22777 0.86621,-0.3325 1.04647,-0.28764 0.68079,0.16936 -0.13742,0.17189 0.0246,0.44221 0.55692,0.92446 1.59883,1.45027 2.16683,1.77204 3.72446,2.10979 1.15402,0.25022 1.67018,0.46531 2.17045,0.90436 0.56564,0.49647 0.61174,0.60434 0.33336,0.78079 -0.55966,0.35454 -0.35127,0.46347 1.2976,0.67798 l 1.60476,0.20872 -0.0902,0.71492 c -0.0796,0.63154 0.002,0.79513 0.70426,1.40297 0.84718,0.73396 0.86045,1.00658 0.0282,0.68903 -0.27891,-0.10708 -0.64583,-0.15467 -0.81577,-0.10605 -0.17002,0.0489 -0.94764,-0.0671 -1.72816,-0.25792 -1.40855,-0.34408 -1.42263,-0.34423 -1.89905,-0.0185 -0.38565,0.26388 -0.86216,0.3354 -2.42222,0.36356 -1.06833,0.0194 -2.13382,0.0779 -2.368,0.12989 -0.36592,0.0817 -0.40782,0.0313 -0.29823,-0.35799 l 0.12675,-0.45295 -1.54609,0.11771 c -0.85041,0.0648 -1.5976,0.11814 -1.66043,0.11856 -2.16451,0.0122 -2.97763,-0.0636 -2.99071,-0.27983 -0.006,-0.13273 -0.12789,-0.43713 -0.26625,-0.6766 l -0.25184,-0.43537 -1.5048,0.70488 c -0.82769,0.38772 -1.66339,0.8562 -1.85711,1.04116 -0.34951,0.33357 -0.36144,0.33233 -1.49626,-0.15374 -0.62907,-0.26946 -1.24678,-0.48989 -1.37256,-0.48985 -0.12607,1.7e-4 -0.29226,-0.1891 -0.37089,-0.42019 -0.13208,-0.39117 -0.28383,-0.43387 -2.19432,-0.61719 l -2.05259,-0.19692 -0.92652,0.48347 c -0.50953,0.26593 -1.04044,0.71011 -1.17972,0.98704 l -0.25326,0.50355 -1.08143,-0.28903 c -0.92395,-0.2469 -1.09577,-0.36261 -1.17994,-0.79418 l -0.0988,-0.50511 -1.64409,0.0605 c -1.31471,0.0483 -1.72106,0.1299 -2.02897,0.40755 -0.45188,0.40766 -0.43737,0.41597 -0.84302,-0.48335 l -0.31547,-0.69895 -1.31699,-0.0755 -1.317,-0.0754 -1.36367,1.0885 c -0.75004,0.59866 -1.37081,0.98532 -1.37941,0.85918 -0.0213,-0.3198 -3.33151,-1.52849 -3.60648,-1.31701 -0.32458,0.2497 -1.79001,0.19613 -2.77766,-0.10139 -1.14319,-0.34439 -1.59107,-0.17007 -2.90104,1.12919 -0.82173,0.81503 -0.94335,1.03385 -0.72724,1.30786 0.51515,0.65289 0.40033,1.98272 -0.26206,3.04101 -0.34422,0.54956 -0.62325,1.0392 -0.62031,1.08802 0.002,0.0491 0.28841,0.089 0.63453,0.0893 l 0.62899,4e-4 0.11455,1.89045 c 0.0993,1.64156 0.0556,1.9569 -0.33091,2.39487 -0.34038,0.38544 -0.3994,0.63448 -0.2494,1.05568 0.17807,0.50123 0.15316,0.54132 -0.27682,0.44246 -0.4637,-0.10665 -0.46777,-0.0686 -0.20338,1.90809 0.14824,1.10925 0.34109,2.13938 0.42833,2.28922 0.0936,0.15938 0.046,0.27247 -0.12017,0.27253 -0.15279,2e-5 -0.76298,0.30969 -1.35484,0.68816 l -1.07638,0.68811 1.27827,1.62331 1.27829,1.62334 -0.65164,0.82816 c -0.52014,0.66117 -0.60473,0.90923 -0.41946,1.22984 0.29403,0.50857 0.3777,1.94818 0.15948,2.79405 -0.0906,0.35706 -0.40826,0.84883 -0.70499,1.09284 -0.39169,0.32214 -0.59495,0.78309 -0.74238,1.68306 -0.11156,0.6817 -0.11133,1.28684 -8e-5,1.34485 0.83181,0.43139 0.82557,0.61286 -0.0962,2.7954 -0.49879,1.18169 -0.85727,2.18336 -0.79669,2.22595 0.0602,0.0424 0.46471,-0.12825 0.89804,-0.3799 0.75141,-0.43622 0.78881,-0.44127 0.809,-0.1087 0.0176,0.24599 -0.35624,0.51776 -1.2594,0.92243 -0.70425,0.31559 -1.24471,0.66892 -1.20096,0.78529 0.0854,0.22834 -0.535,0.84202 -0.85177,0.84211 -0.10717,-4e-5 -0.22728,-0.55811 -0.26874,-1.24017 z"
       id="path68-6-7"
       inkscape:connector-curvature="0" />
    <path
       style="opacity:0.8;fill:#ffffff;fill-opacity:1;stroke-width:0.12865704"
       d="m 125.17113,126.45477 c -0.0588,-1.0549 -0.19231,-1.16623 -1.27523,-1.06384 -0.72015,0.0678 -0.79777,0.0517 -1.09289,-0.23173 -0.29552,-0.28376 -0.30186,-0.31966 -0.0938,-0.51292 0.18631,-0.17276 0.19829,-0.35517 0.0729,-1.0819 -0.0853,-0.49294 -0.22543,-0.89302 -0.32053,-0.91754 -0.0933,-0.0253 -0.64584,-0.15194 -1.22832,-0.2847 l -1.05908,-0.24119 -0.45924,-0.73604 c -0.41715,-0.66865 -0.49645,-0.73393 -0.86626,-0.71297 -0.38336,0.0213 -0.40872,-0.004 -0.43673,-0.43671 -0.014,-0.25284 -0.0975,-0.7314 -0.18104,-1.06341 -0.143,-0.57171 -0.19866,-0.62933 -1.04318,-1.08777 -0.81739,-0.44362 -0.86719,-0.49309 -0.59545,-0.5919 0.16308,-0.0593 0.29483,-0.1388 0.2927,-0.17659 -0.001,-0.0377 -0.54634,-0.43009 -1.20943,-0.87171 -0.66303,-0.4416 -1.44189,-0.9974 -1.73077,-1.2351 -0.28882,-0.2377 -0.62083,-0.43214 -0.73777,-0.43212 -0.11694,7e-5 -0.33392,-0.18554 -0.48199,-0.41238 -0.2649,-0.40559 -0.26346,-0.42214 0.0884,-0.99654 0.27579,-0.45035 0.31806,-0.62022 0.18457,-0.74191 -0.14264,-0.13034 -0.24725,-0.10066 -0.6,0.16927 -0.90115,0.6904 -0.85388,0.70069 -1.17385,-0.25559 -0.18279,-0.54628 -0.36017,-0.8658 -0.48081,-0.86576 -0.10494,1e-5 -0.41352,-0.25854 -0.68531,-0.57456 -0.2719,-0.31605 -0.53084,-0.57461 -0.5757,-0.57459 -0.0448,5e-5 -0.2043,0.0905 -0.35411,0.20125 -0.2955,0.21812 -0.29515,0.22506 -0.0559,-1.03447 0.0559,-0.29251 -0.002,-0.33773 -0.77892,-0.6064 l -0.83921,-0.29031 0.0669,-0.60034 c 0.0371,-0.33019 0.0732,-0.65207 0.0809,-0.7153 0.007,-0.0667 -0.50298,-0.12855 -1.22099,-0.14754 l -1.23527,-0.0327 -0.11033,0.43522 c -0.10542,0.41687 -0.14934,0.44363 -1.03533,0.63431 -0.54314,0.11687 -1.19473,0.17616 -1.57853,0.14372 l -0.65371,-0.0554 -0.369,0.89132 c -0.20287,0.49022 -0.38303,0.90802 -0.40021,0.92843 -0.014,0.0204 -0.27509,-0.0158 -0.57334,-0.0807 -0.51142,-0.11111 -0.57842,-0.0928 -1.18333,0.32617 -0.35272,0.24424 -0.8836,0.5251 -1.17978,0.62413 -0.5295,0.17709 -0.53708,0.17602 -0.45494,-0.064 0.062,-0.18093 0.0317,-0.22833 -0.11341,-0.18287 -0.10849,0.0337 -0.58054,0.12416 -1.04949,0.20093 -0.46885,0.0766 -1.14442,0.29142 -1.50109,0.47707 l -0.64855,0.33757 -0.0479,0.98142 c -0.0641,1.31602 -0.20148,1.34048 -1.49383,0.26545 -1.135968,-0.945 -1.056365,-0.96351 -1.285769,0.29869 -0.201826,1.11043 -0.203938,1.11393 -0.638481,1.04033 -0.321583,-0.0543 -0.534714,0.0442 -1.259245,0.58309 -0.479662,0.35674 -0.836642,0.71463 -0.793391,0.7953 0.04544,0.0855 -0.106028,0.20889 -0.363531,0.2957 -0.243036,0.0821 -0.855348,0.49359 -1.360298,0.91463 -1.056611,0.88105 -1.903644,1.20081 -2.703056,1.02032 -0.980423,-0.22143 -1.248149,-0.15181 -1.555679,0.40454 -0.156036,0.28142 -0.330387,0.48893 -0.388013,0.46113 -0.05776,-0.0279 -0.495299,0.20767 -0.972039,0.52317 -0.476702,0.31553 -0.901381,0.57365 -0.943754,0.57365 -0.130328,-4e-5 -1.509889,-0.70922 -1.513765,-0.77843 -0.0019,-0.0359 0.09969,-0.16077 0.225426,-0.27778 0.170125,-0.15795 0.21028,-0.38913 0.155684,-0.89989 -0.06692,-0.62755 -0.04649,-0.68733 0.224721,-0.68739 0.202177,-5e-5 0.294109,-0.0738 0.285302,-0.22997 -0.0071,-0.12622 -0.106375,-0.22987 -0.22014,-0.22986 -0.366386,1.4e-4 -0.397346,-0.20535 -0.150753,-1.00195 0.132782,-0.42882 0.328627,-1.07994 0.435211,-1.44691 l 0.194076,-0.66726 0.499528,0.23971 0.499527,0.2397 0.196896,-0.63844 c 0.178577,-0.57895 0.171533,-0.72411 -0.07255,-1.55707 -0.147933,-0.50524 -0.374592,-1.06782 -0.502943,-1.25016 -0.201828,-0.28646 -0.206404,-0.35005 -0.03522,-0.46748 0.111995,-0.0768 0.201825,-0.39412 0.207461,-0.72893 0.0071,-0.4909 0.05917,-0.59896 0.296223,-0.62738 0.97468,-0.11702 0.967988,-0.11153 0.829775,-0.67875 l -0.128559,-0.52767 0.407633,0.24714 c 0.224014,0.13597 0.426369,0.23142 0.449404,0.21219 0.02465,-0.0189 0.18175,-0.66773 0.353354,-1.44115 l 0.311369,-1.40623 -0.415276,-0.33052 c -0.36095,-0.28736 -0.385782,-0.34399 -0.190473,-0.43362 0.272976,-0.12508 0.50784,-0.80772 0.310664,-0.90238 -0.175408,-0.0842 -0.213803,-0.70806 -0.05037,-0.79193 0.06869,-0.035 0.170478,0.0212 0.226481,0.12457 0.162377,0.30261 0.277203,0.096 0.669019,-1.20436 0.362018,-1.20139 0.378467,-1.22683 0.792756,-1.22692 0.421581,-9e-5 0.423587,-0.004 0.539681,-0.977161 0.177169,-1.485163 0.179283,-1.474302 -0.321581,-1.51564 l -0.435425,-0.03594 0.957847,-0.862305 c 0.526824,-0.474275 0.95735,-0.898781 0.956788,-0.943351 -10e-4,-0.04454 -0.53602,-0.395324 -1.189892,-0.779437 l -1.188834,-0.698399 -0.431233,0.182261 c -0.42746,0.180718 -0.437711,0.178102 -1.189185,-0.305881 L 81.7204,94.278931 81.297834,94.477683 c -0.23247,0.109339 -0.448913,0.178637 -0.481071,0.154077 -0.0317,-0.0246 -0.117649,-0.388272 -0.190554,-0.808205 l -0.131735,-0.763499 -0.562996,-0.11942 c -0.358428,-0.07605 -0.897721,-0.08333 -1.484212,-0.01986 -1.083415,0.116838 -1.170131,0.08777 -2.199125,-0.73567 l -0.763135,-0.610724 -1.064287,0.282552 c -0.58533,0.155401 -1.10652,0.283278 -1.158086,0.28413 -0.05141,7.83e-4 -0.156388,-0.308784 -0.23282,-0.688072 -0.07608,-0.379294 -0.186681,-0.689623 -0.246207,-0.689608 -0.05918,-5.5e-5 -0.459938,0.09843 -0.89078,0.218711 l -0.783456,0.218551 -0.450746,-0.344319 c -0.440703,-0.336651 -0.460427,-0.34024 -0.884827,-0.160836 -0.238809,0.100931 -0.619602,0.183556 -0.846329,0.183617 -0.514496,4.6e-5 -1.173654,-0.499596 -1.329338,-1.007743 -0.09369,-0.305756 -0.285304,-0.445037 -1.141531,-0.828921 -0.565886,-0.253767 -1.055198,-0.46139 -1.087358,-0.461378 -0.0317,7.6e-5 -0.2293,0.200577 -0.437957,0.445692 l -0.379524,0.445681 -0.492377,-0.444434 c -0.270864,-0.244436 -0.573039,-0.612986 -0.671627,-0.819002 -0.09862,-0.206001 -0.207813,-0.399713 -0.243034,-0.43045 -0.03521,-0.0306 -0.47579,0.324523 -0.979402,0.789456 l -0.915577,0.845352 -0.67786,-0.877177 c -0.372655,-0.482458 -0.736117,-0.905231 -0.807513,-0.939508 -0.07151,-0.03429 -0.115885,0.186833 -0.09899,0.491344 0.0317,0.552023 0.02818,0.554228 -0.606814,0.739819 l -0.637636,0.186139 -0.03523,-0.61397 -0.03522,-0.613865 -1.185171,-0.589571 c -0.65176,-0.324273 -1.187215,-0.63031 -1.189997,-0.680074 -0.0022,-0.04974 0.425384,-0.12751 0.951505,-0.172898 0.526085,-0.04522 1.036427,-0.107266 1.134028,-0.137745 0.09756,-0.03059 0.278963,-0.312947 0.403405,-0.627791 0.124335,-0.31487 0.290235,-0.615671 0.369063,-0.668495 0.07891,-0.05281 0.755385,-0.157641 1.503618,-0.232898 0.748235,-0.07527 1.564449,-0.160066 1.813825,-0.188441 0.685751,-0.07802 2.030937,-0.997692 2.272108,-1.553456 0.226834,-0.522863 0.440986,-0.671408 0.971334,-0.674067 0.228947,-0.0013 0.542851,-0.153101 0.83231,-0.403066 0.689907,-0.595665 1.161396,-0.620313 2.418352,-0.126424 0.576418,0.226466 1.082004,0.411763 1.123638,0.411754 0.0419,-2.7e-5 0.05918,-0.286306 0.04016,-0.636252 -0.0317,-0.569544 -0.0071,-0.625163 0.222607,-0.530644 0.141947,0.05802 0.527706,0.140903 0.857603,0.18409 l 0.599665,0.07851 0.13807,-0.61134 c 0.07574,-0.336239 0.163785,-0.685593 0.195133,-0.776352 0.03876,-0.111784 0.418799,0.109408 1.179113,0.686506 l 1.121841,0.851521 -0.02113,-0.399418 c -0.01408,-0.219653 0.0035,-0.673927 0.03663,-1.009465 0.05566,-0.587331 0.08244,-0.620245 0.719882,-0.884207 l 0.66215,-0.274167 0.722345,0.740189 c 0.397347,0.407107 0.759083,0.74018 0.804062,0.740168 0.04474,-4.8e-5 0.0035,-0.600037 -0.09299,-1.333344 l -0.174353,-1.333323 0.800119,0.356152 c 0.893352,0.397622 1.129626,0.436593 1.11557,0.183995 -0.0071,-0.09462 0.203589,-0.370418 0.464553,-0.612822 0.494526,-0.459701 0.88504,-0.585504 3.180851,-1.024702 l 1.061292,-0.203007 0.266636,-1.034565 c 0.146524,-0.569004 0.297984,-1.155083 0.336377,-1.302373 0.05988,-0.229997 0.02817,-0.257141 -0.223664,-0.192352 -0.230358,0.05917 -0.457366,-0.05638 -1.054531,-0.536563 -1.119166,-0.899884 -1.55765,-1.8088 -1.0434,-2.162654 0.264873,-0.182293 0.128558,-0.345912 -0.288473,-0.345812 -0.310665,1.54e-4 -0.322288,-0.02807 -0.251843,-0.603402 0.114828,-0.933961 0.100037,-1.005784 -0.205347,-1.005713 -0.220142,2.55e-4 -0.315594,-0.124997 -0.460362,-0.603347 -0.451587,-1.49242 -0.450672,-1.455379 -0.04404,-1.810867 l 0.377833,-0.330224 -0.492025,-0.09984 c -0.334614,-0.06793 -0.561482,-0.20799 -0.709101,-0.437972 -0.119763,-0.185982 -0.380967,-0.472359 -0.581174,-0.636383 -0.333206,-0.272874 -0.354024,-0.342627 -0.246559,-0.820072 0.173297,-0.77025 -0.20253,-1.476939 -1.02822,-1.935613 -0.816953,-0.453589 -1.53715,-1.521691 -1.445396,-2.143639 0.04614,-0.312601 -0.0019,-0.451535 -0.194075,-0.564312 -0.238811,-0.140048 -0.238459,-0.149853 0.01056,-0.153352 0.23388,-0.0036 0.202883,-0.08767 -0.26593,-0.721994 -0.971123,-1.314051 -1.063089,-1.556741 -0.896733,-2.36579 l 0.14688,-0.714353 -0.818998,-0.537814 c -0.76245,-0.500711 -0.814896,-0.565343 -0.760089,-0.936794 0.04754,-0.322444 -0.05038,-0.532851 -0.502241,-1.097038 -0.308552,-0.383938 -0.595298,-0.744396 -0.637212,-0.801027 -0.04263,-0.05709 0.09545,-0.06903 0.309607,-0.02681 0.212391,0.04199 0.383962,0.04392 0.381778,0.0045 -0.0022,-0.03967 -0.354481,-0.404958 -0.782894,-0.811777 -0.428308,-0.406819 -0.755631,-0.755531 -0.727206,-0.77493 0.02817,-0.01924 0.252898,-0.09031 0.498681,-0.157514 0.444438,-0.121507 0.449159,-0.118732 0.781625,0.45786 0.236344,0.410266 0.348001,0.827972 0.381568,1.426823 0.02817,0.506027 0.107083,0.846728 0.195837,0.846711 0.36607,-1.23e-4 1.529684,-0.601686 2.08046,-1.075578 l 0.604104,-0.519852 1.028572,0.998306 c 1.023287,0.993195 1.035863,1.000644 2.450403,1.455312 l 1.421798,0.456999 -0.06234,0.564556 c -0.03521,0.310485 -0.09051,0.70983 -0.125038,0.8874 l -0.06304,0.322836 1.51077,-0.319603 1.510802,-0.319605 0.0317,0.539584 0.02817,0.539577 0.606814,-0.09462 c 1.184749,-0.184784 1.281011,-0.157198 1.865954,0.535712 l 0.539682,0.639345 0.673176,-0.06877 0.67321,-0.06876 0.572472,0.664015 c 0.31489,0.3652 0.594311,0.767456 0.620941,0.893888 0.02818,0.126465 0.05637,0.268648 0.06551,0.316082 0.0472,0.242322 0.504038,0.01514 1.214161,-0.603746 0.435317,-0.379423 0.832732,-0.689867 0.883207,-0.689878 0.05037,-7.6e-5 0.341306,0.594758 0.64616,1.321703 0.304675,0.726954 0.593292,1.320609 0.640942,1.319236 0.0476,-0.0014 0.32969,-0.291097 0.62654,-0.643843 l 0.53993,-0.641347 0.56747,0.485922 c 0.31208,0.267265 0.57086,0.545704 0.57491,0.618759 0.003,0.07304 0.37857,0.41298 0.83227,0.755396 l 0.82474,0.622584 0.62961,-0.365859 c 0.34624,-0.201212 0.63062,-0.32813 0.63186,-0.282015 10e-4,0.04609 -0.10356,0.471798 -0.23283,0.945969 -0.12926,0.474179 -0.23317,0.912368 -0.23106,0.973767 0.002,0.06142 0.39738,-0.214265 0.87852,-0.612532 l 0.87469,-0.724145 0.44782,0.761141 c 0.24621,0.418632 0.49962,0.786017 0.56301,0.816423 0.0867,0.0416 1.89085,-0.817286 2.20868,-1.051411 0.0282,-0.02017 -0.0429,-0.375512 -0.15637,-0.789388 -0.17929,-0.655101 -0.17718,-0.790552 0.0175,-1.046536 0.12401,-0.161704 0.30924,-0.268648 0.41256,-0.237562 0.10325,0.0309 0.4315,0.09259 0.72963,0.136834 0.49258,0.07308 0.5307,0.06057 0.41824,-0.137068 -0.30011,-0.527244 -0.27368,-0.588813 0.4619,-1.074141 0.57311,-0.378119 0.75295,-0.44684 0.79691,-0.304465 0.0627,0.20181 0.16591,0.225141 0.41643,0.09408 0.12549,-0.06558 0.1035,-0.291475 -0.0897,-0.946506 -0.19513,-0.659232 -0.22085,-0.934199 -0.10962,-1.176441 0.13455,-0.293621 0.2043,-0.316147 0.97997,-0.31633 l 0.83506,-2.11e-4 0.0603,-0.772582 c 0.0577,-0.733439 0.0979,-0.805304 0.79644,-1.418641 0.77883,-0.683828 0.84268,-0.807733 0.52209,-1.012468 -0.16062,-0.102401 -0.0247,-0.277699 0.69515,-0.876319 0.78197,-0.653438 0.9637,-0.748367 1.43229,-0.748475 l 0.53676,-1.21e-4 0.0444,-1.019736 0.0444,-1.019737 0.72626,-0.273565 c 0.7023,-0.264552 0.72902,-0.293052 0.81047,-0.864519 0.069,-0.483226 0.13103,-0.581371 0.33919,-0.538399 0.16837,0.03464 0.30467,-0.04392 0.40079,-0.230658 0.11682,-0.226748 0.2906,-0.299198 0.87125,-0.363492 0.399,-0.0442 0.72421,-0.102054 0.72272,-0.128621 -0.001,-0.02647 -0.25255,-0.493463 -0.5576,-1.037485 -0.42426,-0.756102 -0.52366,-1.040002 -0.42217,-1.205128 0.16132,-0.261682 0.16695,-0.261965 0.73511,-0.03295 0.47392,0.19106 0.69181,0.100218 0.67587,-0.28189 -0.002,-0.08576 0.0747,-0.62433 0.17398,-1.196813 l 0.18071,-1.040868 0.56282,0.500547 c 0.64148,0.570526 0.65598,0.558191 0.74932,-0.636093 0.0849,-1.086952 0.13875,-1.174764 0.44374,-0.726896 0.15039,0.220759 0.38966,0.396517 0.56705,0.416548 0.25324,0.0287 0.32829,0.139008 0.43003,0.632091 0.18457,0.895327 0.18104,1.140562 -0.014,1.046138 -0.12284,-0.05899 -0.13846,0.02427 -0.0559,0.294973 0.0635,0.207391 0.12085,0.480057 0.12782,0.60597 0.01,0.173527 0.0824,0.214136 0.30221,0.16779 0.20042,-0.04237 0.36283,0.0227 0.52881,0.211961 0.30043,0.342563 0.39713,2.69211 0.13103,3.178588 -0.27298,0.498919 -0.20324,0.666679 0.2772,0.666567 l 0.42723,-2.14e-4 -0.28003,0.410062 c -0.23986,0.351001 -0.25465,0.471021 -0.10217,0.833369 0.0979,0.232801 0.23845,0.681035 0.3128,0.996036 0.0982,0.416114 0.36249,0.828283 0.96663,1.50732 l 0.83149,0.934586 -0.61486,0.750036 c -0.33816,0.412516 -0.61252,0.794552 -0.60957,0.848953 0.002,0.05444 0.24869,0.09888 0.54557,0.09878 0.53764,-1.4e-4 0.54062,0.0022 0.64964,0.548183 0.0676,0.339632 0.23035,0.640556 0.42681,0.790688 0.29555,0.225739 0.30645,0.278833 0.15888,0.77349 -0.0869,0.292104 -0.18564,0.750938 -0.21945,1.019632 -0.055,0.436291 -0.0317,0.488517 0.22824,0.488453 0.33778,-1.23e-4 0.34413,0.03377 0.18035,0.970248 l -0.12399,0.709461 0.54809,0.573344 c 0.86923,0.909129 0.91596,1.064688 0.66167,2.203087 -0.12261,0.548763 -0.19586,1.018427 -0.16275,1.043716 0.0317,0.02523 0.31878,-0.03811 0.63473,-0.140961 0.31593,-0.102801 0.60555,-0.186928 0.64356,-0.186959 0.15285,-2e-5 0.10109,0.944428 -0.13386,2.442597 -0.13637,0.869295 -0.20957,1.57788 -0.16237,1.574634 0.0472,-0.0036 0.57254,-0.499917 1.16783,-1.103713 1.01854,-1.032964 1.10867,-1.093796 1.52663,-1.029866 1.30201,0.19913 1.67481,0.288699 2.39479,0.575352 0.69008,0.274796 0.81589,0.293366 1.01638,0.150104 0.49814,-0.355972 4.06075,-0.501523 4.34359,-0.177409 0.0485,0.05612 0.81226,-0.10839 1.69636,-0.36545 1.25222,-0.364151 1.6365,-0.434886 1.73901,-0.320149 0.0723,0.08103 0.24866,0.289489 0.39219,0.463317 0.14337,0.173845 0.30115,0.316023 0.35082,0.31601 0.0497,-7e-6 0.23282,-0.323334 0.40673,-0.718496 0.25323,-0.575202 0.37232,-0.710722 0.59677,-0.679599 0.15428,0.02143 0.80755,0.03377 1.4519,0.02743 1.16594,-0.0114 1.1737,-0.0095 1.63751,0.391712 0.25641,0.221705 0.49069,0.403103 0.5208,0.403096 0.0282,8e-5 0.1902,-0.30645 0.35558,-0.680977 l 0.30079,-0.680959 0.86339,0.574674 0.86347,0.574678 0.56533,-0.260263 c 0.36267,-0.166941 0.61769,-0.392001 0.71132,-0.627615 l 0.14583,-0.367338 0.74963,0.343578 0.74954,0.343588 0.32616,-0.358142 0.3258,-0.358137 0.65149,0.460244 c 0.75239,0.531556 0.87824,0.554758 1.09307,0.201525 0.0867,-0.142247 0.30079,-0.455053 0.47636,-0.695084 l 0.3191,-0.43642 0.93019,0.647343 0.93011,0.647352 0.56849,-0.540862 c 0.31559,-0.300396 0.6403,-0.506345 0.73019,-0.463236 0.0973,0.04683 0.18458,0.486346 0.21907,1.107522 l 0.0575,1.029883 -0.36066,-0.07137 c -0.44819,-0.08863 -1.3079,0.43986 -1.85797,1.142361 -0.32617,0.416648 -0.35668,0.542425 -0.24023,0.994204 0.27404,1.062811 0.26841,1.074727 -0.46669,0.994964 l -0.65202,-0.07075 0.0317,0.554544 0.0317,0.554554 -1.21585,0.205843 c -1.24072,0.210102 -1.52493,0.326217 -1.10646,0.452123 0.17785,0.05357 0.0212,0.212812 -0.64842,0.654587 -0.48603,0.321074 -0.91734,0.668553 -0.95857,0.772174 -0.0638,0.160856 -0.10146,0.151584 -0.25781,-0.06334 -0.32758,-0.451015 -0.60736,-0.195314 -0.56755,0.518798 0.0247,0.474317 -0.0701,0.842223 -0.37385,1.424594 -0.36108,0.692217 -0.45642,0.785153 -0.80566,0.785237 -0.29198,-4.5e-5 -0.67141,0.214231 -1.44458,0.815808 -1.1007,0.856316 -1.0837,0.820447 -0.7675,1.622737 0.0567,0.143142 -0.13455,0.294563 -0.70234,0.557119 -0.87943,0.40657 -1.01634,0.532981 -0.77628,0.71643 0.0916,0.07038 0.17365,0.244025 0.18139,0.385961 0.014,0.206759 -0.19688,0.343257 -1.04719,0.686568 -0.58389,0.235671 -1.26429,0.61684 -1.51192,0.847071 -0.24763,0.230248 -0.68182,0.536059 -0.96469,0.679627 -0.58285,0.295825 -0.59161,0.325237 -0.26311,0.892143 0.13103,0.226938 0.24127,0.452945 0.24411,0.502258 0.007,0.12862 -0.81691,0.343597 -1.04928,0.273661 -0.12851,-0.0387 -0.22013,0.06644 -0.26697,0.30664 -0.11658,0.598822 -0.0876,0.6318 0.69934,0.790755 l 0.75535,0.152595 -0.33533,0.224887 c -0.29939,0.200709 -0.30961,0.239139 -0.0965,0.357485 0.13132,0.07293 0.68941,0.382282 1.24033,0.687444 l 1.00165,0.554834 -0.45158,0.312661 -0.45159,0.312629 0.94978,0.545098 c 0.52242,0.2998 1.08138,0.573651 1.24212,0.608545 0.16132,0.0349 0.53169,0.288101 0.8242,0.562672 0.29234,0.274576 0.61511,0.502345 0.71676,0.506163 0.10145,0.0036 0.23177,0.09423 0.28883,0.200926 0.0575,0.106704 0.34413,0.350195 0.63774,0.541145 0.29341,0.190964 0.90635,0.639988 1.36195,0.997872 0.45554,0.357884 0.92699,0.67692 1.04763,0.708963 0.12009,0.03204 0.36167,0.323101 0.53581,0.646787 0.174,0.323693 0.35266,0.588519 0.39681,0.588508 0.0443,0 0.21979,-0.08057 0.39027,-0.179047 0.29798,-0.17189 0.31066,-0.166561 0.32756,0.135406 0.01,0.17293 0.18,0.667204 0.37764,1.098325 l 0.36008,0.783869 1.46833,0.368889 c 0.80766,0.202881 1.55201,0.415977 1.65418,0.473529 0.10326,0.05815 0.19935,0.345419 0.21592,0.646141 0.0141,0.297813 0.0722,0.57374 0.12398,0.613165 0.0515,0.0394 0.33919,-0.03058 0.63936,-0.155747 0.54531,-0.227347 0.6588,-0.196671 0.42856,0.115809 -0.0867,0.117537 0.014,0.302352 0.35045,0.632107 1.00658,0.991634 1.36415,1.211633 2.34473,1.442572 0.72651,0.171071 1.05149,0.31816 1.36641,0.618358 0.3561,0.339467 0.38512,0.413217 0.20992,0.533867 -0.35233,0.24242 -0.2212,0.31692 0.81693,0.46357 l 1.01025,0.14272 -0.0567,0.48883 c -0.0503,0.43182 0.001,0.54369 0.44339,0.95928 0.53329,0.50186 0.54169,0.68826 0.0177,0.47112 -0.17543,-0.0731 -0.40658,-0.10574 -0.51358,-0.0724 -0.1071,0.0334 -0.59657,-0.046 -1.08796,-0.17637 -0.88675,-0.23528 -0.8956,-0.23539 -1.19552,-0.0125 -0.2427,0.18044 -0.54279,0.22934 -1.52493,0.2486 -0.67256,0.0133 -1.34333,0.0533 -1.49077,0.0889 -0.23038,0.0559 -0.25677,0.0214 -0.18774,-0.24475 l 0.08,-0.30973 -0.9733,0.0806 c -0.53542,0.0443 -1.00579,0.0807 -1.04537,0.081 -1.36263,0.009 -1.87453,-0.0436 -1.88276,-0.1913 -0.002,-0.0908 -0.0806,-0.29889 -0.16766,-0.46263 l -0.15851,-0.29768 -0.94734,0.48197 c -0.52106,0.2651 -1.04716,0.58544 -1.16912,0.7119 -0.22012,0.22807 -0.22754,0.22725 -0.94195,-0.10511 -0.39605,-0.18428 -0.78491,-0.33495 -0.86413,-0.33494 -0.0791,1.2e-4 -0.18386,-0.12928 -0.23353,-0.28731 -0.0831,-0.26746 -0.17857,-0.29665 -1.3814,-0.42201 l -1.29224,-0.13463 -0.5833,0.33058 c -0.32085,0.18182 -0.65497,0.48552 -0.74264,0.67488 l -0.15957,0.34433 -0.68082,-0.19765 c -0.58167,-0.16883 -0.68982,-0.24794 -0.74281,-0.54301 l -0.0619,-0.34538 -1.03501,0.0414 c -0.82769,0.0329 -1.08353,0.0888 -1.27735,0.27867 -0.28461,0.2787 -0.27544,0.28441 -0.53075,-0.3305 l -0.19865,-0.4779 -0.82909,-0.0517 -0.82916,-0.0517 -0.85848,0.74426 c -0.47216,0.40934 -0.86297,0.67371 -0.86841,0.58748 -0.0141,-0.21868 -2.09733,-1.04512 -2.27046,-0.90052 -0.20428,0.17073 -1.12688,0.13411 -1.74865,-0.0693 -0.71967,-0.23549 -1.00162,-0.11631 -1.82632,0.77208 -0.51734,0.55729 -0.5939,0.7069 -0.45785,0.89426 0.32441,0.44643 0.25221,1.3557 -0.16483,2.07931 -0.2166,0.37575 -0.39239,0.71053 -0.39053,0.74395 10e-4,0.0335 0.18177,0.0609 0.39948,0.0611 l 0.39596,2.7e-4 0.0722,1.29262 c 0.0628,1.1224 0.0353,1.33801 -0.20817,1.63749 -0.21415,0.26355 -0.25149,0.43381 -0.15709,0.7218 0.1119,0.34276 0.0965,0.37016 -0.17435,0.30255 -0.292,-0.0729 -0.29447,-0.0468 -0.12782,1.30466 0.0933,0.75846 0.21485,1.46281 0.26981,1.56529 0.0588,0.10905 0.0282,0.18629 -0.0756,0.1863 -0.0962,4e-5 -0.48031,0.21179 -0.85294,0.47058 l -0.67765,0.4705 0.80475,1.10994 0.80477,1.10996 -0.41025,0.56626 c -0.32757,0.45208 -0.38071,0.6217 -0.26417,0.84089 0.18492,0.34774 0.23776,1.33209 0.10037,1.91045 -0.0571,0.24417 -0.25712,0.58041 -0.44382,0.74727 -0.24656,0.22023 -0.37455,0.53541 -0.46734,1.15077 -0.0704,0.46612 -0.0701,0.87989 -8e-5,0.91956 0.52366,0.29509 0.51972,0.41907 -0.0606,1.91136 -0.31384,0.808 -0.53968,1.4929 -0.50157,1.52201 0.0378,0.0284 0.29271,-0.0875 0.5654,-0.2598 0.47304,-0.29822 0.49656,-0.30171 0.50928,-0.0744 0.0108,0.16805 -0.22436,0.35399 -0.79287,0.63072 -0.44336,0.21565 -0.78359,0.45737 -0.75605,0.53691 0.054,0.15607 -0.33672,0.57574 -0.53621,0.5758 -0.0672,-4e-5 -0.14302,-0.38157 -0.16908,-0.84799 z"
       id="path68-6-7-5"
       inkscape:connector-curvature="0" />
  </g>
</svg>
